<svg width="100" height="103" viewBox="0 0 100 103" fill="none" xmlns="http://www.w3.org/2000/svg">
<g clip-path="url(#clip0)">
<ellipse cx="50" cy="50.5178" rx="50" ry="50.2051" fill="#F1FAFB"/>
<path d="M35.0718 86.865V102.961L49.5354 103.341V91.7983L52.655 91.2607L54.7663 102.961L67.8435 103.784L62.7386 79.6548L35.0718 86.865Z" fill="#171D5F"/>
<path d="M23.2235 60.3958L17.9927 95.7195L23.6332 96.3204L32.992 60.0796L23.2235 60.3958Z" fill="#F29891"/>
<path d="M17.9928 95.7195C17.9928 95.7195 8.634 97.8699 9.01213 100.368H20.4192C20.4192 100.368 24.7362 100.052 23.6333 96.3203L17.9928 95.7195Z" fill="#F29891"/>
<path d="M37.0886 44.9003C37.0886 44.9003 25.461 43.9516 19.0327 61.3446L33.3703 66.4993L37.0886 44.9003Z" fill="#F36867"/>
<path d="M78.1478 32.4722L73.043 49.549L78.9986 56.2849C78.9986 56.2849 82.6854 41.2003 82.8114 32.5038L78.1478 32.4722Z" fill="#FCA0A0"/>
<path d="M77.9583 32.9782C77.9583 32.9782 82.5274 33.5791 83.1577 32.4406C84.2606 30.4483 83.6934 25.009 83.6934 25.009C83.6934 25.009 75.6895 25.1988 75.784 25.262C75.8786 25.3253 77.9583 32.9782 77.9583 32.9782Z" fill="#FCA0A0"/>
<path d="M77.9585 32.9783C77.864 32.5672 74.8074 29.1202 73.7045 27.792C73.4524 27.4757 73.5154 26.9698 73.8935 26.7484C74.1456 26.5903 74.5553 26.4638 74.9019 26.7484L77.8325 29.0253L77.9585 32.9783Z" fill="#FCA0A0"/>
<path d="M76.3201 28.5191L75.1227 22.0679C75.0281 21.6568 75.3117 21.214 75.7529 21.1192C76.131 21.0559 76.4777 21.2457 76.5722 21.6251L77.8326 26.2738L76.3201 28.5191Z" fill="#FCA0A0"/>
<path d="M77.8328 25.3568L77.7383 20.4235C77.7383 19.9808 78.0534 19.6329 78.463 19.6013C78.8412 19.5697 79.1248 19.8227 79.1878 20.2021L79.9441 25.6098L77.8328 25.3568Z" fill="#FCA0A0"/>
<path d="M80.0698 25.9261L80.448 20.8979C80.4795 20.4235 80.8891 20.0757 81.3303 20.0757C81.7714 20.0757 82.0865 20.4235 82.0865 20.8663L82.0235 25.4833L80.0698 25.9261Z" fill="#FCA0A0"/>
<path d="M83.6936 25.0091L84.2923 21.7835C84.2923 21.4356 84.0402 21.151 83.6936 21.1194C83.3469 21.1194 83.0633 21.3407 82.9688 21.6886L82.0234 25.5151L83.6936 25.0091Z" fill="#FCA0A0"/>
<path d="M76.4775 27.95C76.4775 27.95 78.8094 26.7166 80.3534 29.8474" stroke="#282828" stroke-width="1.1831" stroke-miterlimit="10" stroke-linecap="round" stroke-linejoin="round"/>
<path d="M79.3769 51.8892C79.3769 51.8892 80.0386 58.5301 76.3203 59.131C72.602 59.7318 64.3461 54.5456 64.3461 54.5456L60.5332 41.5798L74.8708 49.549L79.3769 51.8892Z" fill="#FCA0A0"/>
<path d="M50.5439 42.4969C50.5439 42.4969 58.4848 37.2158 70.8057 45.5012L63.5581 56.9806L56.342 56.3165L50.5439 42.4969Z" fill="#F36867"/>
<path d="M31.7949 64.1907L33.6226 87.3393L65.5435 82.7855L60.5962 49.0429L50.5441 42.4968L37.0888 44.9002L31.7949 64.1907Z" fill="#F36867"/>
<path d="M31.9524 65.9933L31.1016 58.2139" stroke="#121E35" stroke-width="1.1396" stroke-miterlimit="10" stroke-linecap="round" stroke-linejoin="round"/>
<path d="M61.7304 56.8223L60.5015 50.0864" stroke="#121E35" stroke-width="1.1396" stroke-miterlimit="10" stroke-linecap="round" stroke-linejoin="round"/>
<path d="M39.578 43.1611L38.097 34.1167L46.4159 32.7568L47.897 41.8012L50.5439 42.5286C50.5439 42.5286 50.5754 46.3867 44.4622 47.4619C38.3491 48.5687 37.1201 44.932 37.1201 44.932L39.578 43.1611Z" fill="#FCA0A0"/>
<path d="M46.857 35.603C46.857 35.603 46.731 39.1449 43.6744 40.062C40.1767 41.1056 38.5381 37.0577 38.5381 37.0577C38.5381 37.0577 40.4288 38.7022 42.9181 38.291C45.7226 37.8483 46.857 35.603 46.857 35.603Z" fill="#121E35"/>
<path d="M36.9307 19.4748C36.9307 19.4748 38.4117 15.8065 43.3905 16.4073C46.8882 16.8184 48.0856 19.6962 48.6844 21.0244C48.9364 21.5304 49.031 22.068 48.9995 22.6372L48.3062 28.8038L42.4766 20.9611L37.6869 21.815L36.9307 19.4748Z" fill="#121E35"/>
<path d="M48.2748 28.7722C48.2748 28.7722 48.8105 27.697 50.1654 28.0765C51.5204 28.456 51.2368 31.6816 49.3462 32.2508C49.3462 32.2508 48.6529 32.4722 48.0542 32.0611C48.0542 32.0611 48.3063 29.6893 48.2748 28.7722Z" fill="#FCA0A0"/>
<path d="M50.008 29.215C50.008 29.215 48.8736 28.962 48.2749 30.6381" stroke="#131313" stroke-width="0.6978" stroke-miterlimit="10" stroke-linecap="round" stroke-linejoin="round"/>
<path d="M34.9772 30.1003C34.9772 30.1003 34.2524 29.1516 32.9919 29.7841C31.7315 30.4165 32.6453 33.5157 34.6305 33.737C34.6305 33.737 35.3553 33.8319 35.8595 33.2943C35.8595 33.2943 35.1347 30.9858 34.9772 30.1003Z" fill="#FCA0A0"/>
<path d="M33.3701 30.891C33.3701 30.891 34.41 30.4166 35.3553 31.9346" stroke="#131313" stroke-width="0.6978" stroke-miterlimit="10" stroke-linecap="round" stroke-linejoin="round"/>
<path d="M48.1173 25.7679C48.3064 27.6653 48.527 31.6815 47.5817 34.1798C46.6993 36.5199 45.3129 37.6584 42.9495 37.9746C40.5862 38.2909 38.4119 37.7849 36.6788 35.0336C34.9772 32.2823 34.536 27.1593 34.536 27.1593C34.536 27.1593 33.8743 20.3286 40.5862 19.6645C47.6447 18.9687 48.1173 25.7679 48.1173 25.7679Z" fill="#FCA0A0"/>
<path d="M34.9774 30.1005L33.1813 24.2184C33.0552 23.7441 33.0868 23.2381 33.2443 22.7638C33.654 21.5937 34.8829 18.9689 36.8996 19.4749L37.6559 21.7834C37.6559 21.7834 35.198 22.5424 34.5363 25.9261L34.9774 30.1005Z" fill="#121E35"/>
<path d="M36.1431 21.4987C36.1431 21.4987 40.6492 25.9576 48.5585 24.6927C48.5585 24.6927 47.235 19.0004 43.4852 18.9372C39.7669 18.9055 36.8363 20.8346 36.8363 20.8346L36.1431 21.4987Z" fill="#121E35"/>
<path d="M37.6871 21.8149C37.6871 21.8149 36.8994 24.5662 34.5045 26.7798C34.5045 26.7798 33.4331 21.4038 37.6871 21.8149Z" fill="#121E35"/>
<path d="M44.5576 29.1779C44.8842 29.1264 45.1074 28.8189 45.0561 28.4911C45.0048 28.1632 44.6984 27.9392 44.3717 27.9907C44.0451 28.0422 43.8219 28.3497 43.8732 28.6776C43.9245 29.0054 44.2309 29.2294 44.5576 29.1779Z" fill="#121E35"/>
<path d="M39.0073 30.0287C39.334 29.9772 39.5572 29.6697 39.5058 29.3419C39.4545 29.0141 39.1481 28.7901 38.8215 28.8416C38.4948 28.8931 38.2716 29.2006 38.3229 29.5284C38.3742 29.8562 38.6806 30.0802 39.0073 30.0287Z" fill="#121E35"/>
<path d="M39.6408 26.5586L35.7964 28.2346C35.7964 28.2346 35.7964 27.0962 37.3719 26.4321C38.9475 25.7364 39.6408 26.5586 39.6408 26.5586Z" fill="#121E35"/>
<path d="M42.4453 26.1791L46.6048 26.5902C46.6048 26.5902 46.2582 25.4834 44.5566 25.3569C42.855 25.1987 42.4453 26.1791 42.4453 26.1791Z" fill="#121E35"/>
<path d="M41.4053 30.5115L41.5628 31.3653C41.5943 31.5867 41.8149 31.7132 42.0355 31.6183L42.4767 31.4286" stroke="#121E35" stroke-width="1.0257" stroke-miterlimit="10" stroke-linecap="round" stroke-linejoin="round"/>
<path d="M40.145 33.2943L44.4621 32.314C44.4621 32.314 44.8087 33.99 42.6974 34.4011C40.5547 34.8439 40.145 33.2943 40.145 33.2943Z" fill="white"/>
</g>
<defs>
<clipPath id="clip0">
<rect width="100" height="102.913" fill="white"/>
</clipPath>
</defs>
</svg>
