<svg width="568" height="413" viewBox="0 0 568 413" fill="none" xmlns="http://www.w3.org/2000/svg">
<path d="M398.119 353.852H207.055C203.109 353.852 199.89 350.635 199.89 346.692V324.589C199.89 320.646 203.109 317.429 207.055 317.429H398.119C402.064 317.429 405.283 320.646 405.283 324.589V346.692C405.283 350.635 402.064 353.852 398.119 353.852Z" fill="#FFF2F3"/>
<path d="M447.858 128.777C446.924 128.466 446.301 128.155 446.301 128.155C446.82 127.947 447.339 127.739 447.858 127.532C455.542 123.9 469.145 111.033 483.371 72.1193C498.74 30.3005 522.415 43.5829 522.415 43.5829C510.058 49.4977 512.342 77.3078 493.859 109.269C477.868 136.871 454.089 130.853 447.858 128.777Z" fill="#4CDDC1"/>
<path d="M447.858 128.777C446.924 128.466 446.301 128.155 446.301 128.155C446.82 127.947 447.339 127.739 447.858 127.532C459.696 124.523 474.337 117.051 481.814 102.212C487.525 90.9015 496.144 67.2422 496.247 67.0347L497.39 67.4497C497.286 67.6573 488.667 91.4203 482.956 102.731C475.272 117.985 460.008 125.664 447.858 128.777Z" fill="url(#paint0_linear)"/>
<path d="M503.826 136.352C465.717 157.002 449.622 126.702 448.376 124.315C448.272 124.211 448.272 124.211 448.272 124.211C449.415 124.419 450.557 124.523 451.595 124.626C480.878 126.806 498.323 92.9769 518.883 80.7322C540.17 67.9686 556.473 83.949 556.473 83.949C536.328 77.204 543.389 114.768 503.826 136.352Z" fill="#4CDDC1"/>
<path d="M474.649 130.749C465.096 131.164 455.854 128.155 448.274 124.315C448.17 124.211 448.17 124.211 448.17 124.211C449.312 124.419 450.454 124.523 451.493 124.626C458.346 127.739 466.342 129.919 474.545 129.607C485.033 129.192 494.171 124.626 501.647 116.014C525.218 88.7224 533.11 91.109 533.422 91.2128L533.214 91.8354L533.006 92.4581C532.591 92.3543 524.699 91.3166 502.582 116.947C495.001 125.56 485.552 130.23 474.649 130.749Z" fill="url(#paint1_linear)"/>
<path d="M469.249 337.664H135.925C127.826 337.664 121.388 331.126 121.388 323.136V25.5271C121.388 17.4332 127.93 10.9995 135.925 10.9995H469.249C477.348 10.9995 483.786 17.5369 483.786 25.5271V323.032C483.89 331.126 477.348 337.664 469.249 337.664Z" fill="#FADFE1"/>
<path d="M199.371 225.594C203.94 212.83 199.578 199.029 189.402 191.246C186.91 189.378 184.106 187.822 181.095 186.68C171.749 183.256 161.885 184.813 154.097 189.793C148.697 193.322 144.44 198.51 142.051 204.944C141.844 205.566 141.636 206.189 141.428 206.915C140.598 209.821 140.182 212.83 140.286 215.736C140.494 227.98 148.074 239.499 160.327 243.961C176.215 249.564 193.659 241.367 199.371 225.594ZM163.027 236.697C153.889 233.376 148.074 224.764 147.97 215.528C147.97 213.349 148.178 211.066 148.905 208.887C149.009 208.368 149.216 207.953 149.424 207.434C151.189 202.557 154.408 198.718 158.458 196.123C164.273 192.388 171.646 191.246 178.707 193.84C180.991 194.671 183.068 195.812 184.937 197.265C192.517 203.18 195.84 213.557 192.413 223.103C187.948 234.829 174.865 240.952 163.027 236.697Z" fill="white"/>
<path d="M158.354 196.123L154.2 189.689C161.884 184.709 171.853 183.152 181.198 186.576C184.314 187.718 187.117 189.274 189.505 191.142L184.833 197.161C182.964 195.708 180.887 194.567 178.602 193.736C171.541 191.246 164.169 192.284 158.354 196.123Z" fill="#1A598C"/>
<path d="M148.801 208.887L141.429 206.811C141.636 206.189 141.844 205.566 142.052 204.84C144.44 198.406 148.697 193.218 154.097 189.689L158.251 196.123C154.201 198.717 150.982 202.661 149.217 207.434C149.113 207.953 149.009 208.368 148.801 208.887Z" fill="#2273B5"/>
<path d="M140.286 215.632C140.286 212.726 140.598 209.717 141.428 206.811L148.801 208.887C148.178 211.066 147.866 213.349 147.866 215.528L140.286 215.632Z" fill="#3D96E0"/>
<path d="M284.831 220.82C287.323 207.538 280.781 194.567 269.462 188.444C266.763 186.991 263.751 185.85 260.532 185.227C250.771 183.36 241.218 186.473 234.365 192.595C229.588 196.849 226.265 202.661 224.915 209.509C224.812 210.132 224.708 210.858 224.604 211.481C224.189 214.49 224.292 217.499 224.812 220.405C226.992 232.546 236.338 242.612 249.214 244.998C265.828 248.215 281.715 237.319 284.831 220.82ZM250.668 237.631C241.114 235.867 234.053 228.291 232.392 219.16C231.977 216.981 231.977 214.698 232.184 212.519C232.288 212 232.288 211.481 232.392 210.962C233.326 205.877 235.922 201.519 239.453 198.302C244.541 193.633 251.706 191.35 259.079 192.803C261.467 193.218 263.751 194.048 265.828 195.189C274.239 199.755 279.223 209.509 277.354 219.471C275.07 231.82 263.128 239.914 250.668 237.631Z" fill="white"/>
<path d="M239.557 198.302L234.469 192.699C241.322 186.473 250.875 183.463 260.636 185.331C263.855 185.954 266.867 186.991 269.566 188.548L265.932 195.189C263.855 194.048 261.675 193.218 259.182 192.803C251.81 191.35 244.645 193.633 239.557 198.302Z" fill="#4B59C7"/>
<path d="M232.288 212.519L224.708 211.585C224.812 210.962 224.916 210.236 225.02 209.613C226.266 202.868 229.692 197.057 234.469 192.699L239.557 198.302C236.026 201.519 233.43 205.877 232.496 210.962C232.392 211.481 232.288 212 232.288 212.519Z" fill="#6F5BE0"/>
<path d="M224.915 220.509C224.396 217.603 224.292 214.594 224.707 211.585L232.288 212.519C231.976 214.801 232.08 217.084 232.495 219.16L224.915 220.509Z" fill="#B487FE"/>
<path d="M353.364 188.34C341.423 182.011 327.093 184.397 317.851 193.321C315.567 195.501 313.697 197.991 312.14 200.896C307.467 209.613 307.571 219.679 311.413 228.084C314.113 233.895 318.682 238.876 324.704 242.093C325.327 242.404 325.95 242.715 326.574 243.027C329.377 244.272 332.285 245.102 335.192 245.413C347.445 246.97 359.802 241.055 365.929 229.537C373.82 214.698 368.213 196.227 353.364 188.34ZM359.179 225.905C354.61 234.518 345.265 238.98 336.127 237.838C333.946 237.527 331.765 237.008 329.689 235.97C329.273 235.763 328.754 235.555 328.339 235.348C323.77 232.961 320.343 229.225 318.37 224.867C315.463 218.641 315.463 211.066 318.889 204.528C320.032 202.349 321.485 200.481 323.147 198.821C330.104 192.18 340.799 190.312 349.73 195.085C360.944 201 365.098 214.802 359.179 225.905Z" fill="white"/>
<path d="M318.37 224.867L311.413 228.084C307.571 219.679 307.467 209.717 312.14 200.896C313.697 197.991 315.67 195.5 317.851 193.321L323.147 198.821C321.485 200.481 320.032 202.349 318.889 204.528C315.359 211.066 315.463 218.537 318.37 224.867Z" fill="#1A598C"/>
<path d="M329.689 235.97L326.574 242.923C325.951 242.612 325.328 242.3 324.705 241.989C318.578 238.772 314.113 233.791 311.413 227.98L318.37 224.763C320.343 229.122 323.77 232.857 328.339 235.244C328.754 235.555 329.273 235.763 329.689 235.97Z" fill="#2273B5"/>
<path d="M335.192 245.413C332.284 244.998 329.377 244.272 326.573 243.027L329.688 236.074C331.765 237.008 333.946 237.631 336.126 237.942L335.192 245.413Z" fill="#3788CC"/>
<path d="M201.24 260.148H140.286V264.818H201.24V260.148Z" fill="#C4C4C4"/>
<path d="M185.871 270.11H140.286V274.78H185.871V270.11Z" fill="#C4C4C4"/>
<path d="M258.144 260.148H224.5V264.818H258.144V260.148Z" fill="#C4C4C4"/>
<path d="M274.343 270.11H224.5V274.78H274.343V270.11Z" fill="#C4C4C4"/>
<path d="M351.494 260.148H314.112V264.818H351.494V260.148Z" fill="#C4C4C4"/>
<path d="M357.413 270.11H314.112V274.78H357.413V270.11Z" fill="#C4C4C4"/>
<path d="M452.946 60.601H408.606V65.063H452.946V60.601Z" fill="#B8D6FF"/>
<path d="M459.488 74.2985H408.606V78.7605H459.488V74.2985Z" fill="#B8D6FF"/>
<path d="M434.982 87.996H408.606V92.458H434.982V87.996Z" fill="#B8D6FF"/>
<path d="M449.208 101.693H408.606V106.156H449.208V101.693Z" fill="#B8D6FF"/>
<path d="M334.154 292.524H140.286V297.09H334.154V292.524Z" fill="white"/>
<path d="M349.73 303.109H140.286V307.675H349.73V303.109Z" fill="white"/>
<path d="M276.212 313.693H140.286V318.259H276.212V313.693Z" fill="white"/>
<path d="M241.218 292.524H140.286V297.09H241.218V292.524Z" fill="#FFA347"/>
<path d="M249.317 303.109H140.286V307.675H249.317V303.109Z" fill="#FFA347"/>
<path d="M211.104 313.693H140.286V318.259H211.104V313.693Z" fill="#FFA347"/>
<path d="M208.094 144.135H168.635V149.012H208.094V144.135Z" fill="#D6D6D6"/>
<path d="M217.75 135.418H159.081V140.295H217.75V135.418Z" fill="#D6D6D6"/>
<path d="M188.467 78.8643C194.087 78.8643 198.644 74.3113 198.644 68.695C198.644 63.0786 194.087 58.5256 188.467 58.5256C182.847 58.5256 178.291 63.0786 178.291 68.695C178.291 74.3113 182.847 78.8643 188.467 78.8643Z" fill="white"/>
<path d="M206.848 101.901V121.306C201.24 123.9 194.906 125.249 188.364 125.249C181.822 125.249 175.488 123.796 169.881 121.306V101.901C169.881 91.7317 178.188 83.4301 188.364 83.4301C198.644 83.4301 206.848 91.7317 206.848 101.901Z" fill="white"/>
<path d="M347.237 53.6485H252.225V59.7709H347.237V53.6485Z" fill="white"/>
<path d="M394.277 53.6485H357.414V59.7709H394.277V53.6485Z" fill="white"/>
<path d="M296.875 39.7435H252.225V45.8658H296.875V39.7435Z" fill="white"/>
<path d="M253.575 77.5153H252.744V150.05H253.575V77.5153Z" fill="#BDE1FF"/>
<path d="M273.824 77.5153H272.993V150.05H273.824V77.5153Z" fill="#BDE1FF"/>
<path d="M294.072 77.5153H293.241V150.05H294.072V77.5153Z" fill="#BDE1FF"/>
<path d="M314.217 77.5153H313.387V150.05H314.217V77.5153Z" fill="#BDE1FF"/>
<path d="M334.466 77.5153H333.635V150.05H334.466V77.5153Z" fill="#BDE1FF"/>
<path d="M354.715 77.5153H353.884V150.05H354.715V77.5153Z" fill="#BDE1FF"/>
<path d="M374.859 77.5153H374.028V150.05H374.859V77.5153Z" fill="#BDE1FF"/>
<path d="M395.107 77.5153H394.276V150.05H395.107V77.5153Z" fill="#BDE1FF"/>
<path d="M253.16 125.975L266.971 112.278L273.616 118.919L288.258 104.288L299.888 115.91L314.737 101.071L324.913 111.24L350.873 85.298L370.291 104.703L382.025 92.9769L394.693 105.637V150.05H253.16V125.975Z" fill="#FF9746"/>
<path d="M253.16 135.107L264.167 124.108L271.124 131.06L279.224 122.966L294.384 138.22L313.387 119.23L320.136 125.975L339.762 106.467L357.622 124.315L394.693 87.2696V150.05H253.16V135.107Z" fill="#FF5A4F"/>
<path d="M261.259 71.393H252.744V73.157H261.259V71.393Z" fill="#BDE1FF"/>
<path d="M278.808 71.393H272.993V73.157H278.808V71.393Z" fill="#BDE1FF"/>
<path d="M300.406 71.393H293.241V73.157H300.406V71.393Z" fill="#BDE1FF"/>
<path d="M318.682 71.393H313.387V73.157H318.682V71.393Z" fill="#BDE1FF"/>
<path d="M338.101 71.393H333.636V73.157H338.101V71.393Z" fill="#BDE1FF"/>
<path d="M362.502 71.393H353.884V73.157H362.502V71.393Z" fill="#BDE1FF"/>
<path d="M380.051 71.393H374.028V73.157H380.051V71.393Z" fill="#BDE1FF"/>
<path d="M398.118 71.393H394.276V73.157H398.118V71.393Z" fill="#BDE1FF"/>
<path d="M508.188 326.872H416.395C410.476 326.872 405.699 322.099 405.699 316.184V184.605C405.699 178.69 410.476 173.917 416.395 173.917H508.188C514.107 173.917 518.884 178.69 518.884 184.605V316.287C518.884 322.098 514.107 326.872 508.188 326.872Z" fill="white"/>
<path d="M435.709 198.925H432.386V301.967H435.709V198.925Z" fill="#D6D6D6"/>
<path d="M454.504 198.925H451.181V301.967H454.504V198.925Z" fill="#D6D6D6"/>
<path d="M473.298 198.925H469.976V301.967H473.298V198.925Z" fill="#D6D6D6"/>
<path d="M492.093 198.925H488.771V301.967H492.093V198.925Z" fill="#D6D6D6"/>
<path d="M437.162 250.394H430.932V292.213H437.162V250.394Z" fill="url(#paint2_linear)"/>
<path d="M455.958 215.217H449.728V257.035H455.958V215.217Z" fill="url(#paint3_linear)"/>
<path d="M474.752 238.668H468.521V280.487H474.752V238.668Z" fill="url(#paint4_linear)"/>
<path d="M493.548 233.895H487.317V275.714H493.548V233.895Z" fill="url(#paint5_linear)"/>
<path d="M206.952 121.992L206.945 121.995C201.307 124.659 194.943 125.994 188.364 125.994C181.789 125.994 175.525 124.66 169.567 121.992C153.339 114.601 142.863 98.3827 142.863 80.6284C142.863 55.5853 163.199 35.2626 188.26 35.2626C213.321 35.2626 233.657 55.5853 233.657 80.6284C233.657 98.3832 223.181 114.602 206.952 121.992ZM206.531 120.725L206.536 120.723C222.185 113.586 232.373 97.8435 232.373 80.6284C232.373 56.3813 212.627 36.6492 188.364 36.6492C164.101 36.6492 144.355 56.3813 144.355 80.6284C144.355 97.8412 154.437 113.585 170.192 120.723C175.87 123.349 182.068 124.608 188.364 124.608C194.666 124.608 200.862 123.243 206.531 120.725Z" stroke="white"/>
<path d="M64.7958 237.942C64.7958 237.942 73.3106 218.641 63.4458 220.301C63.4458 220.301 60.123 223.103 56.5925 228.707C53.9965 232.961 48.5969 244.376 48.7007 248.111C48.9084 251.951 51.6082 254.856 54.6195 260.979C54.6195 260.979 60.746 272.393 60.9537 273.742L67.3917 270.422C67.3917 270.422 61.8883 259.526 58.0462 249.875L64.7958 237.942Z" fill="#A2A0B7"/>
<path d="M14.9531 295.741L145.271 273.535L141.533 251.328L11.2148 273.535L14.9531 295.741Z" fill="#2D6F7F"/>
<path d="M144.828 270.9L151.789 269.714L148.928 252.938L141.967 254.123L144.828 270.9Z" fill="#2D3038"/>
<path d="M114.015 401.17H115.573C115.573 401.17 115.054 395.152 116.507 395.048C117.961 394.944 121.699 400.029 123.88 400.755C126.061 401.482 137.379 402.208 137.483 400.133C137.587 398.057 133.122 397.227 131.772 396.605C130.422 395.982 123.776 389.548 122.53 388.718C121.388 387.992 119.311 382.596 119.311 382.596L112.977 382.284C112.977 382.284 112.665 387.265 112.25 389.963C112.146 390.897 112.042 391.831 111.938 392.454C112.042 394.737 114.015 401.17 114.015 401.17Z" fill="#EEA886"/>
<path d="M73.4147 399.925H74.7646V394.322C75.9069 394.425 79.6451 397.954 80.7873 398.991C81.9295 400.029 83.4871 399.925 88.3676 400.236C93.248 400.548 93.6634 397.642 92.9365 396.605C92.2096 395.567 89.7175 395.152 88.3676 394.529C87.0177 393.907 81.9295 388.095 80.5796 386.746C79.2297 385.397 78.399 381.454 78.399 381.454L72.6878 381.973C72.6878 381.973 72.6878 385.605 72.0648 388.511C71.961 388.718 71.961 389.029 71.8571 389.237C71.0264 392.558 73.4147 399.925 73.4147 399.925Z" fill="#EEA886"/>
<path d="M94.4931 272.082C94.4931 272.082 96.6737 277.167 96.8814 278.516C97.0891 279.761 102.073 292.006 103.631 300.203C104.462 305.08 106.954 320.542 107.161 322.514C107.473 325.834 109.031 333.306 109.342 336.73C109.446 338.598 118.895 368.068 121.18 383.322C121.18 383.322 115.78 384.152 111.627 383.011C111.627 383.011 103.319 367.134 98.7505 344.616C95.9469 331.023 93.5586 323.863 91.3779 318.259C89.1973 312.656 77.0481 296.883 75.8021 295.119C74.556 293.355 66.5604 283.496 74.1406 272.912C81.6171 262.328 94.4931 272.082 94.4931 272.082Z" fill="#1D3B54"/>
<path d="M67.392 317.221C68.1189 321.787 67.392 327.806 65.9383 344.513C64.4845 361.219 68.4304 381.454 68.4304 381.454C73.4147 383.115 79.1259 381.454 79.1259 381.454C79.022 380.313 79.1259 340.673 79.1259 337.145C79.1259 333.617 80.1642 329.57 80.3719 325.523C80.5796 322.721 81.8257 317.636 83.2794 312.448C83.6948 310.891 84.1101 309.335 84.6293 307.778C84.837 306.948 85.1485 306.118 85.3562 305.288C87.433 298.232 90.1328 270.94 90.1328 270.94C90.1328 270.94 74.9723 258.696 67.5997 270.214C60.2271 281.732 63.9654 290.034 64.2769 291.487C64.4845 293.251 66.6652 312.656 67.392 317.221Z" fill="#1D3B54"/>
<path d="M73.6221 292.628C73.7259 292.939 81.3062 309.646 83.2791 312.552C83.6945 310.995 84.1098 309.439 84.629 307.882C84.629 307.882 73.9336 293.043 73.6221 292.628Z" fill="#122536"/>
<path d="M73.4147 399.925H74.7646V394.322C75.9069 394.425 79.6451 397.954 80.7873 398.991C81.9295 400.029 83.4871 399.925 88.3676 400.236C93.248 400.548 93.6634 397.642 92.9365 396.605C92.2096 395.567 89.7175 395.152 88.3676 394.529C83.1756 394.84 76.7376 387.473 73.7262 387.473C72.0648 387.473 72.0648 388.407 72.0648 388.511C71.961 388.718 71.961 389.029 71.8571 389.237C71.0264 392.558 73.4147 399.925 73.4147 399.925Z" fill="#172F42"/>
<path d="M114.015 401.17H115.573C115.573 401.17 115.053 395.152 116.507 395.048C117.961 394.944 121.699 400.029 123.88 400.755C126.06 401.482 137.379 402.208 137.483 400.133C137.586 398.057 133.121 397.227 131.771 396.605C127.099 396.605 119.518 391.52 117.234 390.482C114.846 389.444 112.354 390.067 112.354 390.067C112.25 391.001 112.146 391.935 112.042 392.558C112.042 394.737 114.015 401.17 114.015 401.17Z" fill="#172F42"/>
<path d="M81.0985 208.16C81.0985 208.16 78.7102 214.594 80.5793 219.471C80.5793 219.471 71.6492 218.848 71.3376 217.811C71.0261 216.773 71.6492 207.226 70.5069 204.321C69.2609 201.623 81.0985 208.16 81.0985 208.16Z" fill="#EEA886"/>
<path d="M82.0337 217.292C82.0337 217.292 87.3295 219.16 89.6139 219.679C92.0022 220.198 96.9865 222.584 96.5711 231.405C96.1558 240.225 94.702 247.904 94.1828 251.743C93.6637 255.583 93.9752 265.233 94.8059 269.903C94.8059 269.903 82.2414 273.12 67.3924 269.903C67.3924 269.903 69.9883 261.913 69.9883 259.837C69.8845 257.762 61.2658 240.744 60.8505 238.046C60.4351 235.348 58.6699 223.518 62.6158 220.82C66.5616 218.226 69.7807 218.537 71.5459 217.396C73.2073 216.151 79.5415 216.462 82.0337 217.292Z" fill="#AFACC3"/>
<path d="M61.7847 283.808C83.2794 289.515 100.413 283.808 100.413 283.808C98.8552 280.591 97.713 277.374 96.8823 274.365C96.2593 272.186 95.8439 270.007 95.5324 268.035C93.7671 256.309 96.0516 247.385 96.0516 247.385C93.5594 226.942 62.7192 220.924 60.2271 227.358C57.7349 233.791 65.0037 261.601 65.419 263.988C65.7306 266.271 61.7847 283.808 61.7847 283.808Z" fill="#AFACC3"/>
<path d="M73.4144 182.426C76.9449 181.18 86.602 179.935 89.0941 194.67C91.5863 209.509 86.1866 209.717 80.6831 209.302C75.1797 208.887 66.4572 198.925 65.8342 195.812C65.1073 192.906 63.2382 185.954 73.4144 182.426Z" fill="#EEA886"/>
<path d="M87.1208 188.133C87.1208 188.133 84.2133 194.463 80.2675 196.642C80.2675 196.642 77.8792 203.387 72.5834 206.085C72.5834 206.085 58.6689 196.849 66.7684 185.954C74.8678 174.954 86.1863 183.671 87.1208 188.133Z" fill="#E8734D"/>
<path d="M80.5797 194.463C80.2681 193.736 78.1913 192.491 77.2568 194.567C76.3222 196.642 79.6451 200.378 80.5797 200.17C81.5142 199.963 81.8257 197.368 80.5797 194.463Z" fill="#EEA886"/>
<path d="M67.2878 187.614C66.9763 187.095 57.7346 182.841 55.8655 191.765C53.9964 200.689 63.2381 211.066 64.8995 215.528C66.5609 219.99 64.1726 230.471 64.1726 230.471C64.1726 230.471 69.78 225.178 71.4414 219.575C73.3105 213.349 73.9335 197.991 67.2878 187.614Z" fill="#E8734D"/>
<path d="M66.7686 187.303C66.7686 187.303 69.5722 189.482 69.9876 193.01C69.9876 193.01 70.5068 190.312 69.3645 188.548C68.2223 186.888 66.7686 187.303 66.7686 187.303Z" fill="#E54242"/>
<path d="M96.7778 274.261C96.1548 272.082 95.7394 269.903 95.4279 267.931C95.4279 267.931 93.9742 264.922 93.5588 263.469C93.0396 262.016 89.5091 244.376 89.5091 244.376C89.5091 244.376 85.7709 260.979 96.7778 274.261Z" fill="#1D3B54"/>
<path d="M112.666 275.299C112.666 275.299 115.469 277.997 116.3 278.308C117.235 278.619 118.896 277.063 125.334 276.544C125.853 276.544 126.892 276.959 126.684 277.789C126.476 278.516 123.673 280.487 122.53 280.799C121.388 281.11 115.781 283.289 112.977 282.251C110.277 281.11 108.408 277.685 108.408 277.685L112.666 275.299Z" fill="#EEA886"/>
<path d="M91.068 220.198C91.068 220.198 98.4406 223.103 98.8559 233.376C99.2713 243.649 99.6867 248.941 100.102 250.498C100.517 252.055 101.244 258.384 103.113 262.224C104.879 265.96 116.716 277.685 116.716 277.685L111.005 283.081C111.005 283.081 94.5985 266.582 93.5602 263.573C92.5218 260.564 88.472 239.602 88.1605 236.074C87.849 233.065 84.1108 220.405 91.068 220.198Z" fill="#AFACC3"/>
<path opacity="0.1" d="M228.758 314.835C268.099 314.835 299.992 282.964 299.992 243.649C299.992 204.335 268.099 172.464 228.758 172.464C189.417 172.464 157.524 204.335 157.524 243.649C157.524 282.964 189.417 314.835 228.758 314.835Z" fill="#B8B8B8"/>
<path opacity="0.3" d="M182.757 193.114C182.757 193.114 271.539 182.114 289.192 275.714C294.28 266.167 297.188 255.271 297.188 243.649C297.188 205.877 266.555 175.266 228.758 175.266C211.001 175.369 194.906 182.114 182.757 193.114Z" fill="#869AC2"/>
<path d="M228.758 161.879C183.588 161.879 146.933 198.51 146.933 243.649C146.933 288.789 183.588 325.419 228.758 325.419C273.928 325.419 310.583 288.789 310.583 243.649C310.583 198.51 273.928 161.879 228.758 161.879ZM228.758 312.137C190.96 312.137 160.224 281.525 160.224 243.649C160.224 205.877 190.857 175.162 228.758 175.162C266.555 175.162 297.292 205.774 297.292 243.649C297.188 281.525 266.555 312.137 228.758 312.137Z" fill="#3F444F"/>
<path d="M536.329 385.813C536.329 385.813 536.952 390.275 537.056 391.001C537.16 391.624 544.429 390.586 544.429 390.586L545.052 385.294C545.052 385.294 537.264 385.19 536.329 385.813Z" fill="#5C544D"/>
<path d="M536.952 390.482C536.952 390.482 534.668 393.18 532.383 394.322C530.099 395.463 526.672 395.982 525.322 397.227C524.388 398.057 521.792 401.897 531.137 401.793C540.483 401.689 544.948 402.312 545.882 400.859C546.921 399.406 544.429 390.171 544.429 390.171C544.429 390.171 542.352 390.897 536.952 390.482Z" fill="#1C1E26"/>
<path d="M483.995 385.813C483.995 385.813 484.618 390.275 484.722 391.001C484.826 391.624 492.095 390.586 492.095 390.586L492.718 385.294C492.718 385.294 484.93 385.19 483.995 385.813Z" fill="#5C544D"/>
<path d="M484.617 390.482C484.617 390.482 482.333 393.18 480.048 394.322C477.764 395.463 469.561 396.501 468.211 397.642C467.276 398.472 465.615 402.104 478.802 401.689C488.148 401.482 492.613 402.208 493.548 400.755C494.586 399.303 492.094 390.067 492.094 390.067C492.094 390.067 490.121 391.001 484.617 390.482Z" fill="#1C1E26"/>
<path d="M533.734 270.214C533.734 270.214 537.576 281.317 537.16 290.864C536.641 300.411 539.133 310.891 540.172 320.957C541.314 332.164 545.987 358.521 546.194 364.54C546.402 370.559 545.467 389.548 545.467 389.548L536.018 389.756C536.018 389.756 528.126 343.579 526.049 338.909C523.973 334.239 513.796 300.618 513.485 296.779C513.173 292.939 533.734 270.214 533.734 270.214Z" fill="#5E616D"/>
<path d="M494.171 272.186C494.171 272.186 488.979 298.439 488.356 304.354C487.629 310.269 487.214 332.787 486.902 336.419C486.591 340.051 484.618 384.36 482.853 389.86H494.898C494.898 389.86 504.14 357.691 504.14 342.437C504.14 327.183 511.304 309.335 515.873 299.269C520.442 289.204 531.034 288.996 533.838 270.318C533.734 270.214 498.013 266.271 494.171 272.186Z" fill="#5E616D"/>
<path d="M518.574 182.426C518.574 182.426 509.124 179.001 504.659 185.954C500.298 192.906 500.713 206.811 505.49 208.575C510.266 210.339 517.431 209.406 519.923 205.047C522.416 200.689 524.596 194.359 524.492 190.208C524.492 185.954 521.066 183.567 518.574 182.426Z" fill="#EEA886"/>
<path d="M507.151 208.057C507.151 208.057 507.566 210.443 506.943 211.585C506.32 212.726 518.885 212.83 518.885 212.83C518.885 212.83 519.923 206.396 521.792 201C523.765 195.604 507.151 208.057 507.151 208.057Z" fill="#EEA886"/>
<path d="M521.792 201C521.792 201 520.962 202.349 517.431 201.83C513.9 201.312 509.539 196.746 508.085 196.227C506.632 195.708 506.632 194.878 506.632 194.878L505.697 196.227L504.14 196.331C504.14 196.331 505.593 192.284 503.413 190.623C501.232 188.963 505.697 177.445 517.016 181.284C517.016 181.284 525.738 183.567 525.427 188.34C525.011 193.218 523.765 198.717 521.792 201Z" fill="#FCCCA2"/>
<path d="M506.216 211.481C506.216 211.481 506.216 209.198 507.358 208.99C508.396 208.783 519.092 207.745 520.338 208.264V210.858C520.338 210.962 517.742 212.415 506.216 211.481Z" fill="#E2D2CA"/>
<path d="M506.839 193.218C507.047 192.387 509.124 190.105 509.955 192.595C510.785 195.085 508.709 198.302 507.566 198.095C506.424 197.783 506.32 195.293 506.839 193.218Z" fill="#EEA886"/>
<path d="M506.217 211.481C506.217 211.481 500.402 213.453 493.652 216.254C493.652 216.254 485.864 219.056 485.033 227.358C484.618 231.716 479.738 255.064 478.803 257.035C477.868 259.007 467.069 290.657 466.758 291.383C466.342 292.006 475.584 295.741 476.207 295.43C476.83 295.119 486.591 266.582 487.629 264.403C487.629 264.403 493.237 247.281 493.444 244.687C493.444 244.687 493.652 251.951 493.86 254.026C494.171 256.102 488.876 295.741 488.979 296.883C489.083 298.024 513.174 299.373 522.831 298.335C532.488 297.298 540.276 295.222 540.276 295.222C540.276 295.222 532.696 263.884 532.903 260.356C533.423 252.781 536.019 238.565 536.019 238.565L543.91 252.781L533.838 277.685L536.122 285.261C536.122 285.261 554.813 258.073 555.436 255.583C556.059 253.092 554.502 249.979 553.567 247.904C552.529 245.828 546.091 230.263 544.533 228.084C542.976 225.905 540.484 217.084 534.253 214.698C529.061 212.622 520.339 210.962 520.339 210.962L506.217 211.481Z" fill="#35333C"/>
<path d="M493.34 305.703L449.312 294.911L457.204 265.337L501.232 276.129L493.34 305.703Z" fill="#C4C4C4"/>
<path d="M462.812 297.817C462.812 297.817 461.566 299.788 461.047 300.307C460.632 300.826 462.189 301.241 462.812 300.618C463.539 300.099 462.812 297.817 462.812 297.817Z" fill="#C98462"/>
<path d="M471.949 304.562C471.949 304.562 472.676 303.835 472.884 303.316C472.884 303.316 473.092 302.382 473.299 301.76C473.403 301.552 473.403 301.345 473.507 301.241C473.715 300.826 474.338 299.892 474.545 298.647C474.753 297.401 475.272 292.006 475.272 292.006L471.846 291.175L469.146 290.657C469.146 290.657 463.227 296.364 462.915 297.402C462.915 297.505 462.812 297.609 462.812 297.713C462.604 298.647 462.915 299.477 462.915 299.996C462.915 300.203 462.915 302.071 463.435 302.382C464.058 302.901 464.681 303.005 465.2 302.797C465.2 302.797 466.446 303.731 467.588 303.628C467.588 303.628 468.73 304.458 470.08 304.043C469.977 304.25 471.223 304.977 471.949 304.562Z" fill="#DE9D7D"/>
<path d="M485.345 270.214C485.345 270.214 477.557 293.043 476.104 295.43C476.104 295.43 470.393 294.288 466.654 291.383L475.273 266.79L485.345 270.214Z" fill="#35333C"/>
<defs>
<linearGradient id="paint0_linear" x1="450.998" y1="137.496" x2="487.764" y2="78.3462" gradientUnits="userSpaceOnUse">
<stop offset="0.00518135" stop-color="#3C6127"/>
<stop offset="1" stop-color="#639C38"/>
</linearGradient>
<linearGradient id="paint1_linear" x1="457.122" y1="135.43" x2="525.656" y2="81.1566" gradientUnits="userSpaceOnUse">
<stop offset="0.00518135" stop-color="#3C6127"/>
<stop offset="1" stop-color="#639C38"/>
</linearGradient>
<linearGradient id="paint2_linear" x1="434.072" y1="238.867" x2="434.072" y2="333.633" gradientUnits="userSpaceOnUse">
<stop stop-color="#FFC05C"/>
<stop offset="1" stop-color="#FF3857"/>
</linearGradient>
<linearGradient id="paint3_linear" x1="452.867" y1="238.867" x2="452.867" y2="333.633" gradientUnits="userSpaceOnUse">
<stop stop-color="#FFC05C"/>
<stop offset="1" stop-color="#FF3857"/>
</linearGradient>
<linearGradient id="paint4_linear" x1="471.66" y1="238.866" x2="471.66" y2="333.633" gradientUnits="userSpaceOnUse">
<stop stop-color="#FFC05C"/>
<stop offset="1" stop-color="#FF3857"/>
</linearGradient>
<linearGradient id="paint5_linear" x1="490.454" y1="238.866" x2="490.454" y2="333.635" gradientUnits="userSpaceOnUse">
<stop stop-color="#FFC05C"/>
<stop offset="1" stop-color="#FF3857"/>
</linearGradient>
</defs>
</svg>
