<svg width="577" height="555" viewBox="0 0 577 555" fill="none" xmlns="http://www.w3.org/2000/svg">
<g clip-path="url(#clip0)">
<path d="M107.77 259.746C115.546 261.935 107.284 264.245 105.947 266.677C104.854 268.744 109.471 270.569 110.2 272.514C111.05 274.946 106.069 275.433 100.358 276.527C96.2272 277.257 93.9187 278.23 92.2177 279.689C89.9092 281.634 87.9652 284.796 79.0958 283.702C74.8433 283.215 73.9928 281.513 70.2263 280.905C64.3944 279.81 58.1979 281.391 53.5809 282.364C43.0105 284.675 22.8416 283.337 21.1406 278.716C20.5331 277.014 19.0751 275.919 14.3366 275.068C8.99068 274.095 1.70072 273.365 3.88771 270.933C5.3457 269.353 11.6637 268.136 10.0842 266.191C8.74768 264.61 2.18672 263.516 0.72873 261.813C-0.607762 260.232 2.55122 259.138 5.9532 258.043C13.3647 255.854 22.1126 254.395 30.6176 252.571C36.2065 251.477 42.16 250.261 48.5994 249.531C59.5344 248.437 66.3383 250.626 71.8058 253.301C75.3293 255.125 79.3388 256.949 85.7782 257.8C93.0682 258.773 101.695 257.922 107.77 259.746Z" stroke="#E3E8FF" stroke-miterlimit="10"/>
<path d="M573.111 78.7993C580.887 80.9882 572.625 83.2986 571.289 85.7307C570.195 87.798 574.812 89.622 575.541 91.5677C576.392 93.9998 571.41 94.4862 565.7 95.5806C561.569 96.3102 559.26 97.2831 557.559 98.7423C555.251 100.688 553.307 103.85 544.438 102.755C540.185 102.269 539.335 100.566 535.568 99.9584C529.736 98.8639 523.54 100.445 518.923 101.418C508.352 103.728 488.183 102.39 486.482 97.7695C485.875 96.067 484.417 94.9726 479.678 94.1214C474.332 93.1485 467.043 92.4189 469.23 89.9868C470.688 88.406 477.005 87.1899 475.426 85.2443C474.089 83.6634 467.529 82.569 466.071 80.8665C464.734 79.2857 467.893 78.1913 471.295 77.0968C478.706 74.908 487.454 73.4487 495.959 71.6247C501.548 70.5302 507.502 69.3142 513.941 68.5846C524.876 67.4901 531.68 69.679 537.148 72.3543C540.671 74.1783 544.681 76.0024 551.12 76.8536C558.41 77.9481 567.036 77.0968 573.111 78.7993Z" stroke="#E3E8FF" stroke-miterlimit="10"/>
<path d="M177.753 34.5355C171.192 31.3738 178.239 28.2121 179.211 24.8072C180.183 21.8887 176.174 19.4567 175.566 16.5382C174.837 13.1333 179.09 12.4036 183.95 10.9444C187.473 9.84995 189.417 8.5123 190.875 6.56664C192.819 3.89136 194.52 -0.607986 202.053 0.851261C205.698 1.58088 206.427 3.89136 209.586 4.86419C214.567 6.44504 219.792 4.25617 223.801 2.79692C232.792 -0.364778 250.045 1.45928 251.382 7.90428C251.868 10.2148 253.204 11.7956 257.214 13.0116C261.831 14.4709 268.027 15.4437 266.083 18.8486C264.747 21.1591 259.401 22.74 260.859 25.4152C262.074 27.6041 267.541 29.185 268.756 31.617C269.971 33.9275 267.177 35.3868 264.261 36.846C257.943 40.0077 250.531 41.9534 243.241 44.3854C238.503 45.9663 233.4 47.6687 227.932 48.52C218.577 49.9792 212.745 46.9391 208.25 43.1694C205.212 40.7373 201.81 38.062 196.343 36.9676C190.268 35.8732 182.856 36.9676 177.753 34.5355Z" stroke="#E3E8FF" stroke-miterlimit="10"/>
<path d="M249.924 485.686C249.924 490.185 246.279 493.833 241.783 493.833H241.419C236.923 493.833 233.278 490.185 233.278 485.686V375.634C233.278 371.135 236.923 367.487 241.419 367.487H241.783C246.279 367.487 249.924 371.135 249.924 375.634V485.686Z" fill="#B7C2F7"/>
<path d="M265.475 496.265C265.475 499.184 263.045 501.616 260.129 501.616C257.213 501.616 254.783 499.184 254.783 496.265C254.783 493.347 257.213 490.915 260.129 490.915C263.167 491.036 265.475 493.347 265.475 496.265Z" stroke="#B7C2F7" stroke-width="1.1414" stroke-miterlimit="10"/>
<path d="M246.764 496.265C246.764 499.184 244.334 501.616 241.418 501.616C238.502 501.616 236.072 499.184 236.072 496.265C236.072 493.347 238.502 490.915 241.418 490.915C244.334 491.036 246.764 493.347 246.764 496.265Z" stroke="#B7C2F7" stroke-width="1.1414" stroke-miterlimit="10"/>
<path d="M227.932 496.265C227.932 499.184 225.502 501.616 222.586 501.616C219.67 501.616 217.24 499.184 217.24 496.265C217.24 493.347 219.67 490.915 222.586 490.915C225.624 491.036 227.932 493.347 227.932 496.265Z" stroke="#B7C2F7" stroke-width="1.1414" stroke-miterlimit="10"/>
<path d="M262.438 487.51C262.438 490.185 260.251 492.374 257.578 492.374H222.951C220.278 492.374 218.091 490.185 218.091 487.51C218.091 484.835 220.278 482.646 222.951 482.646H257.578C260.251 482.646 262.438 484.835 262.438 487.51Z" fill="#9CABF7"/>
<path d="M291.112 366.757C291.112 374.662 284.308 381.35 276.046 381.35H207.885C199.502 381.35 192.819 374.783 192.819 366.757C192.819 358.853 199.623 352.165 207.885 352.165H276.046C284.308 352.286 291.112 358.853 291.112 366.757Z" fill="#B7C2F7"/>
<path d="M525.363 315.197C519.166 319.94 519.531 329.668 524.026 337.451C531.802 350.827 549.42 362.866 529.737 376.121C523.783 380.133 514.428 383.052 507.503 380.133C501.792 377.701 490.736 363.352 501.428 360.069C511.512 357.029 516.493 375.999 509.082 381.228C497.297 389.619 478.1 380.133 465.221 381.106C446.51 382.566 464.856 400.685 466.436 408.71C472.146 437.044 414.191 421.965 404.471 411.629C397.667 404.333 392.686 388.646 401.191 380.377C408.602 373.202 417.958 379.404 418.93 388.646C421.117 409.197 393.901 412.237 380.05 411.75" stroke="#ADB9F0" stroke-width="1.1414" stroke-miterlimit="10" stroke-linecap="round" stroke-linejoin="round" stroke-dasharray="3.42 3.42"/>
<path d="M531.073 308.63L547.597 294.646L544.317 290.39L532.531 299.145L531.073 308.63Z" fill="#8290CF"/>
<path d="M537.513 299.145L528.158 293.551C527.915 293.43 527.55 293.43 527.186 293.551C526.943 293.795 526.821 294.038 526.821 294.403L529.737 307.901C529.859 308.265 530.102 308.509 530.345 308.509C530.466 308.509 530.709 308.509 530.831 308.509C530.952 308.509 531.074 308.387 531.195 308.265L537.635 300.361C537.756 300.118 537.878 299.875 537.756 299.632C537.878 299.51 537.756 299.267 537.513 299.145Z" fill="#B3C0FF"/>
<path d="M569.589 275.189C569.346 274.946 568.981 274.825 568.738 274.946L519.288 288.444C518.924 288.566 518.681 288.809 518.681 289.174C518.681 289.539 518.802 289.782 519.045 290.025L550.756 308.995C550.999 309.117 551.242 309.117 551.364 309.117C551.364 309.117 551.364 309.117 551.485 309.117C551.728 308.995 551.85 308.874 551.971 308.752L569.71 276.284C569.832 275.919 569.832 275.554 569.589 275.189Z" fill="#E3E8FF"/>
<path d="M537.27 300.969L568.982 275.797L527.064 294.768L537.27 300.969Z" fill="#B3C0FF"/>
<path d="M380.536 174.988C386.368 190.918 370.573 213.171 351.133 205.997C342.871 202.957 336.796 189.945 347.124 184.595C358.059 179.001 367.9 194.809 362.19 203.808C354.414 216.09 331.815 209.158 322.459 219.86C302.291 243.086 327.441 278.594 355.143 261.083C359.76 258.165 366.078 248.193 363.769 242.721C360.003 233.722 346.638 240.411 341.899 245.153C324.16 262.907 352.834 271.784 366.685 271.298C384.303 270.69 404.957 276.041 415.649 291.119C434.117 317.386 393.293 362.744 375.676 327.722C372.517 321.399 372.639 307.05 378.592 302.064C386.733 295.132 397.06 305.59 392.079 314.103C386.976 322.98 367.536 323.223 359.274 319.818C349.068 315.683 344.208 304.009 341.413 294.038" stroke="#ADB9F0" stroke-width="1.1414" stroke-miterlimit="10" stroke-linecap="round" stroke-linejoin="round" stroke-dasharray="3.42 3.42"/>
<path d="M377.62 170.732L360.61 157.355L363.648 152.978L375.798 161.368L377.62 170.732Z" fill="#C4C4C4"/>
<path d="M370.695 161.49L379.807 155.653C380.05 155.531 380.415 155.531 380.779 155.653C381.022 155.896 381.144 156.139 381.144 156.504L378.592 170.124C378.592 170.488 378.349 170.732 377.985 170.732C377.863 170.732 377.62 170.732 377.499 170.732C377.377 170.732 377.256 170.61 377.134 170.488L370.452 162.706C370.33 162.463 370.209 162.219 370.209 162.098C370.452 161.855 370.573 161.611 370.695 161.49Z" fill="#DBDBDB"/>
<path d="M338.012 138.628C338.255 138.385 338.498 138.263 338.862 138.263L388.798 150.181C389.163 150.302 389.406 150.545 389.406 150.91C389.406 151.275 389.284 151.518 389.041 151.761L357.938 171.704C357.695 171.826 357.573 171.826 357.33 171.826C357.33 171.826 357.33 171.826 357.209 171.826C356.966 171.704 356.844 171.583 356.723 171.461L337.89 139.601C337.769 139.236 337.769 138.871 338.012 138.628Z" fill="white"/>
<path d="M371.059 163.314L338.619 139.115L381.144 156.869L371.059 163.314Z" fill="#DBDBDB"/>
<path d="M222.709 495.779C229.756 510.493 233.157 509.398 235.101 508.547C237.045 507.574 241.905 504.291 234.008 491.158C227.569 480.578 222.952 477.295 221.008 478.268C219.064 479.119 219.185 488.361 222.709 495.779Z" fill="#F38061"/>
<path d="M223.924 493.225C227.448 500.643 230.242 502.224 232.186 501.251C234.13 500.278 234.373 497.238 230.85 489.942C227.326 482.524 222.952 477.295 221.008 478.146C219.064 479.119 220.401 485.807 223.924 493.225Z" fill="#F3B595"/>
<path d="M199.502 355.205C199.502 355.205 186.258 383.66 240.204 375.391C240.204 375.391 292.692 387.795 286.252 355.205C286.252 355.205 245.55 329.546 199.502 355.205Z" fill="#15214F"/>
<path d="M225.138 346.328C225.138 346.328 257.457 344.504 228.176 481.794L219.306 485.443C219.306 485.443 184.8 336.721 225.138 346.328Z" fill="#15214F"/>
<path d="M213.232 494.076C201.082 504.899 198.287 502.589 196.951 501.008C195.493 499.427 192.334 494.441 204.727 485.443C214.69 478.146 220.279 476.93 221.736 478.511C223.073 480.214 219.428 488.604 213.232 494.076Z" fill="#F38061"/>
<path d="M213.11 491.401C207.035 496.873 203.754 497.238 202.418 495.536C200.96 493.955 201.932 491.036 208.007 485.564C214.082 480.092 220.278 476.93 221.615 478.633C223.073 480.214 219.185 485.929 213.11 491.401Z" fill="#F3B595"/>
<path d="M268.027 350.584C268.027 350.584 240.326 337.086 214.446 479.484L220.764 484.834C220.764 484.834 309.337 357.029 268.027 350.584Z" fill="#1E2E6E"/>
<path d="M242.998 147.141C242.998 147.141 201.324 138.385 187.473 286.985C187.473 286.985 229.268 302.429 242.998 302.307C242.998 302.307 285.401 306.685 305.448 296.713C305.327 296.713 283.214 149.573 242.998 147.141Z" fill="#F38061"/>
<path d="M195.857 228.737C195.857 228.737 158.435 398.131 242.269 252.693C242.269 252.693 285.401 306.685 305.327 296.713C305.327 296.713 294.392 230.074 282.85 202.47L195.857 228.737Z" fill="#EB6F4D"/>
<path d="M275.439 279.445C275.439 279.445 282.364 298.659 287.467 307.901C287.467 307.901 278.962 312.643 273.495 323.831V332.343C274.831 331.492 313.225 316.899 308.729 305.347C291.72 261.083 277.018 248.801 259.765 245.883C246.157 243.572 236.194 243.451 226.11 245.883C213.96 248.801 199.623 256.097 181.155 302.793C177.51 312.157 207.399 328.695 210.923 328.817L216.754 321.764C218.941 321.764 200.231 308.509 201.203 306.928C209.951 292.822 212.381 282.85 212.381 282.85C212.381 282.85 208.736 289.417 214.081 310.333C217.24 322.615 205.941 352.651 205.941 352.651C208.128 352.651 282.243 353.745 290.019 352.408C290.019 352.408 273.13 326.993 276.411 307.658C279.084 292.579 275.439 279.445 275.439 279.445Z" fill="#FFC670"/>
<path d="M236.316 209.28L226.596 246.369C226.596 246.369 241.54 293.43 257.335 246.491L247.251 209.28H236.316Z" fill="#F3B595"/>
<path d="M250.41 220.711L247.251 209.28H236.316L226.839 245.64C236.194 239.924 246.157 229.709 250.41 220.711Z" fill="#F2AC88"/>
<path d="M266.569 206.483C266.569 219.495 255.999 230.074 242.999 230.074C229.998 230.074 219.428 219.495 219.428 206.483V181.554C219.428 168.543 229.998 157.963 242.999 157.963C255.999 157.963 266.569 168.543 266.569 181.554V206.483Z" fill="#F3B595"/>
<path d="M273.98 193.107C273.98 197.971 270.821 201.862 266.812 201.862C262.924 201.862 259.644 197.971 259.644 193.107C259.644 188.243 262.803 184.351 266.812 184.351C270.821 184.351 273.98 188.243 273.98 193.107Z" fill="#F3B595"/>
<path d="M239.475 213.901C239.475 213.901 247.008 214.023 254.784 208.186C254.784 208.064 254.176 227.034 239.475 213.901Z" fill="#9C6448"/>
<path d="M227.689 193.107C227.689 197.971 224.53 201.862 220.521 201.862C216.633 201.862 213.353 197.971 213.353 193.107C213.353 188.243 216.512 184.351 220.521 184.351C224.53 184.351 227.689 188.243 227.689 193.107Z" fill="#F3B595"/>
<path d="M256.242 160.152C256.728 164.043 253.69 170.488 250.41 174.38C241.662 184.838 227.811 184.351 217.605 184.351C218.456 173.772 216.512 172.799 216.876 171.461C220.4 158.693 232.793 150.424 246.522 153.95C252.111 155.41 255.756 156.504 256.242 160.152Z" fill="#F38061"/>
<path d="M255.27 160.152C255.27 160.152 259.765 181.919 266.933 187.513C266.933 187.513 279.083 169.759 255.27 160.152Z" fill="#F38061"/>
<path d="M216.754 188.486C216.754 188.486 221.249 154.558 242.269 153.099C242.269 153.099 264.989 151.518 269.971 188.486" stroke="black" stroke-width="2.2828" stroke-miterlimit="10" stroke-linecap="round" stroke-linejoin="round"/>
<path d="M220.643 192.62C220.643 195.66 219.185 198.093 217.363 198.093C215.54 198.093 214.082 195.66 214.082 192.62C214.082 189.58 215.54 187.148 217.363 187.148C219.185 187.148 220.643 189.58 220.643 192.62Z" fill="black"/>
<path d="M273.13 192.62C273.13 195.66 271.672 198.093 269.85 198.093C268.027 198.093 266.569 195.66 266.569 192.62C266.569 189.58 268.027 187.148 269.85 187.148C271.672 187.148 273.13 189.58 273.13 192.62Z" fill="black"/>
<path d="M244.578 222.413C242.634 222.535 240.933 221.684 240.811 220.589C240.69 219.373 242.269 218.279 244.213 218.157C246.157 218.035 247.858 218.887 247.98 219.981C247.98 221.197 246.522 222.292 244.578 222.413Z" fill="black"/>
<path d="M219.062 197.241C219.062 197.241 226.474 219.252 242.269 220.346" stroke="black" stroke-width="1.1414" stroke-miterlimit="10" stroke-linecap="round" stroke-linejoin="round"/>
<path d="M234.736 189.945C234.736 190.675 234.129 191.404 233.278 191.404C232.549 191.404 231.82 190.796 231.82 189.945C231.82 189.215 232.428 188.486 233.278 188.486C234.129 188.486 234.736 189.215 234.736 189.945Z" fill="black"/>
<path d="M252.232 189.945C252.232 190.675 251.625 191.404 250.774 191.404C250.045 191.404 249.316 190.796 249.316 189.945C249.316 189.215 249.924 188.486 250.774 188.486C251.625 188.486 252.232 189.215 252.232 189.945Z" fill="black"/>
<path d="M242.391 191.161C242.391 191.161 241.905 195.904 239.354 203.443C239.354 203.443 240.447 204.659 244.335 205.389" stroke="#9C6A51" stroke-width="0.5707" stroke-miterlimit="10" stroke-linecap="round" stroke-linejoin="round"/>
<path d="M252.232 184.351L256.242 187.148" stroke="#F38061" stroke-width="1.1414" stroke-miterlimit="10" stroke-linecap="round" stroke-linejoin="round"/>
<path d="M233.764 184.351L229.755 187.148" stroke="#F38061" stroke-width="1.1414" stroke-miterlimit="10" stroke-linecap="round" stroke-linejoin="round"/>
<path d="M216.025 273.73C212.623 280.418 208.249 292.943 214.081 306.32" stroke="#FFAE33" stroke-width="1.1414" stroke-miterlimit="10" stroke-linecap="round" stroke-linejoin="round"/>
<path d="M272.644 273.73C276.046 280.418 280.42 292.943 274.588 306.32" stroke="#FFAE33" stroke-width="1.1414" stroke-miterlimit="10" stroke-linecap="round" stroke-linejoin="round"/>
<path d="M226.839 245.153C226.839 245.153 212.016 285.283 241.905 266.799C241.905 266.799 231.82 264.488 226.839 245.153Z" fill="#FFE2A3"/>
<path d="M257.335 245.153C257.335 245.153 271.065 285.891 242.27 266.799C242.27 266.799 252.354 264.488 257.335 245.153Z" fill="#FFE2A3"/>
<path d="M173.258 352.651H164.389V490.55H173.258V352.651Z" fill="#0F1636"/>
<path d="M323.674 352.651H314.805V490.55H323.674V352.651Z" fill="#0F1636"/>
<path d="M380.049 350.097H105.704V360.677H380.049V350.097Z" fill="#2E3450"/>
<path d="M159.042 358.366H150.173V502.345H159.042V358.366Z" fill="#2E3450"/>
<path d="M338.132 358.366H329.263V502.345H338.132V358.366Z" fill="#2E3450"/>
<path d="M326.347 112.97C326.347 126.346 315.534 137.169 302.169 137.169C288.804 137.169 277.99 126.346 277.99 112.97C277.99 99.5935 288.804 88.7708 302.169 88.7708C315.534 88.7708 326.347 99.5935 326.347 112.97Z" fill="#F38061"/>
<path d="M319.3 123.185C319.3 123.793 318.45 124.644 317.842 124.644H287.346C286.738 124.644 285.888 123.793 285.888 123.185V104.093C285.888 103.485 286.738 102.39 287.346 102.39H317.842C318.45 102.39 319.3 103.485 319.3 104.093V123.185Z" fill="white"/>
<path d="M317.234 120.509L306.542 113.456L317.234 106.282C317.477 106.16 317.599 105.795 317.356 105.552C317.234 105.309 316.87 105.187 316.627 105.43L302.776 114.794L300.103 112.97L288.682 105.43C288.439 105.309 288.074 105.309 287.953 105.552C287.831 105.795 287.831 106.16 288.074 106.282L298.766 113.335L288.074 120.509C287.831 120.631 287.71 120.996 287.953 121.239C288.074 121.361 288.196 121.482 288.439 121.482C288.56 121.482 288.682 121.482 288.803 121.361L299.86 113.943L302.533 115.767C302.654 115.888 302.776 115.888 302.897 115.888C303.019 115.888 303.14 115.888 303.262 115.767L305.813 114.064L316.87 121.361C316.991 121.482 317.113 121.482 317.234 121.482C317.477 121.482 317.599 121.361 317.72 121.239C317.477 120.996 317.477 120.631 317.234 120.509Z" fill="#F38061"/>
<path d="M185.287 96.067C193.427 91.0812 203.998 93.7565 208.979 101.782C213.961 109.93 211.288 120.509 203.269 125.495C195.128 130.481 184.558 127.806 179.576 119.78C174.473 111.632 177.146 101.053 185.287 96.067Z" fill="#FFC670"/>
<path d="M199.502 101.053C199.502 101.053 197.194 99.9583 196.1 100.445C192.698 101.782 189.661 107.255 189.661 107.255C186.137 113.335 185.773 117.104 186.623 119.05C187.231 120.388 189.175 121.361 189.296 121.482C190.633 122.212 192.212 121.604 192.941 120.145L193.427 119.293C194.399 116.861 193.184 115.645 192.212 115.888C190.633 116.132 190.633 112.483 192.212 109.93C193.67 107.376 196.708 106.038 196.708 107.376C196.829 108.957 199.502 107.376 200.231 106.038L200.717 105.187C201.446 103.728 200.96 101.904 199.624 101.296C199.624 101.174 199.502 101.053 199.502 101.053Z" fill="white"/>
<path d="M182.005 349.489H136.2V350.827H182.005V349.489Z" fill="#9C9C9C"/>
<path d="M184.8 346.692H138.995V349.489H184.8V346.692Z" fill="#C2C2C2"/>
<path d="M180.547 343.896H134.742V346.692H180.547V343.896Z" fill="white"/>
<path d="M174.594 204.416C174.594 212.32 160.257 230.075 160.257 230.075C160.257 230.075 145.799 212.32 145.799 204.416C145.799 196.512 152.238 190.067 160.136 190.067C168.155 190.067 174.594 196.512 174.594 204.416Z" fill="#F38061"/>
<path d="M167.305 203.687C167.305 207.578 164.146 210.861 160.136 210.861C156.248 210.861 152.968 207.7 152.968 203.687C152.968 199.795 156.127 196.512 160.136 196.512C164.146 196.634 167.305 199.795 167.305 203.687Z" fill="white"/>
<path d="M173.015 313.13H149.444V343.652H173.015V313.13Z" fill="#506DE4"/>
<path d="M172.407 344.139C172.407 345.112 167.304 345.963 161.108 345.963C154.912 345.963 149.809 345.112 149.809 344.139C149.809 343.045 154.912 342.315 161.108 342.315C167.304 342.315 172.407 343.166 172.407 344.139Z" fill="#506DE4"/>
<path d="M172.407 312.887C172.407 313.859 167.304 314.711 161.108 314.711C154.912 314.711 149.809 313.859 149.809 312.887C149.809 311.792 154.912 311.063 161.108 311.063C167.304 310.941 172.407 311.792 172.407 312.887Z" fill="#3F55B3"/>
<path d="M172.043 313.738L178.118 300.726C178.725 299.51 178.118 298.051 176.903 297.564C175.688 296.956 174.23 297.564 173.622 298.659L166.211 314.589C167.061 314.467 171.192 313.981 172.043 313.738Z" fill="#0F1636"/>
<path d="M177.146 302.915L178.239 300.605C176.903 299.997 175.688 299.389 173.744 298.537L172.65 300.848C174.594 301.699 175.809 302.307 177.146 302.915Z" fill="#FFBBA8"/>
<path d="M178.239 300.605C178.725 299.389 178.118 297.929 176.903 297.443C175.688 296.835 174.23 297.321 173.622 298.537C175.566 299.389 176.903 299.997 178.239 300.605Z" fill="#F38061"/>
<path d="M57.2266 134.129L90.8819 121.969L88.3304 113.457L64.881 120.388L57.2266 134.129Z" fill="#8290CF"/>
<path d="M72.7782 123.185L61.4787 109.2C61.1142 108.714 60.5067 108.592 60.0207 108.714C59.5347 108.836 59.0487 109.322 59.0487 109.808L55.7683 132.548C55.6468 133.035 55.8898 133.643 56.3758 133.886C56.6188 134.008 56.8618 134.129 57.1048 134.129C57.3478 134.129 57.5908 134.008 57.8338 133.886L72.2922 125.252C72.6567 125.009 72.8997 124.644 72.8997 124.279C73.1427 123.914 73.0212 123.428 72.7782 123.185Z" fill="#B3C0FF"/>
<path d="M136.079 104.458C135.958 103.971 135.472 103.607 134.864 103.485L50.3008 96.1887C49.6933 96.1887 49.2073 96.4319 48.9643 96.9183C48.7213 97.4048 48.7213 98.0128 49.0858 98.4992L87.601 145.925C87.844 146.168 88.2085 146.411 88.573 146.411H88.6945C89.059 146.411 89.302 146.29 89.545 146.046L135.715 105.917C136.079 105.552 136.322 104.944 136.079 104.458Z" fill="#E3E8FF"/>
<path d="M71.3207 125.86L134.743 104.944L58.9277 110.416L71.3207 125.86Z" fill="#B3C0FF"/>
<path d="M50.4222 138.021C-1.57952 158.693 52.6092 248.437 92.8254 215.604C101.209 208.672 103.396 195.782 95.6199 187.513C86.6289 178.028 65.7311 184.716 65.9741 198.579C66.3386 223.508 135.715 216.577 120.649 242.6C118.34 246.491 104.125 257.314 101.087 247.586C99.5079 242.478 107.162 239.073 110.929 239.438C119.92 240.289 125.873 250.139 131.584 256.219C144.098 269.231 161.472 282.121 180.548 279.446C186.015 278.716 193.791 271.663 186.137 268.015C181.034 265.583 172.286 271.785 169.127 275.311C166.332 278.473 163.295 283.459 161.472 288.809" stroke="#ADB9F0" stroke-width="1.1414" stroke-miterlimit="10" stroke-linecap="round" stroke-linejoin="round" stroke-dasharray="3.42 3.42"/>
<path d="M528.886 136.196C516.615 130.238 501.913 135.345 495.96 147.627C490.006 159.909 495.109 174.623 507.381 180.582C508.11 180.946 508.839 181.19 509.568 181.555L508.717 192.864L527.671 181.068C529.98 180.095 532.288 178.879 534.232 177.177V177.298C536.662 174.501 538.728 172.434 540.307 169.273C546.26 156.991 541.157 142.155 528.886 136.196Z" fill="#FFC670"/>
<path d="M510.175 158.815C510.175 160.882 508.474 162.463 506.53 162.463C504.464 162.463 502.885 160.76 502.885 158.815C502.885 156.869 504.586 155.167 506.53 155.167C508.474 155.045 510.175 156.747 510.175 158.815Z" fill="white"/>
<path d="M522.567 158.815C522.567 160.882 520.866 162.463 518.922 162.463C516.978 162.463 515.277 160.76 515.277 158.815C515.277 156.869 516.978 155.167 518.922 155.167C520.866 155.167 522.567 156.747 522.567 158.815Z" fill="white"/>
<path d="M535.082 158.815C535.082 160.882 533.381 162.463 531.437 162.463C529.371 162.463 527.792 160.76 527.792 158.815C527.792 156.869 529.493 155.167 531.437 155.167C533.502 155.045 535.082 156.747 535.082 158.815Z" fill="white"/>
<path d="M421.601 95.8238C421.601 95.8238 411.517 128.778 430.228 149.086L462.304 146.897C462.304 146.897 474.94 136.561 470.93 102.147L449.303 88.406L421.601 95.8238Z" fill="#1E2E6E"/>
<path d="M420.508 478.511L419.536 489.577C419.536 489.577 428.406 495.171 434.967 493.59L433.266 477.417L420.508 478.511Z" fill="#F3B595"/>
<path d="M437.275 496.022C437.275 501.616 428.041 500.643 417.957 501.008C404.835 501.494 399.854 498.576 399.854 495.414C399.854 493.59 400.704 492.617 404.835 491.644C407.872 490.915 413.461 490.307 419.779 486.78C425.611 483.618 420.265 496.873 435.453 489.942C437.397 489.091 437.275 496.022 437.275 496.022Z" fill="#0F1636"/>
<path d="M408.116 288.323C408.116 288.323 403.863 335.14 408.359 395.212L419.78 484.105L434.603 486.78C434.603 486.78 437.397 463.189 437.397 404.941C437.397 363.231 458.052 317.994 452.463 281.148L408.116 288.323Z" fill="#F38061"/>
<path d="M473.847 478.511L474.819 489.577C474.819 489.577 465.95 495.171 459.389 493.59L461.09 477.417L473.847 478.511Z" fill="#F3B595"/>
<path d="M457.08 496.022C457.08 501.616 466.314 500.643 476.398 501.008C489.52 501.494 494.501 498.576 494.501 495.414C494.501 493.59 493.651 492.617 489.52 491.644C486.482 490.915 480.893 490.307 474.576 486.78C468.744 483.618 474.09 496.873 458.902 489.942C456.958 489.091 457.08 496.022 457.08 496.022Z" fill="#0F1636"/>
<path d="M486.118 288.323C486.118 288.323 490.371 335.14 485.875 395.213L474.454 484.105L459.631 486.78C459.631 486.78 456.837 463.189 456.837 404.941C456.837 363.231 436.425 315.562 442.014 278.594L486.118 288.323Z" fill="#F38061"/>
<path d="M425.247 308.995C425.247 308.995 427.313 333.073 409.452 340.612" stroke="#E85C38" stroke-width="1.1414" stroke-miterlimit="10"/>
<path d="M469.108 308.995C469.108 308.995 467.043 333.073 484.903 340.612" stroke="#E85C38" stroke-width="1.1414" stroke-miterlimit="10"/>
<path d="M481.137 218.887C481.137 218.887 482.959 229.831 488.062 239.073C488.062 239.073 505.68 230.804 509.082 218.887C489.277 178.636 479.436 176.812 462.304 173.893C448.696 171.583 438.733 171.461 428.649 173.893C416.499 176.812 406.05 176.326 385.76 218.887C387.461 231.899 406.901 237.006 406.901 237.006C412.611 225.697 413.097 220.346 413.097 220.346L399.125 317.994C401.312 317.994 476.398 338.788 499.119 316.048L481.137 218.887Z" fill="#506DE4"/>
<path d="M438.734 137.047L429.014 174.137C429.014 174.137 445.416 198.701 459.753 174.258L449.669 137.047H438.734Z" fill="#F3B595"/>
<path d="M452.828 148.478L449.669 137.047H438.734L429.257 173.407C438.734 167.813 448.575 157.598 452.828 148.478Z" fill="#F2AC88"/>
<path d="M468.986 134.251C468.986 147.262 458.416 157.842 445.416 157.842C432.415 157.842 421.845 147.262 421.845 134.251V109.322C421.845 96.3103 432.415 85.7307 445.416 85.7307C458.416 85.7307 468.986 96.3103 468.986 109.322V134.251Z" fill="#F3B595"/>
<path d="M476.52 120.996C476.52 125.86 473.361 129.751 469.351 129.751C465.463 129.751 462.183 125.86 462.183 120.996C462.183 116.132 465.342 112.24 469.351 112.24C473.361 112.24 476.52 116.132 476.52 120.996Z" fill="#F3B595"/>
<path d="M441.893 141.669C441.893 141.669 449.425 141.79 457.201 135.953C457.323 135.953 456.594 154.802 441.893 141.669Z" fill="white"/>
<path d="M430.229 120.996C430.229 125.86 427.07 129.751 423.06 129.751C419.172 129.751 415.892 125.86 415.892 120.996C415.892 116.132 419.051 112.24 423.06 112.24C426.948 112.24 430.229 116.132 430.229 120.996Z" fill="#F3B595"/>
<path d="M437.154 117.834C437.154 118.564 436.547 119.293 435.696 119.293C434.846 119.293 434.238 118.685 434.238 117.834C434.238 117.104 434.846 116.375 435.696 116.375C436.547 116.375 437.154 116.983 437.154 117.834Z" fill="black"/>
<path d="M454.771 117.834C454.771 118.564 454.164 119.293 453.313 119.293C452.463 119.293 451.855 118.685 451.855 117.834C451.855 117.104 452.463 116.375 453.313 116.375C454.164 116.375 454.771 116.983 454.771 117.834Z" fill="black"/>
<path d="M444.808 119.05C444.808 119.05 444.322 123.793 441.771 131.332C441.771 131.332 442.864 132.548 446.752 133.278" stroke="#9C6A51" stroke-width="0.5707" stroke-miterlimit="10" stroke-linecap="round" stroke-linejoin="round"/>
<path d="M454.771 112.24L458.659 115.037" stroke="#1E2E6E" stroke-width="2.1654" stroke-miterlimit="10" stroke-linecap="round" stroke-linejoin="round"/>
<path d="M436.181 112.24L432.172 115.037" stroke="#1E2E6E" stroke-width="2.1654" stroke-miterlimit="10" stroke-linecap="round" stroke-linejoin="round"/>
<path d="M469.594 262.3C469.594 262.3 464.491 254.517 455.014 250.018C455.014 250.018 451.734 250.869 459.145 254.76C460.846 255.611 459.024 260.597 464.37 260.597C465.342 260.719 468.622 262.3 469.594 262.3Z" fill="#F3B595"/>
<path d="M417.835 198.093C417.835 198.093 411.517 232.385 408.479 253.787" stroke="#3B50A8" stroke-width="1.1414" stroke-miterlimit="10" stroke-linecap="round" stroke-linejoin="round"/>
<path d="M400.097 203.687C400.097 203.687 386.246 219.495 376.526 247.586C376.526 247.586 370.694 262.543 430.228 269.231L430.836 263.88C430.836 263.88 410.424 248.315 400.704 243.816L407.994 231.412L400.097 203.687Z" fill="#F3B595"/>
<path d="M385.76 218.887C387.461 231.899 406.901 237.006 406.901 237.006C409.209 232.385 410.667 228.858 411.639 226.183C414.677 208.794 418.322 192.013 422.21 175.353C412.49 177.906 402.527 183.865 385.76 218.887Z" fill="#506DE4"/>
<path d="M477.734 198.093C477.734 198.093 484.052 232.385 487.09 253.787" stroke="#3B50A8" stroke-width="1.1414" stroke-miterlimit="10" stroke-linecap="round" stroke-linejoin="round"/>
<path d="M425.247 265.096C425.247 265.096 430.35 257.314 439.827 252.814C439.827 252.814 443.107 253.666 435.696 257.557C433.995 258.408 435.818 263.394 430.472 263.394C429.5 263.516 426.098 265.096 425.247 265.096Z" fill="#F3B595"/>
<path d="M467.407 281.878C467.65 283.58 466.556 285.161 464.977 285.404L440.191 288.687C438.611 288.931 437.153 287.715 436.91 285.891L431.2 242.235C430.957 240.532 432.05 238.951 433.63 238.708L458.416 235.425C459.995 235.182 461.453 236.398 461.696 238.222L467.407 281.878Z" fill="white"/>
<path d="M459.388 240.532C459.388 241.384 458.658 242.113 457.808 242.113C456.957 242.113 456.229 241.384 456.229 240.532C456.229 239.681 456.957 238.951 457.808 238.951C458.658 238.951 459.388 239.681 459.388 240.532Z" fill="#787878"/>
<path d="M454.649 240.289C454.649 240.654 454.406 241.019 454.042 241.019L451.976 241.262C451.612 241.262 451.247 241.019 451.247 240.654C451.247 240.289 451.49 239.924 451.855 239.924L453.92 239.681C454.285 239.681 454.528 239.924 454.649 240.289Z" fill="#787878"/>
<path d="M497.296 203.687C497.296 203.687 511.147 219.495 520.867 247.586C520.867 247.586 528.278 263.759 466.921 266.312L466.557 260.962C466.557 260.962 486.969 248.437 496.688 243.816L489.399 231.412L497.296 203.687Z" fill="#F3B595"/>
<path d="M438.855 266.799C438.855 268.136 450.155 268.015 450.155 269.231C450.155 271.906 439.706 269.961 438.005 271.055C437.033 271.663 445.781 274.46 442.986 274.946C439.463 275.676 425.004 270.325 425.126 264.975C425.247 261.935 441.285 257.071 444.201 258.165C447.482 259.381 435.21 261.205 436.425 261.813C438.005 262.664 449.061 261.327 449.426 262.908C449.79 264.732 438.855 264.732 438.855 266.799Z" fill="#F3B595"/>
<path d="M455.986 264.002C455.986 265.34 444.687 265.218 444.687 266.434C444.687 269.109 455.135 267.164 456.836 268.258C457.808 268.866 449.06 271.663 451.855 272.149C455.378 272.879 469.837 267.528 469.715 262.178C469.594 259.138 455.864 253.179 452.948 254.274C449.668 255.49 459.631 258.408 458.416 259.016C456.836 259.867 445.78 258.53 445.416 260.111C445.051 261.935 455.986 261.935 455.986 264.002Z" fill="#F3B595"/>
<path d="M491.464 189.216C486.361 201.984 483.931 215.968 484.052 229.588C485.024 232.628 486.361 235.79 488.062 238.952C488.062 238.952 505.679 230.682 509.081 218.765C502.277 204.902 496.688 195.661 491.464 189.216Z" fill="#506DE4"/>
<path d="M462.305 91.9324C462.426 91.8108 458.295 86.9467 458.052 86.7035C455.744 84.2714 453.314 81.8393 450.155 80.6233C442.865 77.7048 433.631 80.5017 428.163 85.7307C425.004 88.7707 422.21 93.1485 421.238 97.4046C420.266 101.782 419.78 108.714 421.359 112.97C422.696 116.618 425.976 116.618 429.257 115.645C438.126 112.97 445.538 105.552 452.342 99.5935C455.379 97.0398 458.66 93.8781 462.305 91.9324Z" fill="#1E2E6E"/>
<path d="M457.322 90.9597C457.322 90.9597 477.005 87.0684 468.986 113.578C468.986 113.578 464.369 111.997 457.322 90.9597Z" fill="#1E2E6E"/>
<path d="M422.817 121.239C421.845 119.901 420.508 119.901 420.144 120.023C420.387 119.658 420.873 119.172 421.48 118.807C421.845 118.685 421.966 118.077 421.845 117.591C421.723 117.105 421.359 116.74 421.116 116.983C420.63 117.226 418.929 118.321 418.929 120.145C418.929 121.847 420.387 122.82 421.48 123.306H421.602C421.845 123.306 422.088 123.063 422.088 122.698C422.331 123.185 422.452 123.914 422.452 124.766C422.452 125.252 422.695 125.86 423.06 125.86C423.424 125.86 423.667 125.374 423.667 124.887C423.667 123.428 423.424 122.09 422.817 121.239Z" fill="#9C6A51"/>
<path d="M469.716 121.239C470.688 119.901 472.024 119.901 472.389 120.023C472.146 119.658 471.66 119.172 471.052 118.807C470.688 118.685 470.566 118.077 470.688 117.591C470.809 117.105 471.174 116.74 471.417 116.983C471.903 117.226 473.604 118.321 473.604 120.145C473.604 121.847 472.146 122.82 471.052 123.306H470.931C470.688 123.306 470.445 123.063 470.445 122.698C470.202 123.185 470.08 123.914 470.08 124.766C470.08 125.252 469.837 125.86 469.473 125.86C469.108 125.86 468.865 125.374 468.865 124.887C468.744 123.428 469.108 122.09 469.716 121.239Z" fill="#9C6A51"/>
<path d="M291.477 349.003C291.477 350.097 290.019 350.827 288.804 350.827H199.502C198.287 350.827 197.193 350.097 197.193 349.003V296.592C197.193 295.497 198.165 293.917 199.502 293.917H288.804C290.019 293.917 291.477 295.376 291.477 296.592V349.003Z" fill="white"/>
<path d="M248.952 325.047C248.952 330.154 244.821 334.289 239.718 334.289C234.615 334.289 230.484 330.154 230.484 325.047C230.484 319.94 234.615 315.805 239.718 315.805C244.821 315.805 248.952 319.94 248.952 325.047Z" fill="#B3B3B3"/>
<path d="M254.541 319.332C254.541 322.615 251.868 325.169 248.709 325.169C245.428 325.169 242.877 322.493 242.877 319.332C242.877 316.048 245.55 313.495 248.709 313.495C251.989 313.495 254.541 316.17 254.541 319.332Z" fill="#CCCCCC"/>
<path d="M98.0498 407.373C99.3863 412.967 115.789 425.249 117.976 429.87C119.92 434.004 107.648 430.599 110.2 433.639C116.882 441.908 127.331 463.554 134.986 461.73C144.705 459.541 142.64 439.111 145.556 432.91C147.135 429.505 134.864 434.855 135.472 430.478C135.958 427.437 149.687 414.912 149.687 411.629C149.687 408.589 149.444 405.427 148.958 402.265C148.715 400.198 135.107 405.062 134.621 402.995C134.014 400.563 146.649 391.199 145.799 389.011C144.584 385.241 143.004 381.593 141.304 378.431C139.603 375.148 129.397 386.457 127.331 383.903C123.808 379.526 130.004 363.231 125.873 361.407C122.228 359.704 116.761 358.002 113.116 358.853C111.293 359.218 115.424 375.999 113.237 377.823C112.508 378.431 105.583 363.839 104.975 364.447C103.031 366.392 101.209 368.46 100.115 370.162C97.3208 374.053 112.144 395.82 111.05 401.901C110.321 406.278 96.1058 390.591 96.3488 395.456C96.5918 399.347 97.0778 403.36 98.0498 407.373Z" fill="#FFE2A3"/>
<path d="M118.462 387.673C118.462 387.673 125.509 452.853 140.939 472.309" stroke="#0F1636" stroke-width="0.7368" stroke-miterlimit="10"/>
<path d="M179.333 427.802C177.875 431.572 164.631 438.26 162.566 441.3C160.743 443.976 170.22 443.003 168.033 444.827C162.323 449.934 152.724 463.797 147.135 461.73C140.089 459.054 143.369 444.948 141.79 440.327C140.939 437.774 149.565 442.881 149.444 439.719C149.322 437.531 140.21 427.194 140.453 424.884C140.696 422.695 141.182 420.628 141.79 418.317C142.154 416.858 151.874 421.844 152.36 420.506C152.967 418.925 144.462 410.899 145.191 409.44C146.406 406.886 147.864 404.576 149.444 402.509C151.023 400.441 157.706 409.562 159.407 407.981C162.444 405.305 159.285 393.145 162.444 392.294C165.239 391.564 169.491 390.956 172.164 391.929C173.501 392.415 169.005 403.725 170.463 405.305C170.949 405.792 177.389 396.307 177.753 396.793C179.09 398.374 180.183 400.077 180.912 401.293C182.613 404.333 169.856 417.952 170.099 422.33C170.22 425.492 182.249 416.007 181.52 419.533C181.034 422.33 180.305 425.127 179.333 427.802Z" fill="#54D9C8"/>
<path d="M165.724 411.629C165.724 411.629 154.911 456.622 141.789 468.539" stroke="#0F1636" stroke-width="0.7368" stroke-miterlimit="10"/>
<path d="M128.182 500.156C138.266 500.278 148.229 500.4 158.192 500.278C163.174 495.171 166.333 487.51 166.333 478.997C166.333 471.823 164.146 465.378 160.501 460.392C149.323 460.027 138.145 459.419 126.967 459.176C122.715 464.283 120.163 471.215 120.163 478.997C120.163 487.388 123.201 495.049 128.182 500.156Z" fill="#F38061"/>
<path d="M122.958 460.149C122.958 458.69 124.902 457.474 127.332 457.474H159.408C161.838 457.474 163.782 458.69 163.782 460.149C163.782 461.608 161.838 462.824 159.408 462.824H127.332C124.902 462.824 122.958 461.608 122.958 460.149Z" fill="#D9694C"/>
<path d="M125.266 499.913C125.266 498.697 126.967 497.724 129.154 497.724H157.22C159.407 497.724 161.108 498.697 161.108 499.913C161.108 501.129 159.407 502.102 157.22 502.102H129.154C126.967 502.224 125.266 501.251 125.266 499.913Z" fill="#D9694C"/>
<path d="M328.291 304.861C328.899 307.536 336.796 313.495 337.889 315.683C338.861 317.629 332.908 316.048 334.123 317.508C337.403 321.52 342.385 331.857 346.03 331.006C350.768 329.911 349.675 320.061 351.133 317.143C351.862 315.562 346.03 318.116 346.273 315.927C346.516 314.467 353.077 308.387 353.077 306.806C353.077 305.347 352.955 303.766 352.712 302.307C352.591 301.334 346.03 303.645 345.787 302.672C345.544 301.456 351.497 297.078 351.254 295.984C350.647 294.16 349.918 292.457 349.067 290.876C348.217 289.295 343.357 294.768 342.263 293.552C340.562 291.484 343.478 283.58 341.534 282.729C339.833 281.878 337.16 281.148 335.459 281.513C334.609 281.756 336.553 289.782 335.459 290.633C335.095 290.876 331.814 283.823 331.45 284.188C330.478 285.161 329.627 286.134 329.141 286.863C327.805 288.809 334.852 299.267 334.366 302.185C334.001 304.253 327.197 296.713 327.319 299.145C327.562 300.969 327.927 302.793 328.291 304.861Z" fill="#506DE4"/>
<path d="M338.133 295.376C338.133 295.376 341.535 326.75 348.946 336.113" stroke="#0F1636" stroke-width="0.3549" stroke-miterlimit="10"/>
<path d="M367.414 314.711C366.685 316.535 360.367 319.818 359.273 321.277C358.423 322.493 362.918 322.128 361.946 322.98C359.152 325.412 354.535 332.1 351.862 331.127C348.46 329.789 350.039 323.101 349.31 320.791C348.824 319.575 353.077 322.007 352.955 320.548C352.955 319.453 348.46 314.467 348.703 313.373C348.824 312.4 349.067 311.306 349.31 310.211C349.553 309.482 354.17 311.914 354.413 311.184C354.656 310.454 350.647 306.563 351.011 305.833C351.619 304.617 352.348 303.523 353.077 302.55C353.806 301.577 357.086 305.955 357.937 305.225C359.395 303.888 357.815 298.051 359.395 297.686C360.731 297.321 362.797 297.078 364.012 297.564C364.619 297.808 362.554 303.28 363.161 304.009C363.404 304.253 366.442 299.632 366.685 299.996C367.292 300.726 367.9 301.577 368.264 302.185C369.115 303.645 362.918 310.211 363.04 312.278C363.161 313.738 368.872 309.238 368.507 310.941C368.386 312.035 368.021 313.373 367.414 314.711Z" fill="#FFE2A3"/>
<path d="M360.974 306.928C360.974 306.928 355.75 328.573 349.432 334.289" stroke="#0F1636" stroke-width="0.3549" stroke-miterlimit="10"/>
<path d="M342.871 349.489C347.731 349.489 352.47 349.611 357.33 349.489C359.76 347.057 361.218 343.288 361.218 339.275C361.218 335.87 360.124 332.708 358.423 330.276C353.077 330.033 347.61 329.79 342.264 329.668C340.198 332.1 338.983 335.505 338.983 339.275C338.983 343.409 340.441 347.057 342.871 349.489Z" fill="#F38061"/>
<path d="M340.32 330.154C340.32 329.425 341.292 328.817 342.507 328.817H357.938C359.153 328.817 360.125 329.425 360.125 330.154C360.125 330.884 359.153 331.492 357.938 331.492H342.507C341.292 331.492 340.32 330.884 340.32 330.154Z" fill="#D9694C"/>
<path d="M341.413 349.368C341.413 348.76 342.264 348.273 343.236 348.273H356.722C357.694 348.273 358.544 348.76 358.544 349.368C358.544 349.976 357.694 350.462 356.722 350.462H343.236C342.264 350.462 341.413 349.976 341.413 349.368Z" fill="#D9694C"/>
</g>
<defs>
<clipPath id="clip0">
<rect width="577" height="555" fill="white"/>
</clipPath>
</defs>
</svg>
