<svg width="582" height="373" viewBox="0 0 582 373" fill="none" xmlns="http://www.w3.org/2000/svg">
<path d="M476.549 302.218H106.201C102.866 302.218 100.325 299.518 100.325 296.342V64.954H482.425V296.183C482.425 299.518 479.726 302.218 476.549 302.218Z" fill="#FADFE1"/>
<path d="M482.426 65.1127H100.326V54.6311C100.326 45.5789 107.79 38.1147 116.843 38.1147H465.91C474.962 38.1147 482.426 45.5789 482.426 54.6311V65.1127Z" fill="#35333C"/>
<path d="M131.772 55.9015C134.228 55.9015 136.219 53.9106 136.219 51.4548C136.219 48.9989 134.228 47.0081 131.772 47.0081C129.316 47.0081 127.325 48.9989 127.325 51.4548C127.325 53.9106 129.316 55.9015 131.772 55.9015Z" fill="white"/>
<path d="M151.464 55.9015C153.92 55.9015 155.911 53.9106 155.911 51.4548C155.911 48.9989 153.92 47.0081 151.464 47.0081C149.008 47.0081 147.018 48.9989 147.018 51.4548C147.018 53.9106 149.008 55.9015 151.464 55.9015Z" fill="white"/>
<path d="M171.316 55.9015C173.772 55.9015 175.763 53.9106 175.763 51.4548C175.763 48.9989 173.772 47.0081 171.316 47.0081C168.86 47.0081 166.869 48.9989 166.869 51.4548C166.869 53.9106 168.86 55.9015 171.316 55.9015Z" fill="white"/>
<path d="M430.971 257.751H364.429C362.364 257.751 360.776 256.004 360.776 254.098V148.648C360.776 146.583 362.523 144.995 364.429 144.995H430.971C433.036 144.995 434.624 146.742 434.624 148.648V254.098C434.782 256.004 433.036 257.751 430.971 257.751Z" stroke="white" stroke-width="1.0463" stroke-miterlimit="10"/>
<path d="M261.361 249.493H228.487C226.422 249.493 224.834 247.746 224.834 245.84V213.443C224.834 211.378 226.581 209.79 228.487 209.79H261.361C263.425 209.79 265.013 211.537 265.013 213.443V245.84C265.172 247.905 263.425 249.493 261.361 249.493Z" stroke="white" stroke-width="1.0463" stroke-miterlimit="10"/>
<path d="M52.205 112.438C62.4669 112.438 70.7859 104.12 70.7859 93.8576C70.7859 83.5956 62.4669 75.2766 52.205 75.2766C41.943 75.2766 33.624 83.5956 33.624 93.8576C33.624 104.12 41.943 112.438 52.205 112.438Z" fill="#FF5A4F"/>
<path d="M58.5572 88.9344C56.969 87.5051 54.5868 87.5051 53.1575 88.9344L52.2047 89.8873L51.2518 88.9344C49.6637 87.5051 47.2816 87.5051 45.8523 88.9344C44.4229 90.5225 44.4229 92.9047 45.8523 94.334L49.6637 97.9866C50.299 98.6219 50.9342 98.9395 51.7282 99.0983C52.8399 99.2571 54.1104 98.9395 55.0633 97.9866L58.7159 94.1752C60.1452 92.9047 60.1453 90.5225 58.5572 88.9344Z" fill="white"/>
<path d="M561.988 144.201H536.896C533.561 144.201 530.861 141.501 530.861 138.166C530.861 134.831 533.561 132.131 536.896 132.131H561.988C565.323 132.131 568.023 134.831 568.023 138.166C568.023 141.501 565.323 144.201 561.988 144.201Z" fill="#FF9746"/>
<path d="M542.782 139.756C543.66 139.753 544.368 139.04 544.366 138.163C544.363 137.286 543.65 136.577 542.773 136.58C541.896 136.582 541.187 137.295 541.189 138.173C541.192 139.05 541.905 139.759 542.782 139.756Z" fill="white"/>
<path d="M549.453 139.756C550.33 139.753 551.038 139.04 551.036 138.163C551.033 137.286 550.32 136.577 549.443 136.58C548.566 136.582 547.857 137.296 547.859 138.173C547.862 139.05 548.575 139.759 549.453 139.756Z" fill="white"/>
<path d="M556.122 139.756C557 139.753 557.708 139.04 557.706 138.163C557.703 137.286 556.99 136.577 556.113 136.58C555.235 136.582 554.527 137.296 554.529 138.173C554.532 139.05 555.245 139.759 556.122 139.756Z" fill="white"/>
<path d="M578.665 215.19H553.891C551.985 215.19 550.556 213.601 550.556 211.854C550.556 209.949 552.144 208.519 553.891 208.519H578.665C580.571 208.519 582 210.108 582 211.854C582 213.76 580.571 215.19 578.665 215.19Z" fill="#DAE0EF"/>
<path d="M142.728 10.6404H62.6866C60.7808 10.6404 59.3516 9.05231 59.3516 7.30539C59.3516 5.39965 60.9396 3.97034 62.6866 3.97034H142.728C144.633 3.97034 146.063 5.55846 146.063 7.30539C146.063 9.05231 144.474 10.6404 142.728 10.6404Z" fill="#DAE0EF"/>
<path d="M508.946 10.1639H503.547C502.118 10.1639 501.006 9.05225 501.006 7.62295V2.54099C501.006 1.11169 502.118 0 503.547 0H508.946C510.376 0 511.487 1.11169 511.487 2.54099V7.62295C511.487 9.05225 510.376 10.1639 508.946 10.1639Z" fill="#DAE0EF"/>
<path d="M8.69057 212.648H3.29099C1.86169 212.648 0.75 211.537 0.75 210.107V205.025C0.75 203.596 1.86169 202.484 3.29099 202.484H8.69057C10.1199 202.484 11.2316 203.596 11.2316 205.025V210.107C11.2316 211.537 10.1199 212.648 8.69057 212.648Z" fill="#DAE0EF"/>
<path d="M85.2368 210.584L82.2193 225.988L69.832 222.812L74.4376 199.785L85.2368 210.584Z" fill="#FFAA9E"/>
<path d="M83.3305 219.795C83.3305 219.477 78.8838 210.425 78.8838 210.425L84.7598 212.172L83.3305 219.795Z" fill="#1F120A"/>
<path d="M86.9843 180.092C86.9843 180.092 94.1308 180.41 95.7189 189.144C95.7189 189.144 96.8306 195.497 98.2599 204.549C99.0539 209.313 95.0837 213.919 90.3193 213.442C87.3019 213.125 83.9669 212.331 80.7906 210.584L76.1851 207.407C65.3859 198.038 71.7384 180.092 86.0314 180.092C86.349 180.092 86.6666 180.092 86.9843 180.092Z" fill="#FFAA9E"/>
<path d="M95.5596 197.402L99.371 200.42C100.006 200.896 100.006 202.008 99.5299 202.167L96.3536 202.961L95.5596 197.402Z" fill="#FFAA9E"/>
<path d="M79.8373 197.085C79.8373 197.085 74.5966 176.598 94.1304 182.95C94.1304 182.95 83.8076 171.834 68.5617 181.045C65.3855 182.95 62.5269 187.556 62.2093 191.367C61.4152 200.42 68.7205 201.214 72.3732 210.584C72.3732 210.584 76.9787 209.154 77.614 202.643C77.614 201.055 79.8373 197.085 79.8373 197.085Z" fill="#312220"/>
<path d="M73.0086 191.685L77.773 198.514C102.706 189.144 88.2545 179.933 88.2545 179.933C88.2545 179.933 68.4031 176.598 73.0086 191.685Z" fill="#312220"/>
<path d="M85.3958 194.226L80.155 200.42L77.9316 194.385L85.3958 194.226Z" fill="#312220"/>
<path d="M85.0773 181.362C85.0773 181.362 93.3355 181.68 95.2413 187.079C95.2413 187.079 103.182 176.439 86.189 178.821C78.2485 179.933 85.0773 181.362 85.0773 181.362Z" fill="#312220"/>
<path d="M77.0645 203.282C79.6926 203.152 81.7177 200.916 81.5877 198.288C81.4576 195.66 79.2217 193.635 76.5936 193.765C73.9655 193.895 71.9404 196.131 72.0704 198.759C72.2004 201.387 74.4364 203.412 77.0645 203.282Z" fill="#FFAA9E"/>
<path d="M78.8829 199.308C78.8829 199.308 78.7241 195.973 75.5479 196.609" stroke="#081921" stroke-width="0.4507" stroke-miterlimit="10" stroke-linecap="round" stroke-linejoin="round"/>
<path d="M66.9732 184.856C66.9732 184.856 61.7324 166.434 49.5039 173.739C45.6925 175.963 44.1044 180.727 45.0572 185.015C45.5337 187.397 47.1217 189.938 50.7744 191.209C59.8267 194.703 66.1791 187.556 66.1791 187.556L66.9732 184.856Z" fill="#312220"/>
<path d="M92.8603 191.844C92.8603 191.844 95.2425 191.209 95.5601 192.32C95.5601 192.32 95.7189 193.114 93.6544 193.591C91.431 194.067 90.9546 194.067 90.4781 193.273C90.0017 192.638 91.5898 192.003 92.8603 191.844Z" fill="#081921"/>
<path d="M95.1678 198.285C95.2263 197.674 94.7782 197.131 94.167 197.073C93.5558 197.014 93.013 197.462 92.9545 198.073C92.896 198.685 93.3441 199.228 93.9553 199.286C94.5665 199.344 95.1094 198.896 95.1678 198.285Z" fill="#081921"/>
<path d="M96.8298 205.343C96.8298 205.343 94.7652 205.66 93.3359 204.866" stroke="#081921" stroke-width="0.4507" stroke-miterlimit="10" stroke-linecap="round" stroke-linejoin="round"/>
<path d="M119.539 240.599L79.8357 226.623L71.7363 242.187C87.4587 248.222 114.298 256.004 114.298 256.004C118.903 257.433 123.826 254.574 124.779 249.651C125.415 245.681 123.191 241.869 119.539 240.599Z" fill="#FFAA9E"/>
<path d="M76.0245 247.11L91.1116 252.51L99.8462 230.594L83.9651 225.035C77.9302 222.812 71.2601 225.988 69.0368 232.182C66.8134 238.217 69.9897 245.046 76.0245 247.11Z" fill="#1F120A"/>
<path d="M124.303 251.239L138.278 217.412L131.767 211.378L109.692 244.252C107.628 248.698 110.01 253.939 114.774 255.368C118.586 256.639 122.556 254.892 124.303 251.239Z" fill="#FFAA9E"/>
<path d="M138.278 217.571C138.278 217.571 142.09 216.46 149.078 208.996L141.137 202.326L138.278 217.571Z" fill="#FFAA9E"/>
<path d="M206.728 259.815H145.109C143.838 259.815 142.727 258.703 142.727 257.433V184.221C142.727 182.95 143.838 181.839 145.109 181.839H206.728C207.998 181.839 209.11 182.95 209.11 184.221V257.433C209.11 258.703 207.998 259.815 206.728 259.815Z" fill="white"/>
<path d="M160.513 210.107C160.513 208.837 160.671 207.566 160.989 206.296C160.036 205.978 159.083 205.502 158.13 205.184C157.654 206.772 157.495 208.36 157.495 210.107C157.495 216.46 160.671 222.018 165.595 225.353C166.389 224.718 167.183 223.924 167.977 223.289C163.53 220.589 160.513 215.666 160.513 210.107Z" fill="#FF5A4F"/>
<path d="M175.917 191.685C167.5 191.685 160.354 197.402 158.289 205.184C159.242 205.502 160.195 205.978 161.148 206.296C162.895 199.626 168.929 194.703 176.076 194.703C184.493 194.703 191.481 201.531 191.481 210.107C191.481 218.683 184.652 225.512 176.076 225.512C173.217 225.512 170.518 224.718 168.294 223.289C167.5 223.924 166.706 224.559 165.912 225.353C168.771 227.418 172.423 228.529 176.235 228.529C186.399 228.529 194.657 220.271 194.657 210.107C194.657 199.943 186.081 191.685 175.917 191.685Z" fill="#FF9746"/>
<path d="M155.75 237.899H196.088" stroke="#DAE0EF" stroke-width="1.0463" stroke-miterlimit="10" stroke-linecap="round" stroke-linejoin="round"/>
<path d="M155.749 243.616H167.819" stroke="#DAE0EF" stroke-width="1.0463" stroke-miterlimit="10" stroke-linecap="round" stroke-linejoin="round"/>
<path d="M131.768 211.537L141.614 198.355C142.249 197.402 143.678 197.085 144.631 197.72C145.743 198.355 146.061 199.943 145.267 200.896L143.043 204.549C143.043 204.549 143.361 215.03 137.802 217.73L131.768 211.537Z" fill="#FFAA9E"/>
<path d="M82.2177 224.4C86.8232 226.147 93.8109 240.281 94.1286 242.822C95.7167 252.669 88.8878 257.751 88.8878 257.751L82.2177 279.031L50.6143 278.555L55.855 232.5C56.8079 222.971 69.8304 221.383 69.8304 221.383L82.2177 224.4Z" fill="#35333C"/>
<path d="M22.6641 256.798L28.2225 295.865L36.9571 294.595L38.5453 254.257C37.7512 249.492 32.828 246.475 28.0637 247.904C24.5698 249.016 22.1877 252.827 22.6641 256.798Z" fill="#FFAA9E"/>
<path d="M42.5165 296.183C43.1517 296.977 43.4693 298.088 42.9929 299.041C42.5165 300.312 41.0872 300.629 39.9755 299.994L39.0226 299.359C38.3874 300.629 37.9109 303.17 42.3577 308.252C43.1517 309.047 43.1517 310.476 42.3577 311.27C41.7224 311.905 40.9284 311.905 40.2931 311.587C40.2931 311.587 40.2931 311.587 40.1343 311.587C40.2931 312.223 40.1343 313.017 39.6579 313.493C39.0226 314.128 38.2286 314.128 37.5933 313.811C37.4345 313.811 37.4345 313.652 37.2757 313.652C37.1169 313.97 37.1169 314.287 36.7993 314.446C36.164 315.081 35.37 315.081 34.7347 314.764C34.5759 314.605 34.4171 314.446 34.2583 314.287L34.0995 314.128C34.0995 314.128 34.0995 314.128 34.0995 314.287C33.4642 314.923 32.6702 314.923 32.0349 314.605C31.8761 314.446 31.7173 314.287 31.5585 314.128C30.288 312.699 29.3351 311.27 28.5411 309.999C28.2234 309.364 27.9058 308.729 27.5882 308.094C26.3177 305.235 28.5411 299.518 28.3823 294.277L36.9581 290.942L42.5165 296.183Z" fill="#FFAA9E"/>
<path d="M35.0503 262.515L70.7829 240.44L63.7952 224.4C49.1846 232.817 26.4745 249.016 26.4745 249.016C22.3454 251.716 21.5514 257.433 24.8864 261.086C27.2686 263.944 31.7153 264.58 35.0503 262.515Z" fill="#FFAA9E"/>
<path d="M60.302 224.718L43.1504 233.611L53.3143 254.892L72.5305 244.728C78.0889 241.393 79.8358 234.247 76.5008 228.688C73.1657 223.13 65.8604 221.383 60.302 224.718Z" fill="#35333C"/>
<path d="M53.3145 254.892L75.0716 243.458" stroke="#211B1E" stroke-width="0.5693" stroke-miterlimit="10"/>
<path d="M23.3015 345.732L45.3763 352.243L47.7585 337.156L23.6192 330.328L22.3486 341.762L23.3015 345.732Z" fill="#FFAA9E"/>
<path d="M30.4469 330.486C30.4469 330.486 24.0945 341.921 31.7174 348.273L13.4541 372.413L18.3773 325.563L30.4469 330.486Z" fill="#232323"/>
<path d="M13.5489 372.383L18.4307 325.471L14.008 325.01L9.1262 371.923L13.5489 372.383Z" fill="#DAE0EF"/>
<path d="M29.3353 351.45C29.3353 351.45 28.2236 349.385 25.6826 347.003" stroke="white" stroke-width="1.0238" stroke-miterlimit="10" stroke-linecap="round" stroke-linejoin="round"/>
<path d="M26.7953 355.102C26.7953 355.102 25.6836 353.037 23.1426 350.655" stroke="white" stroke-width="1.0238" stroke-miterlimit="10" stroke-linecap="round" stroke-linejoin="round"/>
<path d="M24.4125 358.914C24.4125 358.914 23.3007 356.849 20.7598 354.467" stroke="white" stroke-width="1.0238" stroke-miterlimit="10" stroke-linecap="round" stroke-linejoin="round"/>
<path d="M88.0942 283.637C88.5706 285.066 98.0993 333.345 101.593 351.45C103.181 359.549 96.5112 366.854 88.253 366.219L37.751 356.055L39.9743 330.645L70.1485 336.521L57.92 301.742L88.0942 283.637Z" fill="#FF5A4F"/>
<path d="M50.9325 332.71L49.1855 358.279" stroke="#211B1E" stroke-width="0.5693" stroke-miterlimit="10"/>
<path d="M133.832 360.502L137.961 337.951L122.715 336.998L118.586 361.772H129.862L133.832 360.502Z" fill="#FFAA9E"/>
<path d="M117.792 354.944C117.792 354.944 129.862 360.026 135.42 351.767L161.307 367.331H114.14L117.792 354.944Z" fill="#232323"/>
<path d="M161.307 367.49H114.14V371.936H161.307V367.49Z" fill="#DAE0EF"/>
<path d="M138.755 353.832C138.755 353.832 136.691 355.102 134.785 357.961" stroke="white" stroke-width="1.0238" stroke-miterlimit="10" stroke-linecap="round" stroke-linejoin="round"/>
<path d="M142.726 355.896C142.726 355.896 140.662 357.167 138.756 360.025" stroke="white" stroke-width="1.0238" stroke-miterlimit="10" stroke-linecap="round" stroke-linejoin="round"/>
<path d="M146.697 357.961C146.697 357.961 144.632 359.232 142.727 362.09" stroke="white" stroke-width="1.0238" stroke-miterlimit="10" stroke-linecap="round" stroke-linejoin="round"/>
<path d="M50.6142 278.396C50.9318 279.349 104.292 269.979 137.325 264.421C147.648 262.674 156.7 271.567 154.953 281.89L143.678 344.144H114.933L121.444 294.754L74.5947 308.57C55.8549 312.064 47.5968 297.771 49.3437 286.178L50.6142 278.396Z" fill="#FF5A4F"/>
<path d="M145.267 333.98H116.204" stroke="#211B1E" stroke-width="0.5693" stroke-miterlimit="10"/>
<path d="M92.2221 303.489C92.2221 303.489 69.8297 312.541 59.9834 307.3" stroke="#211B1E" stroke-width="0.5693" stroke-miterlimit="10"/>
<path d="M505.293 324.61L484.33 315.24L492.271 302.059L515.14 312.858L508.628 322.228L505.293 324.61Z" fill="#FFAA9E"/>
<path d="M509.901 308.411C509.901 308.411 507.201 321.116 497.355 321.116L495.29 351.291L522.288 312.541L509.901 308.411Z" fill="#232323"/>
<path d="M498.721 353.759L525.687 315.059L522.038 312.517L495.073 351.217L498.721 353.759Z" fill="#DAE0EF"/>
<path d="M497.035 324.928C497.035 324.928 499.259 324.134 502.752 323.975" stroke="white" stroke-width="1.0238" stroke-miterlimit="10" stroke-linecap="round" stroke-linejoin="round"/>
<path d="M496.399 329.375C496.399 329.375 498.623 328.581 502.117 328.422" stroke="white" stroke-width="1.0238" stroke-miterlimit="10" stroke-linecap="round" stroke-linejoin="round"/>
<path d="M495.765 333.821C495.765 333.821 497.988 333.027 501.482 332.869" stroke="white" stroke-width="1.0238" stroke-miterlimit="10" stroke-linecap="round" stroke-linejoin="round"/>
<path d="M459.08 199.627C459.08 199.627 445.422 250.288 443.516 260.293C441.452 270.298 437.481 290.308 445.898 297.454C454.315 304.601 486.554 321.911 486.554 321.911L498.465 300.631L479.249 289.037L459.08 199.627Z" fill="#28272D"/>
<path d="M477.184 360.661L473.055 338.109L488.301 337.156L492.588 361.931H481.154L477.184 360.661Z" fill="#FFAA9E"/>
<path d="M493.222 355.102C493.222 355.102 481.153 360.184 475.594 351.926L449.708 367.648H496.875L493.222 355.102Z" fill="#232323"/>
<path d="M449.656 372.112H496.823V367.665H449.656V372.112Z" fill="#DAE0EF"/>
<path d="M472.26 354.15C472.26 354.15 474.324 355.42 476.23 358.279" stroke="white" stroke-width="1.0238" stroke-miterlimit="10" stroke-linecap="round" stroke-linejoin="round"/>
<path d="M468.29 356.214C468.29 356.214 470.355 357.484 472.26 360.343" stroke="white" stroke-width="1.0238" stroke-miterlimit="10" stroke-linecap="round" stroke-linejoin="round"/>
<path d="M464.319 358.278C464.319 358.278 466.384 359.549 468.29 362.408" stroke="white" stroke-width="1.0238" stroke-miterlimit="10" stroke-linecap="round" stroke-linejoin="round"/>
<path d="M492.747 235.835C492.747 235.835 497.353 208.202 484.648 199.626L459.079 199.467L454.474 216.777L458.603 225.671L457.65 276.014C457.65 278.714 457.809 281.573 458.285 284.272L469.719 343.191H493.541L486.871 276.649C487.189 264.58 491.159 250.763 492.747 235.835Z" fill="#35333C"/>
<path d="M458.127 175.327L437.323 175.804C433.67 175.486 430.653 172.945 429.7 169.293C428.429 164.37 428.27 160.717 433.352 159.923L457.174 156.905L458.127 175.327Z" fill="#E68078"/>
<path d="M474.166 175.963C474.166 175.963 465.431 179.933 451.932 180.41L450.979 157.064L473.213 154.365L474.166 175.963Z" fill="#A2A0B7"/>
<path d="M443.675 165.005L425.57 125.937L417.471 127.208L430.493 170.881C433.352 176.916 441.769 177.551 445.58 171.993C447.168 169.452 444.945 167.863 443.675 165.005Z" fill="#E68078"/>
<path d="M444.945 122.443L346.8 122.126C345.529 122.126 344.576 121.173 344.576 119.902L344.735 94.6515C344.735 93.381 345.688 92.4281 346.958 92.4281L445.104 92.7457C446.374 92.7457 447.327 93.6986 447.327 94.9691L447.168 120.22C447.327 121.491 446.215 122.443 444.945 122.443Z" fill="white"/>
<path d="M363.634 115.138C359.188 115.138 355.535 111.485 355.535 107.039C355.535 102.592 359.188 98.9393 363.634 98.9393C368.081 98.9393 371.734 102.592 371.734 107.039C371.734 111.485 368.081 115.138 363.634 115.138Z" fill="#FF9746"/>
<path d="M380.15 104.18H426.682" stroke="#DAE0EF" stroke-width="1.0463" stroke-miterlimit="10" stroke-linecap="round" stroke-linejoin="round"/>
<path d="M380.15 109.897H389.838" stroke="#DAE0EF" stroke-width="1.0463" stroke-miterlimit="10" stroke-linecap="round" stroke-linejoin="round"/>
<path d="M426.999 131.813L430.334 124.984C430.97 123.714 431.446 122.443 431.128 121.173L429.064 115.615C428.746 114.662 427.317 113.55 426.046 114.344C425.57 114.662 425.094 115.297 425.094 115.932L425.252 119.744L423.347 122.443L412.389 122.285C412.389 122.285 413.024 126.096 418.9 132.449L423.188 133.401L426.999 131.813Z" fill="#E68078"/>
<path d="M475.278 153.253C475.278 153.253 460.35 156.27 456.698 168.816C455.586 172.628 458.921 199.626 458.921 199.626L484.49 199.785C484.49 199.785 488.777 191.05 493.383 182.633C497.988 174.216 494.177 163.734 486.872 157.064L475.278 153.253Z" fill="#AFACC3"/>
<path d="M500.052 193.273L515.934 237.582L523.715 235.041C523.715 235.041 518.633 199.626 513.551 187.874C510.852 181.68 502.435 180.727 498.464 186.285C496.717 188.826 498.782 190.415 500.052 193.273Z" fill="#E68078"/>
<path d="M515.299 245.204C515.299 246.157 515.775 247.11 516.569 247.587C517.681 248.222 518.793 247.745 519.11 246.475L519.269 245.522C520.54 245.999 522.287 247.745 522.445 254.257C522.445 255.368 523.239 256.321 524.192 256.48C524.986 256.639 525.622 256.162 525.78 255.368C525.78 255.368 525.78 255.368 525.78 255.21C526.098 255.845 526.574 256.321 527.21 256.321C528.004 256.48 528.639 256.004 528.798 255.21C528.798 255.051 528.798 255.051 528.798 254.892C529.115 255.051 529.274 255.21 529.592 255.21C530.386 255.368 531.021 254.892 531.18 254.098C531.18 253.939 531.339 253.621 531.339 253.463C531.339 253.304 531.339 253.304 531.339 253.145C531.339 253.145 531.339 253.145 531.498 253.145C532.292 253.304 532.927 252.827 533.086 252.033C533.086 251.875 533.244 251.557 533.244 251.398C533.244 249.651 533.086 247.904 532.768 246.475C532.609 245.84 532.45 245.204 532.292 244.569C531.498 241.552 526.416 238.693 523.398 234.723L515.616 237.264L515.299 245.204Z" fill="#E68078"/>
<path d="M501.799 169.61L511.804 184.698C513.869 187.715 513.71 191.685 511.487 194.703C508.469 198.832 505.611 201.214 501.958 197.72L487.665 180.886L501.799 169.61Z" fill="#E68078"/>
<path d="M487.03 157.064C487.03 157.064 498.306 161.193 507.04 174.851L490.842 188.032L476.072 175.486L487.03 157.064Z" fill="#AFACC3"/>
<path d="M491.001 188.032L480.36 178.821" stroke="#211B1E" stroke-width="0.5693" stroke-miterlimit="10"/>
<path d="M474.164 142.136L472.894 158.176L486.075 157.223L487.822 134.354L474.164 142.136Z" fill="#E68078"/>
<path d="M473.371 151.823C473.371 151.506 480.2 143.883 480.2 143.883L473.848 144.041L473.371 151.823Z" fill="#1F120A"/>
<path d="M480.676 111.485C480.676 111.485 473.53 109.738 469.559 117.997C469.559 117.997 466.86 124.031 462.889 132.607C460.825 137.213 463.366 142.771 468.448 143.565C471.465 144.042 475.118 144.2 478.612 143.248L484.011 141.342C497.192 134.989 495.763 115.456 481.629 111.644C481.311 111.644 480.994 111.485 480.676 111.485Z" fill="#E68078"/>
<path d="M467.495 126.096L462.889 128.16C462.095 128.478 461.778 129.59 462.254 129.907L465.113 131.496L467.495 126.096Z" fill="#E68078"/>
<path d="M483.216 130.225C483.216 130.225 494.015 111.485 472.894 112.279C472.894 112.279 486.234 104.18 498.78 117.361C501.48 120.061 502.909 125.461 502.274 129.272C500.527 138.483 493.221 137.213 487.028 145.63C487.028 145.63 482.899 142.93 484.01 136.26C484.169 134.672 483.216 130.225 483.216 130.225Z" fill="#1F120A"/>
<path d="M491.316 126.573L484.646 131.972C462.412 115.773 479.405 110.691 479.405 110.691C479.405 110.691 499.892 113.074 491.316 126.573Z" fill="#1F120A"/>
<path d="M478.294 125.778L481.788 133.401L485.758 128.002L478.294 125.778Z" fill="#1F120A"/>
<path d="M482.263 113.232C482.263 113.232 474.005 111.326 470.67 116.091C470.67 116.091 465.747 103.386 481.787 110.374C489.41 113.709 482.263 113.232 482.263 113.232Z" fill="#1F120A"/>
<path d="M490.226 133.843C491.047 131.344 489.687 128.651 487.187 127.829C484.688 127.008 481.995 128.368 481.173 130.868C480.352 133.367 481.712 136.06 484.212 136.882C486.711 137.703 489.404 136.343 490.226 133.843Z" fill="#E68078"/>
<path d="M483.375 132.766C483.375 132.766 484.487 129.431 487.504 131.019" stroke="#081921" stroke-width="0.463" stroke-miterlimit="10" stroke-linecap="round" stroke-linejoin="round"/>
<path d="M471.784 121.49C471.784 121.49 469.56 120.22 468.925 121.173C468.925 121.173 468.608 121.808 470.513 122.92C472.578 124.031 473.213 124.031 473.689 123.555C474.166 123.078 472.895 121.967 471.784 121.49Z" fill="#1F120A"/>
<path d="M469.804 127.725C469.91 127.121 469.505 126.545 468.9 126.439C468.296 126.334 467.72 126.738 467.614 127.343C467.508 127.948 467.913 128.524 468.518 128.629C469.123 128.735 469.699 128.33 469.804 127.725Z" fill="#1F120A"/>
<path d="M463.208 131.972L466.702 133.56C466.702 133.56 465.59 135.148 462.414 133.878C462.414 133.878 462.573 133.242 463.208 131.972Z" fill="white"/>
<path d="M497.034 117.838C497.034 117.838 497.352 118.791 497.034 117.838C494.017 107.674 499.893 105.133 504.657 107.356C505.293 107.674 506.087 108.15 506.722 108.786C506.722 108.786 509.58 102.274 514.821 104.498C514.821 104.498 518.95 106.086 516.092 112.121C516.092 112.121 519.744 111.168 521.968 114.026C523.238 115.614 523.397 117.997 522.444 119.744C521.809 121.014 520.697 122.443 518.474 123.714C518.474 123.714 521.174 127.208 517.68 129.59C514.821 131.496 511.169 128.637 511.169 128.637C511.169 128.637 512.28 132.925 509.739 133.878C507.198 134.831 504.022 132.925 501.005 126.89C498.146 121.173 497.034 117.838 497.034 117.838Z" fill="#1F120A"/>
<path d="M480.359 154.047L487.029 157.064C487.029 157.064 478.135 165.005 470.354 161.193C462.095 157.064 475.277 153.411 475.277 153.411L480.359 154.047Z" fill="#E68078"/>
<path d="M275.651 339.062L276.287 352.243H290.421L289.786 338.427L275.651 339.062Z" fill="#FFAA9E"/>
<path d="M272.794 351.291V359.866L257.389 363.36C254.213 364.472 252.148 367.489 251.831 370.666L251.672 372.571L294.551 372.412L292.169 350.814L272.794 351.291Z" fill="#232323"/>
<path d="M252.308 368.601H293.916" stroke="white" stroke-width="0.407" stroke-miterlimit="10" stroke-linecap="round" stroke-linejoin="round"/>
<path d="M264.377 361.772L267.077 364.631" stroke="white" stroke-width="1.0238" stroke-miterlimit="10" stroke-linecap="round" stroke-linejoin="round"/>
<path d="M269.141 360.819L271.84 363.519" stroke="white" stroke-width="1.0238" stroke-miterlimit="10" stroke-linecap="round" stroke-linejoin="round"/>
<path d="M271.046 260.927L296.615 200.42L319.484 226.465L296.138 278.079L295.98 344.62H268.346L266.917 282.525C267.235 272.997 267.711 267.756 271.046 260.927Z" fill="#35333C"/>
<path d="M296.138 334.615H268.188" stroke="#211B1E" stroke-width="0.5693" stroke-miterlimit="10"/>
<path d="M336.315 339.38L338.221 352.243H352.197L350.45 338.745L336.315 339.38Z" fill="#FFAA9E"/>
<path d="M334.728 351.291V359.866L319.324 363.36C316.147 364.472 314.083 367.489 313.765 370.666L313.606 372.571L358.074 372.413L354.262 350.814L334.728 351.291Z" fill="#232323"/>
<path d="M314.242 368.601H357.28" stroke="white" stroke-width="0.407" stroke-miterlimit="10" stroke-linecap="round" stroke-linejoin="round"/>
<path d="M326.153 361.931L328.694 364.631" stroke="white" stroke-width="1.0238" stroke-miterlimit="10" stroke-linecap="round" stroke-linejoin="round"/>
<path d="M331.076 360.819L333.617 363.519" stroke="white" stroke-width="1.0238" stroke-miterlimit="10" stroke-linecap="round" stroke-linejoin="round"/>
<path d="M332.983 200.42C332.983 200.42 344.735 208.36 347.752 245.999C350.77 283.637 357.599 344.779 357.599 344.779H330.919L305.032 205.819L332.983 200.42Z" fill="#35333C"/>
<path d="M356.329 334.615H328.854" stroke="#211B1E" stroke-width="0.5693" stroke-miterlimit="10"/>
<path d="M311.702 243.458L300.427 235.2" stroke="#211B1E" stroke-width="0.5693" stroke-miterlimit="10"/>
<path d="M276.128 152.776C269.458 157.223 254.371 168.022 242.46 182.315C238.808 186.603 239.284 193.115 243.572 196.767C247.542 200.261 253.577 200.261 257.547 196.608L288.992 169.293C293.121 165.481 293.439 158.97 289.786 154.682C286.292 150.712 280.416 149.918 276.128 152.776Z" fill="#FF5A4F"/>
<path d="M243.73 152.141L126.369 151.824C125.098 151.824 124.146 150.871 124.146 149.6L124.304 94.9691C124.304 93.6986 125.257 92.7457 126.528 92.7457L243.889 93.0634C245.16 93.0634 246.113 94.0162 246.113 95.2867L245.954 149.918C245.954 151.188 245.001 152.141 243.73 152.141Z" fill="white"/>
<path d="M155.113 117.997H143.679C142.409 117.997 141.297 116.885 141.297 115.614V104.18C141.297 102.91 142.409 101.798 143.679 101.798H155.113C156.384 101.798 157.496 102.91 157.496 104.18V115.614C157.496 117.044 156.384 117.997 155.113 117.997Z" fill="#FF5A4F"/>
<path d="M166.071 107.039H227.531" stroke="#DAE0EF" stroke-width="1.0463" stroke-miterlimit="10" stroke-linecap="round" stroke-linejoin="round"/>
<path d="M166.07 112.756H205.614" stroke="#DAE0EF" stroke-width="1.0463" stroke-miterlimit="10" stroke-linecap="round" stroke-linejoin="round"/>
<path d="M155.113 140.071H143.679C142.409 140.071 141.297 138.96 141.297 137.689V126.255C141.297 124.984 142.409 123.873 143.679 123.873H155.113C156.384 123.873 157.496 124.984 157.496 126.255V137.689C157.496 138.96 156.384 140.071 155.113 140.071Z" fill="#FF9746"/>
<path d="M166.071 129.113H227.531" stroke="#DAE0EF" stroke-width="1.0463" stroke-miterlimit="10" stroke-linecap="round" stroke-linejoin="round"/>
<path d="M166.07 134.831H179.728" stroke="#DAE0EF" stroke-width="1.0463" stroke-miterlimit="10" stroke-linecap="round" stroke-linejoin="round"/>
<path d="M218.956 158.176L218.321 150.712C218.162 149.283 218.003 148.012 217.05 147.059L212.445 143.248C211.651 142.613 209.904 142.295 209.11 143.724C208.792 144.36 208.792 144.995 209.11 145.471L211.174 148.647L211.015 151.982H195.293C195.293 151.982 201.01 159.605 211.651 163.258L220.226 171.834L227.532 163.576L218.956 158.176Z" fill="#FFAA9E"/>
<path d="M256.119 182.474L218.957 155.159L210.54 166.593L243.414 197.561C249.608 202.326 258.819 198.832 259.93 191.368C260.407 188.033 258.978 184.698 256.119 182.474Z" fill="#FF5A4F"/>
<path d="M300.426 144.677L318.054 141.66L327.583 159.447L336 203.437C336 203.437 307.731 223.448 288.674 213.76L278.192 151.665L289.309 147.695L300.426 144.677Z" fill="#FF5A4F"/>
<path d="M280.733 166.434L283.116 179.774" stroke="#211B1E" stroke-width="0.5693" stroke-miterlimit="10"/>
<path d="M359.394 237.311C361.87 232.767 360.192 227.076 355.648 224.6C351.103 222.125 345.412 223.802 342.937 228.346C340.461 232.891 342.138 238.582 346.683 241.057C351.227 243.533 356.918 241.856 359.394 237.311Z" fill="#FFAA9E"/>
<path d="M342.194 235.2C342.194 235.2 338.065 234.405 339.97 229.959C342.035 225.512 346.958 220.907 355.534 224.718L342.194 235.2Z" fill="#FFAA9E"/>
<path d="M350.928 180.092L343.94 225.194L361.092 226.941L370.462 183.427C371.732 175.804 364.268 169.61 357.122 172.469C353.787 173.581 351.405 176.598 350.928 180.092Z" fill="#FF5A4F"/>
<path d="M325.202 143.089C333.301 147.377 351.882 158.017 366.969 172.787C371.575 177.392 371.733 184.698 367.446 189.462C363.316 193.909 356.488 194.544 351.564 190.891L312.497 163.417C307.256 159.447 306.144 152.141 309.956 146.9C313.291 141.819 319.961 140.23 325.202 143.089Z" fill="#FF5A4F"/>
<path d="M330.124 175.804L319.166 168.022" stroke="#211B1E" stroke-width="0.5693" stroke-miterlimit="10"/>
<path d="M285.339 134.354L290.421 150.712L305.19 146.106L295.979 119.902L285.339 134.354Z" fill="#FFAA9E"/>
<path d="M288.198 143.883C288.039 143.565 292.644 132.925 292.644 132.925L285.815 136.26L288.198 143.883Z" fill="#312220"/>
<path d="M278.987 102.274C278.987 102.274 271.682 104.021 271.84 113.391C271.84 113.391 271.999 120.22 272.476 129.908C272.634 134.99 277.558 138.96 282.64 137.531C285.657 136.578 288.992 135.148 291.851 132.607L295.821 128.32C305.032 116.409 294.709 99.0983 279.94 102.116C279.622 101.957 279.305 102.116 278.987 102.274Z" fill="#FFAA9E"/>
<path d="M273.27 122.92L270.094 126.414C269.617 126.89 269.935 127.684 270.57 127.684L273.905 127.843L273.27 122.92Z" fill="#FFAA9E"/>
<path d="M275.175 115.615C275.175 115.615 272.634 115.456 272.634 116.567C272.634 116.567 272.634 117.361 274.698 117.52C276.922 117.679 277.398 117.52 277.716 116.726C277.875 115.932 276.286 115.615 275.175 115.615Z" fill="#081921"/>
<path d="M275.119 123.013C275.713 122.858 276.07 122.251 275.916 121.657C275.761 121.063 275.155 120.706 274.56 120.861C273.966 121.015 273.609 121.622 273.764 122.216C273.918 122.81 274.525 123.167 275.119 123.013Z" fill="#081921"/>
<path d="M274.064 129.908C274.064 129.908 275.335 129.908 276.447 128.637" stroke="#081921" stroke-width="0.4445" stroke-miterlimit="10" stroke-linecap="round" stroke-linejoin="round"/>
<path d="M289.945 118.314C289.945 118.314 298.362 97.9865 273.429 105.927C273.429 105.927 281.052 93.8574 296.933 99.8923C300.585 101.322 303.444 104.498 304.397 108.309C305.826 114.503 298.521 124.508 299.633 130.543C299.633 130.543 294.074 130.702 291.851 123.714C291.533 122.126 289.945 118.314 289.945 118.314Z" fill="#312220"/>
<path d="M294.074 98.9392C294.074 98.9392 273.429 94.1749 267.711 101.321C265.17 104.656 268.029 109.58 272.158 110.532H272.317C272.317 110.532 279.94 111.644 293.121 108.627C295.662 108.15 294.074 98.9392 294.074 98.9392Z" fill="#312220"/>
<path d="M284.544 107.674C284.544 107.674 277.557 116.726 292.008 119.903L297.408 110.85L293.914 103.863L284.544 107.674Z" fill="#312220"/>
<path d="M292.76 124.962C295.45 124.561 297.305 122.056 296.904 119.367C296.503 116.677 293.998 114.822 291.309 115.223C288.62 115.624 286.764 118.129 287.165 120.818C287.566 123.507 290.071 125.363 292.76 124.962Z" fill="#FFAA9E"/>
<path d="M290.58 121.808C290.58 121.808 290.104 118.314 293.598 118.314" stroke="#081921" stroke-width="0.4445" stroke-miterlimit="10" stroke-linecap="round" stroke-linejoin="round"/>
<path d="M287.404 148.489C287.404 148.489 297.091 144.836 308.208 143.248C308.208 143.248 305.826 151.188 295.186 153.888C284.545 156.747 287.404 148.489 287.404 148.489Z" fill="#FFAA9E"/>
</svg>
