<svg width="548" height="339" viewBox="0 0 548 339" fill="none" xmlns="http://www.w3.org/2000/svg">
<g clip-path="url(#clip0)">
<path d="M147.468 47.3964H61.6834C59.9762 47.3964 58.4113 45.9731 58.4113 44.1227C58.4113 42.4148 59.8339 40.8491 61.6834 40.8491H147.468C149.176 40.8491 150.741 42.2724 150.741 44.1227C150.741 45.9731 149.318 47.3964 147.468 47.3964Z" fill="#6F7DE0"/>
<path d="M542.535 293.06H516.501C514.794 293.06 513.229 291.637 513.229 289.787C513.229 288.079 514.652 286.513 516.501 286.513H542.535C544.243 286.513 545.807 287.936 545.807 289.787C545.807 291.637 544.385 293.06 542.535 293.06Z" fill="#FE4777"/>
<path d="M283.615 13.9485H278.494C277.213 13.9485 276.075 12.8099 276.075 11.5289V6.68965C276.075 5.40867 277.213 4.27002 278.494 4.27002H283.615C284.895 4.27002 286.034 5.40867 286.034 6.68965V11.5289C286.034 12.8099 284.895 13.9485 283.615 13.9485Z" fill="#FE4777"/>
<path d="M42.3354 314.552H37.2139C35.9335 314.552 34.7954 313.413 34.7954 312.132V307.293C34.7954 306.012 35.9335 304.874 37.2139 304.874H42.3354C43.6158 304.874 44.7539 306.012 44.7539 307.293V312.132C44.7539 313.413 43.6158 314.552 42.3354 314.552Z" fill="#FE4777"/>
<path d="M541.255 217.198C545.027 217.198 548.084 214.139 548.084 210.366C548.084 206.593 545.027 203.534 541.255 203.534C537.484 203.534 534.427 206.593 534.427 210.366C534.427 214.139 537.484 217.198 541.255 217.198Z" stroke="white" stroke-width="1.8696" stroke-miterlimit="10" stroke-linecap="round" stroke-linejoin="round"/>
<path d="M-7.31468 179.907C-3.46474 179.907 -0.343753 176.721 -0.343753 172.79C-0.343753 168.86 -3.46474 165.674 -7.31468 165.674C-11.1646 165.674 -14.2856 168.86 -14.2856 172.79C-14.2856 176.721 -11.1646 179.907 -7.31468 179.907Z" stroke="white" stroke-width="1.8696" stroke-miterlimit="10" stroke-linecap="round" stroke-linejoin="round"/>
<path d="M477.378 49.2468H513.087" stroke="white" stroke-width="1.8696" stroke-miterlimit="10" stroke-linecap="round" stroke-linejoin="round"/>
<path d="M10.7528 267.298H89.4248" stroke="white" stroke-width="1.8696" stroke-miterlimit="10" stroke-linecap="round" stroke-linejoin="round"/>
<path d="M508.392 134.788H424.03C422.607 134.788 421.469 133.649 421.469 132.226V110.591C421.469 109.168 422.607 108.029 424.03 108.029H508.392C509.815 108.029 510.953 109.168 510.953 110.591V132.226C510.811 133.649 509.672 134.788 508.392 134.788Z" fill="#6F7DE0"/>
<path d="M433.703 117.138H493.597" stroke="white" stroke-width="0.7022" stroke-miterlimit="10"/>
<path d="M433.703 124.255H454.616" stroke="white" stroke-width="0.7022" stroke-miterlimit="10"/>
<path d="M431.285 131.799V141.904L443.804 131.799H431.285Z" fill="#6F7DE0"/>
<path d="M87.0063 151.583H34.2264C29.1049 151.583 24.9792 147.455 24.9792 142.331V93.2272C24.9792 89.3842 28.109 86.2529 31.9501 86.2529H87.0063C90.8474 86.2529 93.9772 89.3842 93.9772 93.2272V144.609C94.1195 148.452 90.9897 151.583 87.0063 151.583Z" fill="#6F7DE0"/>
<path d="M75.3406 124.255L71.215 120.128C70.5037 119.274 69.5078 118.847 68.512 118.847C67.5161 118.847 66.6626 119.274 65.809 119.985L63.5327 122.263C63.3905 122.12 63.2482 122.12 63.106 121.978C62.8214 121.836 62.5369 121.693 62.3946 121.551C60.2607 120.128 58.269 118.277 56.2773 116C55.4237 114.862 54.7124 113.865 54.4279 113.011C54.9969 112.442 55.566 111.873 55.9928 111.446C56.2773 111.161 56.4196 111.019 56.7041 110.734C57.5577 109.88 57.9845 109.026 57.9845 108.03C57.9845 107.033 57.5577 106.179 56.7041 105.325L54.7124 103.333C54.4278 103.048 54.2856 102.906 54.001 102.621C53.5742 102.194 53.0052 101.625 52.5784 101.198C51.8671 100.486 50.8712 100.059 49.8754 100.059C48.8795 100.059 48.026 100.486 47.1724 101.198L44.6116 103.76C43.6158 104.756 43.0467 105.895 42.9045 107.318C42.7622 109.453 43.3313 111.588 43.9003 112.869C45.0384 116.285 46.8879 119.274 49.5909 122.405C52.863 126.248 56.7041 129.379 61.2565 131.514C62.9637 132.368 65.2399 133.222 67.8007 133.507C67.9429 133.507 68.0852 133.507 68.3697 133.507C70.0769 133.507 71.6418 132.795 72.7799 131.657C72.7799 131.657 72.7799 131.657 72.9222 131.514C73.349 131.087 73.7757 130.66 74.2025 130.233C74.4871 129.949 74.9139 129.522 75.1984 129.237C76.9056 127.956 76.9055 125.679 75.3406 124.255ZM73.6335 127.956C73.349 128.241 73.0644 128.525 72.7799 128.81C72.2108 129.237 71.784 129.806 71.3573 130.233C70.6459 130.945 69.7924 131.372 68.6542 131.372C68.512 131.372 68.3697 131.372 68.2274 131.372C66.0935 131.23 63.9595 130.376 62.5369 129.664C58.4112 127.671 54.7124 124.825 51.5826 121.124C49.0218 118.135 47.4569 115.289 46.1765 112.3C45.4652 110.592 45.1807 109.168 45.323 107.745C45.4652 106.891 45.7497 106.179 46.3188 105.61L48.8796 103.048C49.1641 102.763 49.4486 102.479 49.8754 102.479C50.3022 102.479 50.5867 102.763 50.8713 103.048C51.298 103.475 51.7248 103.902 52.1516 104.329C52.4361 104.614 52.5784 104.898 52.8629 105.041L54.8546 107.033C55.1392 107.318 55.4237 107.745 55.4237 108.03C55.4237 108.457 55.1392 108.884 54.8546 109.026C54.5701 109.311 54.4278 109.453 54.1433 109.738C53.432 110.449 52.863 111.019 52.2939 111.588C52.2939 111.588 52.2939 111.588 52.1516 111.73C51.4403 112.442 51.5826 113.154 51.7248 113.581V113.723C52.2939 115.004 53.0052 116.285 54.1433 117.708C56.135 120.27 58.4112 122.263 60.8297 123.828C61.1143 124.113 61.541 124.255 61.8256 124.398C62.1101 124.54 62.3946 124.682 62.5369 124.825L62.6791 124.967C63.3905 125.394 64.1018 125.252 64.6708 124.54L67.2316 121.978C67.5161 121.693 67.8006 121.409 68.2274 121.409C68.6542 121.409 68.9388 121.693 69.2233 121.978L73.3489 126.106C74.3448 126.533 74.3448 127.244 73.6335 127.956Z" fill="white"/>
<path d="M373.254 90.5977H344.7C341.937 90.5977 339.676 88.3358 339.676 85.5712V59.0143C339.676 56.9199 341.351 55.2444 343.444 55.2444H373.171C375.264 55.2444 376.939 56.9199 376.939 59.0143V86.8278C377.023 88.9222 375.348 90.5977 373.254 90.5977Z" fill="#FE4777"/>
<path d="M362.704 70.073C362.704 67.5597 360.694 65.5491 358.182 65.5491C355.67 65.5491 353.66 67.5597 353.66 70.073C353.66 72.5862 355.67 74.5968 358.182 74.5968C360.694 74.5968 362.704 72.5862 362.704 70.073ZM354.833 70.073C354.833 68.2299 356.34 66.6381 358.266 66.6381C360.192 66.6381 361.699 68.1461 361.699 70.073C361.699 71.916 360.192 73.5078 358.266 73.5078C356.34 73.424 354.833 71.916 354.833 70.073Z" fill="white"/>
<path d="M357.763 83.3931C357.931 83.6444 358.266 83.7282 358.517 83.4768C358.601 83.4768 358.601 83.3931 358.601 83.3931C358.684 83.3093 358.852 83.058 359.187 82.5553L362.536 77.3612C364.127 74.6804 365.551 71.832 365.551 69.9889C365.551 65.8839 362.285 62.6167 358.182 62.6167C354.079 62.6167 350.813 65.8839 350.813 69.9889C350.813 71.7482 352.153 74.5128 353.66 77.1099L357.177 82.5553C357.512 83.058 357.68 83.3931 357.763 83.3931ZM358.182 63.7896C361.615 63.7896 364.378 66.5541 364.378 69.9889C364.378 72.6698 360.275 79.1205 358.182 82.0527C356.089 79.1205 351.986 72.6698 351.986 69.9889C351.986 66.6379 354.749 63.7896 358.182 63.7896Z" fill="white"/>
<path d="M249.756 339.033C249.187 337.467 223.011 216.201 215.186 179.48C213.763 173.075 208.642 168.093 202.24 167.097C183.177 164.108 141.636 159.696 100.806 170.513C92.4123 172.79 83.1651 184.604 87.0063 199.121L121.719 339.033H249.756Z" fill="#4C53BB"/>
<path d="M256.443 338.322C255.874 336.756 229.555 214.493 221.588 177.772C220.165 171.367 215.044 166.385 208.642 165.389C189.579 162.4 148.038 157.988 107.208 168.805C98.8143 171.082 93.835 179.622 95.8267 188.02L132.389 338.322H256.443Z" fill="#6F7DE0"/>
<path d="M232.685 124.967C232.685 124.967 205.939 127.244 197.688 147.598C189.436 167.951 197.688 173.075 185.311 180.476C172.934 188.02 145.619 208.658 172.222 249.507L311.499 235.985C310.93 235.416 337.533 187.166 291.155 154.714L232.685 124.967Z" fill="black"/>
<path d="M371.534 188.162L362.856 214.92L386.756 220.756L394.439 194.852L371.534 188.162Z" fill="#FFC4A7"/>
<path d="M370.254 195.136C370.254 195.136 387.326 206.523 392.02 203.107C400.414 197.271 408.665 174.498 408.665 174.498C408.665 174.498 376.371 159.553 376.656 160.123C376.798 160.692 370.254 195.136 370.254 195.136Z" fill="#FFC4A7"/>
<path d="M370.254 195.136C366.697 192.574 365.275 185.742 363.425 166.101C363.283 164.25 364.279 162.542 366.27 162.258C367.551 162.115 369.4 162.4 370.254 164.25L377.509 179.053L370.254 195.136Z" fill="#FFC4A7"/>
<path d="M372.388 174.214L380.07 146.174C380.497 144.324 382.488 143.185 384.48 143.612C386.045 144.039 387.041 145.605 386.756 147.171L382.773 168.236L372.388 174.214Z" fill="#FFC4A7"/>
<path d="M384.48 164.535L393.727 144.751C394.439 143.043 396.573 142.189 398.28 142.901C399.845 143.47 400.556 145.178 399.987 146.744L392.447 169.801L384.48 164.535Z" fill="#FFC4A7"/>
<path d="M392.447 171.225L403.686 152.01C404.682 150.16 407.1 149.59 408.807 150.444C410.515 151.298 411.084 153.291 410.23 155.141L400.983 173.502L392.447 171.225Z" fill="#FFC4A7"/>
<path d="M408.665 174.641L417.343 162.969C418.055 161.546 417.628 159.98 416.205 159.126C414.925 158.415 413.217 158.842 412.222 159.98L400.983 173.36L408.665 174.641Z" fill="#FFC4A7"/>
<path d="M374.095 172.221C374.095 172.221 385.761 171.794 385.903 187.45" stroke="#E5967A" stroke-width="1.0639" stroke-miterlimit="10" stroke-linecap="round" stroke-linejoin="round"/>
<path d="M283.9 204.103C300.829 214.209 337.675 252.78 337.675 252.78L361.291 200.83L400.983 208.088C400.983 208.088 374.664 276.407 361.576 298.042C354.747 309.286 341.801 316.118 326.579 308.29L284.184 282.385L283.9 204.103Z" fill="#FE4777"/>
<path d="M248.049 193.713C248.049 193.713 194.558 197.698 185.026 233.139C175.494 268.579 177.059 338.464 177.059 338.464H305.381L301.398 231.004C301.256 231.146 298.553 195.706 248.049 193.713Z" fill="#FE4777"/>
<path d="M303.674 294.341L300.26 246.518" stroke="#E0225D" stroke-miterlimit="10"/>
<path d="M321.173 338.748L372.957 243.244C373.81 241.678 375.375 240.824 377.083 240.824H499.43C501.99 240.824 503.697 243.529 502.559 245.806L455.612 338.748H321.173Z" fill="#E8F4F6"/>
<path d="M337.391 327.077H240.651V338.748H337.391V327.077Z" fill="#E8F4F6"/>
<path d="M419.619 302.027C425.276 302.027 429.862 297.439 429.862 291.779C429.862 286.119 425.276 281.531 419.619 281.531C413.962 281.531 409.376 286.119 409.376 291.779C409.376 297.439 413.962 302.027 419.619 302.027Z" fill="#DEEEF1"/>
<path d="M265.547 142.474C265.263 152.01 272.661 159.981 284.753 160.265C293.289 160.55 295.992 153.007 296.277 143.47C296.561 133.934 290.017 126.106 281.481 125.821C273.087 125.537 265.974 133.08 265.547 142.474Z" fill="#4040EB"/>
<path d="M300.755 143.658C301.087 134.152 294.482 126.205 286.001 125.908C277.521 125.612 270.377 133.077 270.044 142.583C269.712 152.089 276.317 160.035 284.798 160.332C293.278 160.629 300.423 153.163 300.755 143.658Z" fill="#2A3596"/>
<path d="M254.024 97.7816C255.589 95.0773 253.597 90.0957 253.597 90.0957C238.517 90.0957 225.429 94.935 217.889 108.741C206.793 129.094 214.902 160.407 240.794 170.086C265.69 179.195 252.459 100.486 252.459 100.486L254.024 97.7816Z" fill="black"/>
<path d="M268.251 175.068L266.543 199.549C265.974 208.8 259.999 213.355 250.894 212.785C243.212 212.216 236.099 207.804 235.672 199.976L237.806 160.55L268.251 175.068Z" fill="#FFC4A7"/>
<path d="M267.397 189.585C267.397 189.585 249.472 186.596 237.948 164.535L268.535 172.221L267.397 189.585Z" fill="#E5967A"/>
<path d="M260.426 178.199C275.933 178.768 288.594 167.097 289.021 154.43L289.875 124.54C290.444 108.599 278.351 95.2198 262.418 94.0812C250.467 93.2272 228.843 111.019 228.132 121.266L227.705 145.32C227.563 163.823 245.204 177.63 260.426 178.199Z" fill="#FFC4A7"/>
<path d="M237.448 143.485C237.912 136.82 232.886 131.04 226.224 130.577C219.562 130.113 213.785 135.141 213.322 141.806C212.858 148.472 217.884 154.251 224.546 154.715C231.209 155.178 236.985 150.151 237.448 143.485Z" fill="#FFC4A7"/>
<path d="M229.413 146.601C229.413 146.601 229.982 137.919 221.588 138.631" stroke="#20181F" stroke-width="1.2768" stroke-miterlimit="10" stroke-linecap="round" stroke-linejoin="round"/>
<path d="M272.234 149.733L273.23 157.703L269.104 157.846" stroke="#0C0B0C" stroke-width="1.2768" stroke-miterlimit="10" stroke-linecap="round" stroke-linejoin="round"/>
<path d="M255.304 133.649C255.304 133.649 263.413 132.511 263.271 135.5C263.271 135.5 263.129 137.492 256.016 138.346C248.903 139.2 247.053 138.773 246.626 137.065C246.2 135.215 251.463 133.934 255.304 133.649Z" fill="black"/>
<path d="M281.481 133.934C281.481 133.934 275.079 132.938 274.652 135.642C274.652 135.642 274.51 137.492 280.058 138.204C285.749 138.916 287.456 138.346 287.883 136.923C288.452 135.215 284.611 134.076 281.481 133.934Z" fill="black"/>
<path d="M259.037 145.771C259.083 144.357 257.975 143.173 256.561 143.127C255.148 143.08 253.964 144.189 253.918 145.603C253.872 147.018 254.98 148.202 256.394 148.248C257.807 148.294 258.991 147.185 259.037 145.771Z" fill="black"/>
<path d="M283.181 145.728C283.227 144.313 282.119 143.129 280.705 143.083C279.292 143.037 278.108 144.146 278.062 145.56C278.016 146.974 279.124 148.158 280.538 148.204C281.951 148.251 283.135 147.142 283.181 145.728Z" fill="black"/>
<path d="M257.154 162.4H273.941C273.941 162.4 273.23 168.236 264.409 167.809C258.577 167.382 257.154 162.4 257.154 162.4Z" fill="#F7F7F7"/>
<path d="M226.283 130.66C226.283 130.66 250.61 139.343 267.824 106.891C267.824 106.891 286.46 110.876 290.017 126.106C290.017 126.106 299.691 88.8149 252.459 88.8149L225.429 105.183L226.283 130.66Z" fill="black"/>
<path d="M240.936 209.227L263.698 223.745C263.698 223.745 266.117 207.804 266.686 199.549L240.936 209.227Z" fill="#FFC4A7"/>
<path d="M273.087 91.9462V93.5119C273.087 93.5119 253.597 92.0886 242.785 102.194C230.693 113.438 227.421 130.945 227.421 130.945L223.153 130.518L228.417 102.763L238.233 95.6468L252.886 90.0959L262.702 88.8149L273.087 91.9462Z" fill="#2A3596"/>
<path d="M237.095 143.186C237.379 152.722 229.981 160.693 217.889 160.977C209.353 161.262 206.65 153.718 206.366 144.182C206.081 134.646 212.625 126.818 221.161 126.533C229.555 126.248 236.81 133.65 237.095 143.186Z" fill="#2A3596"/>
<path d="M217.926 160.969C226.407 160.672 233.012 152.726 232.68 143.22C232.347 133.714 225.203 126.249 216.723 126.545C208.242 126.842 201.637 134.789 201.969 144.295C202.302 153.8 209.446 161.266 217.926 160.969Z" fill="#4C53BB"/>
<path d="M217.32 128.81C217.32 128.81 217.605 118.42 222.015 107.745C227.563 94.2235 240.651 86.2529 255.162 86.2529C256.3 86.2529 257.438 86.2529 258.719 86.3953C262.987 86.5376 267.397 87.5339 270.669 89.9536C271.523 90.5229 272.376 91.2345 272.945 92.0885C272.945 92.0885 254.166 89.5266 243.497 97.7818C231.404 107.176 225.998 121.836 224.86 131.941L217.32 128.81Z" fill="#4C53BB"/>
<path d="M230.124 155.995C230.124 155.995 235.53 162.827 245.204 161.546" stroke="#0C0B0C" stroke-width="1.2768" stroke-miterlimit="10" stroke-linecap="round" stroke-linejoin="round"/>
<path d="M245.915 162.685C246.858 162.685 247.622 161.92 247.622 160.977C247.622 160.033 246.858 159.269 245.915 159.269C244.972 159.269 244.208 160.033 244.208 160.977C244.208 161.92 244.972 162.685 245.915 162.685Z" fill="#0C0B0C"/>
<path d="M263.983 321.384L239.229 317.968L239.94 338.749H259.146L263.983 321.384Z" fill="#FFC4A7"/>
<path d="M261.137 321.1C260.426 320.815 314.486 298.042 310.361 338.749H256.158L261.137 321.1Z" fill="#FFC4A7"/>
<path d="M165.963 302.312L245.631 304.731L244.066 339.176L161.268 338.606C149.46 337.041 142.347 324.8 146.615 313.698C149.887 306.012 157.711 301.173 165.963 302.312Z" fill="#FE4777"/>
<path d="M244.208 318.395L245.631 304.589L199.964 303.166L222.299 257.762" stroke="#E0225D" stroke-miterlimit="10"/>
<path d="M201.386 303.166L177.059 302.881" stroke="#E0225D" stroke-miterlimit="10"/>
<path d="M227.848 237.693C227.848 237.693 207.504 288.79 178.482 329.924C175.21 334.479 166.105 336.898 160.557 336.614C147.895 336.044 142.489 322.38 147.184 311.136C147.184 311.136 170.515 237.551 197.119 213.639C197.83 213.07 227.848 237.693 227.848 237.693Z" fill="#FE4777"/>
</g>
<defs>
<clipPath id="clip0">
<rect width="548" height="339" fill="white"/>
</clipPath>
</defs>
</svg>
