<svg width="179" height="58" viewBox="0 0 179 58" fill="none" xmlns="http://www.w3.org/2000/svg">
<path d="M73.6701 58H19.2691C8.66134 58 0 49.4181 0 38.8595V0H52.0654C63.9869 0 73.6701 9.59435 73.6701 21.4065V58ZM2.72492 2.69992V38.8595C2.72492 47.8753 10.1698 55.2519 19.2691 55.2519H70.8965V21.4065C70.8965 11.1372 62.4298 2.74813 52.0654 2.74813H2.72492V2.69992Z" fill="#2D6F7F"/>
<path d="M49.3446 47.125H18.3754C12.9131 47.125 8.5238 42.7788 8.5238 37.4774V37.2864C8.5238 31.9373 12.9619 27.5911 18.4242 27.5911H55.3922C59.2938 27.5911 62.4639 24.4867 62.4639 20.6658V20.5226C62.4639 16.7017 59.2938 13.5973 55.3922 13.5973H11.1574C10.4258 13.5973 9.79183 13.0242 9.79183 12.26V12.2123C9.79183 11.4959 10.3771 10.875 11.1574 10.875H55.3434C60.7569 10.875 65.1462 15.1734 65.1462 20.4748V20.6181C65.1462 25.4419 61.4885 29.4537 56.709 30.1224V39.8177C56.7577 43.8773 53.4414 47.125 49.3446 47.125ZM18.4242 30.2656C14.4738 30.2656 11.2549 33.4178 11.2549 37.2864V37.4774C11.2549 41.346 14.4738 44.4982 18.4242 44.4982H49.3446C51.9295 44.4982 53.9778 42.4445 53.9778 39.961V30.2656H18.4242Z" fill="#2D6F7F"/>
<path d="M35.4548 36.25H40.6506C41.4275 36.25 42.0102 35.5487 42.0102 34.7395C42.0102 33.9304 41.3789 33.2291 40.6506 33.2291H35.4548C34.6779 33.2291 34.0952 33.9304 34.0952 34.7395C34.0952 35.5487 34.7265 36.25 35.4548 36.25Z" fill="url(#paint0_linear)"/>
<path d="M26.3223 36.25H31.518C32.2949 36.25 32.8776 35.5487 32.8776 34.7395C32.8776 33.9304 32.2464 33.2291 31.518 33.2291H26.3223C25.5453 33.2291 24.9626 33.9304 24.9626 34.7395C24.9626 35.5487 25.5939 36.25 26.3223 36.25Z" fill="url(#paint1_linear)"/>
<path d="M52.8753 36.671C52.6811 35.9684 51.9526 35.5468 51.2241 35.6873C50.4956 35.8747 50.0585 36.5305 50.2042 37.2799C50.2042 37.3267 50.3014 37.9825 49.8643 38.4977C49.2329 39.2003 47.8245 39.6219 45.7847 39.6219H20.5306C18.5394 39.6219 17.0824 39.2471 16.4996 38.4977C16.014 37.9356 16.1597 37.3267 16.1597 37.2799C16.3054 36.5773 15.8683 35.8747 15.1398 35.6873C14.4113 35.5 13.6828 35.9684 13.4886 36.671C13.44 36.8583 13.0515 38.5914 14.3142 40.1371C14.7998 40.746 15.4312 41.2144 16.2568 41.5423C17.3738 42.0575 18.8308 42.2917 20.5306 42.2917H45.8333C47.5817 42.2917 48.9901 42.0575 50.1071 41.5423C50.9327 41.2144 51.5641 40.746 52.0497 40.1371C53.3124 38.5914 52.9239 36.8583 52.8753 36.671Z" fill="url(#paint2_linear)"/>
<path d="M52.8367 16.3125H16.5714C15.7998 16.3125 15.2211 16.8735 15.2211 17.5208C15.2211 18.1682 15.848 18.7292 16.5714 18.7292H52.8367C53.6083 18.7292 54.1871 18.1682 54.1871 17.5208C54.1871 16.8735 53.6083 16.3125 52.8367 16.3125Z" fill="url(#paint3_linear)"/>
<path d="M52.2706 22.3541H29.3629C28.588 22.3541 28.0068 22.9151 28.0068 23.5625C28.0068 24.2098 28.6364 24.7708 29.3629 24.7708H52.2222C52.9971 24.7708 53.5783 24.2098 53.5783 23.5625C53.5783 22.9151 52.9971 22.3541 52.2706 22.3541Z" fill="url(#paint4_linear)"/>
<path d="M24.7886 22.3541H20.2658C19.4706 22.3541 18.8741 22.9151 18.8741 23.5625C18.8741 24.2098 19.5203 24.7708 20.2658 24.7708H24.7886C25.5838 24.7708 26.1803 24.2098 26.1803 23.5625C26.1803 22.9151 25.5838 22.3541 24.7886 22.3541Z" fill="url(#paint5_linear)"/>
<path d="M110.14 28.8186C110.262 28.9395 110.322 29.0603 110.322 29.2415C110.322 29.4228 110.262 29.5436 110.14 29.6645C110.018 29.7853 109.896 29.8457 109.714 29.8457H107.461C106.548 29.8457 105.695 29.6645 104.843 29.3624C103.99 28.9999 103.26 28.5165 102.651 27.9124C102.286 27.5499 101.981 27.1874 101.738 26.7645C101.494 26.3415 101.251 25.9186 101.068 25.4353C100.703 26.2207 100.155 26.8853 99.5459 27.5499C98.7544 28.2749 97.902 28.879 96.9279 29.2415C95.9537 29.6645 94.9187 29.8457 93.8837 29.8457C92.8486 29.8457 91.8136 29.6645 90.8394 29.2415C89.8653 28.8186 89.0129 28.2749 88.2214 27.5499C87.4908 26.7645 86.882 25.9186 86.4558 24.952C86.0296 23.9853 85.8469 22.9582 85.8469 21.9311C85.8469 20.8436 86.0296 19.877 86.4558 18.9103C86.882 17.9436 87.4299 17.0978 88.2214 16.3728C88.952 15.5874 89.8653 15.0436 90.8394 14.6207C91.8136 14.1978 92.8486 14.0165 93.8837 14.0165C94.9796 14.0165 95.9537 14.1978 96.9279 14.6207C97.902 15.0436 98.7544 15.5874 99.5459 16.3728C99.9721 16.7957 100.337 17.2186 100.642 17.7624V14.6207C100.642 14.4395 100.703 14.3186 100.824 14.1978C100.946 14.077 101.068 14.0165 101.251 14.0165C101.433 14.0165 101.555 14.077 101.677 14.1978C101.799 14.3186 101.86 14.4395 101.86 14.6207V23.1395C101.86 23.9249 101.981 24.5895 102.286 25.254C102.59 25.9186 102.955 26.5228 103.503 27.0061C103.99 27.4895 104.599 27.9124 105.269 28.2145C105.939 28.5165 106.669 28.6374 107.461 28.6374H109.714C109.896 28.6978 110.018 28.7582 110.14 28.8186ZM96.5017 28.154C97.3541 27.7915 98.0238 27.3082 98.6326 26.704C99.2415 26.0999 99.7286 25.3749 100.094 24.5895C100.459 23.7436 100.642 22.8978 100.642 21.9915C100.642 21.0853 100.459 20.179 100.094 19.3936C99.7286 18.6082 99.2415 17.8832 98.6326 17.279C98.0238 16.6749 97.2932 16.1915 96.5017 15.829C95.6493 15.4665 94.7969 15.2853 93.8837 15.2853C92.9704 15.2853 92.0571 15.4665 91.2656 15.829C90.4741 16.1915 89.7435 16.6749 89.1347 17.279C88.5258 17.8832 88.0388 18.6082 87.6735 19.3936C87.3081 20.2395 87.1255 21.0853 87.1255 21.9915C87.1255 22.8978 87.3081 23.804 87.6735 24.5895C88.0388 25.4353 88.5258 26.0999 89.1347 26.704C89.7435 27.3082 90.4741 27.7915 91.2656 28.154C92.0571 28.5165 92.9704 28.6978 93.8837 28.6978C94.7969 28.6374 95.7102 28.4561 96.5017 28.154ZM90.2306 12.0832C90.2915 12.2645 90.4133 12.4457 90.5959 12.627C90.7177 12.7478 90.9003 12.8686 91.1439 12.9895C91.3265 13.0499 91.5701 13.1103 91.8136 13.1103C92.0571 13.1103 92.2398 13.0499 92.4833 12.9895C92.666 12.929 92.8486 12.8082 93.0313 12.627C93.153 12.5061 93.2748 12.3249 93.3966 12.0832C93.4575 11.902 93.5184 11.6603 93.5184 11.4186C93.5184 11.177 93.4575 10.9957 93.3966 10.754C93.3357 10.5728 93.2139 10.3915 93.0313 10.2103C92.9095 10.0895 92.7269 9.96863 92.4833 9.84779C92.3007 9.78738 92.0571 9.72695 91.8136 9.72695C91.5701 9.72695 91.3874 9.78738 91.1439 9.84779C90.9612 9.90821 90.7786 10.029 90.5959 10.2103C90.4741 10.3311 90.3524 10.5124 90.2306 10.754C90.1697 10.9353 90.1088 11.177 90.1088 11.4186C90.1088 11.6603 90.1697 11.8415 90.2306 12.0832ZM94.4925 12.0832C94.5534 12.2645 94.6752 12.4457 94.8578 12.627C94.9796 12.7478 95.1622 12.8686 95.4058 12.9895C95.5884 13.0499 95.832 13.1103 96.0755 13.1103C96.319 13.1103 96.5017 13.0499 96.7452 12.9895C96.9279 12.929 97.1105 12.8082 97.2932 12.627C97.415 12.5061 97.5367 12.3249 97.6585 12.0832C97.7194 11.902 97.7803 11.6603 97.7803 11.4186C97.7803 11.177 97.7194 10.9957 97.6585 10.754C97.5976 10.5728 97.4758 10.3915 97.2932 10.2103C97.1714 10.0895 96.9888 9.96863 96.7452 9.84779C96.5626 9.78738 96.319 9.72695 96.0755 9.72695C95.832 9.72695 95.6493 9.78738 95.4058 9.84779C95.2231 9.90821 95.0405 10.029 94.8578 10.2103C94.736 10.3311 94.6143 10.5124 94.4925 10.754C94.4316 10.9353 94.3707 11.177 94.3707 11.4186C94.3707 11.6603 94.4316 11.8415 94.4925 12.0832Z" fill="#2D6F7F"/>
<path d="M118.603 29.9062H109.47C109.287 29.9062 109.166 29.8458 109.044 29.7249C108.922 29.6041 108.861 29.4833 108.861 29.302C108.861 29.1208 108.922 28.9999 109.044 28.8791C109.166 28.7583 109.287 28.6978 109.47 28.6978H118.603C118.968 28.6978 119.272 28.6374 119.577 28.5166C119.881 28.3958 120.125 28.2145 120.368 27.9729C120.612 27.7312 120.795 27.4895 120.916 27.1874C121.038 26.8853 121.099 26.5833 121.099 26.2208V14.6208C121.099 14.4395 121.16 14.3187 121.282 14.1978C121.403 14.077 121.525 14.0166 121.708 14.0166C121.89 14.0166 122.012 14.077 122.134 14.1978C122.256 14.3187 122.317 14.4395 122.317 14.6208V26.2208C122.317 26.7041 122.195 27.1874 122.012 27.6708C121.83 28.0937 121.525 28.5166 121.221 28.8187C120.916 29.1208 120.49 29.4228 120.064 29.6041C119.577 29.7854 119.09 29.9062 118.603 29.9062ZM111.905 32.5041C111.905 32.2624 111.966 32.0812 112.027 31.8395C112.088 31.6583 112.21 31.477 112.393 31.2958C112.514 31.1749 112.697 31.0541 112.94 30.9333C113.123 30.8728 113.367 30.8124 113.61 30.8124C113.854 30.8124 114.036 30.8728 114.28 30.9333C114.463 30.9937 114.645 31.1145 114.828 31.2958C114.95 31.4166 115.071 31.5978 115.193 31.8395C115.254 32.0208 115.315 32.2624 115.315 32.5041C115.315 32.7458 115.254 32.927 115.193 33.1687C115.132 33.3499 115.011 33.5312 114.828 33.7124C114.706 33.8333 114.523 33.9541 114.28 34.0749C114.097 34.1353 113.854 34.1958 113.61 34.1958C113.367 34.1958 113.184 34.1353 112.94 34.0749C112.758 34.0145 112.575 33.8937 112.393 33.7124C112.271 33.5916 112.149 33.4103 112.027 33.1687C111.966 32.927 111.905 32.7458 111.905 32.5041ZM116.167 32.5041C116.167 32.2624 116.228 32.0812 116.289 31.8395C116.35 31.6583 116.472 31.477 116.654 31.2958C116.776 31.1749 116.959 31.0541 117.202 30.9333C117.385 30.8728 117.629 30.8124 117.872 30.8124C118.116 30.8124 118.298 30.8728 118.542 30.9333C118.725 30.9937 118.907 31.1145 119.09 31.2958C119.212 31.4166 119.333 31.5978 119.455 31.8395C119.516 32.0208 119.577 32.2624 119.577 32.5041C119.577 32.7458 119.516 32.927 119.455 33.1687C119.394 33.3499 119.272 33.5312 119.09 33.7124C118.968 33.8333 118.785 33.9541 118.542 34.0749C118.359 34.1353 118.116 34.1958 117.872 34.1958C117.629 34.1958 117.446 34.1353 117.202 34.0749C117.02 34.0145 116.837 33.8937 116.654 33.7124C116.533 33.5916 116.411 33.4103 116.289 33.1687C116.228 32.927 116.167 32.7458 116.167 32.5041Z" fill="#2D6F7F"/>
<path d="M145.087 28.6978C145.27 28.6978 145.392 28.7582 145.514 28.8791C145.635 28.9999 145.696 29.1207 145.696 29.302C145.696 29.4832 145.635 29.6041 145.514 29.7249C145.392 29.8457 145.27 29.9062 145.087 29.9062H138.207L137.842 30.2686C136.746 31.3561 135.468 32.202 134.067 32.8062C132.606 33.4103 131.084 33.7728 129.44 33.7728C128.831 33.7728 128.162 33.7124 127.553 33.652C126.944 33.5312 126.335 33.4103 125.726 33.2291C125.544 33.1687 125.422 33.1082 125.361 32.927C125.3 32.8062 125.3 32.6249 125.3 32.4437C125.361 32.2624 125.483 32.1416 125.604 32.0811C125.726 32.0207 125.909 32.0207 126.092 32.0207C127.127 32.3832 128.283 32.5645 129.44 32.5645C130.78 32.5645 132.058 32.3228 133.215 31.8999C134.372 31.4166 135.468 30.8124 136.381 29.9666H133.276C132.18 29.9666 131.206 29.7853 130.232 29.3624C129.257 28.9395 128.405 28.3957 127.675 27.6707C126.883 26.8853 126.335 26.0395 125.909 25.0728C125.483 24.1062 125.3 23.0791 125.3 22.052C125.3 20.9645 125.483 19.9978 125.909 19.0312C126.335 18.0645 126.883 17.2187 127.675 16.4937C128.405 15.7082 129.257 15.1645 130.232 14.7416C131.206 14.3186 132.241 14.1374 133.276 14.1374C134.372 14.1374 135.346 14.3186 136.32 14.7416C137.294 15.1645 138.147 15.7082 138.938 16.4937C139.669 17.2187 140.278 18.1249 140.643 19.0312C141.069 19.9978 141.252 21.0249 141.252 22.052C141.252 22.8374 141.191 23.6228 141.008 24.4082C140.886 25.1937 140.643 25.9186 140.338 26.6436C140.034 27.4291 139.608 28.0936 139.121 28.7582H145.087V28.6978ZM137.66 28.6978C138.451 27.7916 138.999 26.7645 139.425 25.6166C139.851 24.4686 140.034 23.2603 140.034 21.9916C140.034 21.0853 139.851 20.1791 139.486 19.3936C139.121 18.5478 138.634 17.8832 138.025 17.2791C137.416 16.6749 136.685 16.1916 135.894 15.8291C135.042 15.4666 134.189 15.2853 133.276 15.2853C132.363 15.2853 131.449 15.4666 130.658 15.8291C129.805 16.1916 129.136 16.6749 128.527 17.2791C127.918 17.8832 127.431 18.6082 127.066 19.3936C126.7 20.2395 126.518 21.0853 126.518 21.9916C126.518 22.8978 126.7 23.8041 127.066 24.5895C127.431 25.4353 127.918 26.0999 128.527 26.7041C129.136 27.3082 129.866 27.7916 130.658 28.1541C131.51 28.5166 132.363 28.6978 133.276 28.6978H137.66Z" fill="#2D6F7F"/>
<path d="M163.414 28.8791C163.535 29 163.596 29.1208 163.596 29.302C163.596 29.4833 163.535 29.6041 163.414 29.725C163.292 29.8458 163.17 29.9062 162.987 29.9062H144.844C144.661 29.9062 144.539 29.8458 144.418 29.725C144.296 29.6041 144.235 29.4833 144.235 29.302C144.235 29.1208 144.296 29 144.418 28.8791C144.539 28.7583 144.661 28.6979 144.844 28.6979H149.654C149.167 28.3958 148.68 28.0333 148.253 27.6104C147.523 26.8854 146.914 25.9791 146.549 25.0125C146.122 24.0458 145.94 23.0187 145.94 21.9916C145.94 20.9645 146.122 19.9375 146.549 18.9708C146.975 18.0041 147.523 17.1583 148.253 16.3729C149.045 15.6479 149.897 15.0437 150.871 14.6812C151.846 14.2583 152.881 14.077 153.916 14.077C155.012 14.077 155.986 14.2583 156.96 14.6812C157.934 15.1041 158.786 15.6479 159.578 16.3729C160.308 17.1583 160.917 18.0041 161.344 18.9708C161.77 19.9375 161.952 20.9645 161.952 21.9916C161.952 23.0791 161.77 24.0458 161.344 25.0125C160.917 25.9791 160.369 26.825 159.578 27.6104C159.395 27.7916 159.152 28.0333 158.908 28.2145C158.665 28.3958 158.421 28.577 158.178 28.6979H162.987C163.109 28.6979 163.292 28.7583 163.414 28.8791ZM147.645 24.5291C148.01 25.3145 148.436 26.0395 149.045 26.6437C149.654 27.2479 150.323 27.7312 151.115 28.0937C151.906 28.4562 152.759 28.6375 153.672 28.6375H153.977C154.89 28.6375 155.742 28.4562 156.534 28.0937C157.325 27.7312 158.056 27.2479 158.665 26.6437C159.273 26.0395 159.761 25.3145 160.065 24.5291C160.43 23.7437 160.613 22.8979 160.613 21.9312C160.613 21.025 160.43 20.1187 160.065 19.3333C159.7 18.5479 159.213 17.8229 158.604 17.2187C157.995 16.6145 157.264 16.1312 156.473 15.7687C155.62 15.4062 154.768 15.225 153.855 15.225C152.941 15.225 152.028 15.4062 151.237 15.7687C150.384 16.1312 149.715 16.6145 149.106 17.2187C148.497 17.8229 148.01 18.5479 147.645 19.3333C147.279 20.1187 147.097 21.025 147.097 21.9312C147.097 22.8979 147.279 23.7437 147.645 24.5291ZM149.958 12.0229C150.019 12.2041 150.141 12.3854 150.323 12.5666C150.445 12.6875 150.628 12.8083 150.871 12.9291C151.054 12.9895 151.298 13.05 151.541 13.05C151.785 13.05 151.967 12.9895 152.211 12.9291C152.394 12.8687 152.576 12.7479 152.759 12.5666C152.881 12.4458 153.002 12.2645 153.124 12.0229C153.185 11.8416 153.246 11.6 153.246 11.3583C153.246 11.1166 153.185 10.9354 153.124 10.6937C153.063 10.5125 152.941 10.3312 152.759 10.15C152.637 10.0291 152.454 9.90829 152.211 9.78746C152.028 9.72704 151.785 9.66663 151.541 9.66663C151.298 9.66663 151.115 9.72704 150.871 9.78746C150.689 9.84787 150.506 9.96871 150.323 10.15C150.202 10.2708 150.08 10.452 149.958 10.6937C149.897 10.875 149.836 11.1166 149.836 11.3583C149.836 11.6 149.897 11.8416 149.958 12.0229ZM154.707 12.0229C154.768 12.2041 154.89 12.3854 155.072 12.5666C155.194 12.6875 155.377 12.8083 155.62 12.9291C155.803 12.9895 156.047 13.05 156.29 13.05C156.534 13.05 156.716 12.9895 156.96 12.9291C157.143 12.8687 157.325 12.7479 157.508 12.5666C157.63 12.4458 157.751 12.2645 157.873 12.0229C157.934 11.8416 157.995 11.6 157.995 11.3583C157.995 11.1166 157.934 10.9354 157.873 10.6937C157.812 10.5125 157.69 10.3312 157.508 10.15C157.386 10.0291 157.203 9.90829 156.96 9.78746C156.777 9.72704 156.534 9.66663 156.29 9.66663C156.047 9.66663 155.864 9.72704 155.62 9.78746C155.438 9.84787 155.255 9.96871 155.072 10.15C154.951 10.2708 154.829 10.452 154.707 10.6937C154.646 10.875 154.585 11.1166 154.585 11.3583C154.585 11.6 154.646 11.8416 154.707 12.0229Z" fill="#2D6F7F"/>
<path d="M172.424 29.9062H162.683C162.5 29.9062 162.379 29.8458 162.257 29.725C162.135 29.6041 162.074 29.4833 162.074 29.302C162.074 29.1208 162.135 29 162.257 28.8791C162.379 28.7583 162.5 28.6979 162.683 28.6979H172.424C172.79 28.6979 173.094 28.6375 173.399 28.5166C173.703 28.3958 173.947 28.2145 174.19 27.9729C174.434 27.7312 174.616 27.4895 174.738 27.1875C174.86 26.8854 174.921 26.5833 174.921 26.2208V14.6208C174.921 14.4395 174.982 14.3187 175.103 14.1979C175.225 14.077 175.347 14.0166 175.53 14.0166C175.712 14.0166 175.834 14.077 175.956 14.1979C176.078 14.3187 176.138 14.4395 176.138 14.6208V26.2208C176.138 26.7041 176.017 27.1875 175.834 27.6708C175.651 28.0937 175.347 28.5166 175.042 28.8187C174.738 29.1208 174.312 29.4229 173.886 29.6041C173.399 29.7854 172.912 29.9062 172.424 29.9062ZM165.118 11.3583C165.118 11.1166 165.179 10.9354 165.24 10.6937C165.301 10.5125 165.423 10.3312 165.605 10.15C165.727 10.0291 165.91 9.90829 166.153 9.78746C166.336 9.72704 166.58 9.66663 166.823 9.66663C167.067 9.66663 167.249 9.72704 167.493 9.78746C167.675 9.84787 167.858 9.96871 168.041 10.15C168.163 10.2708 168.284 10.452 168.406 10.6937C168.467 10.875 168.528 11.1166 168.528 11.3583C168.528 11.6 168.467 11.7812 168.406 12.0229C168.345 12.2041 168.223 12.3854 168.041 12.5666C167.919 12.6875 167.736 12.8083 167.493 12.9291C167.31 12.9895 167.067 13.05 166.823 13.05C166.58 13.05 166.397 12.9895 166.153 12.9291C165.971 12.8687 165.788 12.7479 165.605 12.5666C165.484 12.4458 165.362 12.2645 165.24 12.0229C165.179 11.8416 165.118 11.6 165.118 11.3583ZM169.441 11.3583C169.441 11.1166 169.502 10.9354 169.563 10.6937C169.624 10.5125 169.746 10.3312 169.928 10.15C170.111 9.96871 170.233 9.90829 170.476 9.78746C170.659 9.72704 170.902 9.66663 171.146 9.66663C171.389 9.66663 171.572 9.72704 171.816 9.78746C171.998 9.84787 172.181 9.96871 172.364 10.15C172.485 10.2708 172.607 10.452 172.729 10.6937C172.79 10.875 172.851 11.1166 172.851 11.3583C172.851 11.6 172.79 11.7812 172.729 12.0229C172.668 12.2041 172.546 12.3854 172.364 12.5666C172.242 12.6875 172.059 12.8083 171.816 12.9291C171.633 12.9895 171.389 13.05 171.146 13.05C170.902 13.05 170.72 12.9895 170.476 12.9291C170.293 12.8687 170.111 12.7479 169.928 12.5666C169.806 12.4458 169.685 12.2645 169.563 12.0229C169.441 11.8416 169.441 11.6 169.441 11.3583Z" fill="#2D6F7F"/>
<path d="M90.1089 48.0311H88.4041V41.627H86.0296V40.2374H92.4833V41.627H90.1089V48.0311Z" fill="#2D6F7F"/>
<path d="M100.155 48.0312H98.3891L101.19 40.177H103.077L105.878 48.0312H104.112L103.625 46.4H100.764L100.155 48.0312ZM101.19 45.0708H103.199L102.225 41.9895L101.19 45.0708Z" fill="#2D6F7F"/>
<path d="M115.376 48.0311H113.732V40.2374H115.376V43.379L118.42 40.2374H120.551L117.324 43.4395L120.734 48.0311H118.603L116.167 44.6478L115.376 45.4332V48.0311Z" fill="#2D6F7F"/>
<path d="M127.492 40.2374H129.257C130.293 44.527 130.353 45.0707 130.536 45.977C130.658 45.1311 130.78 44.3457 131.632 40.2374H133.398C134.311 44.527 134.372 44.9499 134.554 45.977C134.676 45.252 134.798 44.5874 135.833 40.2374H137.477L135.285 48.0915H133.702C132.911 44.2249 132.728 43.4999 132.484 41.9895C132.241 43.4999 132.119 44.0436 131.267 48.0915H129.745L127.492 40.2374Z" fill="#2D6F7F"/>
<path d="M150.932 41.627H146.731V43.2582H150.628V44.6478H146.731V46.6415H151.115V48.0311H145.148V40.2374H150.932V41.627Z" fill="#2D6F7F"/>
<path d="M162.805 48.0311H161.161V45.0707L158.421 40.2374H160.369L162.013 43.6207L163.535 40.2374H165.423L162.805 45.1311V48.0311Z" fill="#2D6F7F"/>
<path d="M172.912 48.0312H171.146L173.947 40.177H175.834L178.635 48.0312H176.869L176.382 46.4H173.459L172.912 48.0312ZM173.947 45.0708H175.956L174.982 41.9895L173.947 45.0708Z" fill="#2D6F7F"/>
<defs>
<linearGradient id="paint0_linear" x1="34.0952" y1="34.7395" x2="42.0102" y2="34.7395" gradientUnits="userSpaceOnUse">
<stop stop-color="#55D8C1"/>
<stop offset="1" stop-color="#1DF7C2"/>
</linearGradient>
<linearGradient id="paint1_linear" x1="24.9626" y1="34.7395" x2="32.8776" y2="34.7395" gradientUnits="userSpaceOnUse">
<stop stop-color="#55D8C1"/>
<stop offset="1" stop-color="#1DF7C2"/>
</linearGradient>
<linearGradient id="paint2_linear" x1="13.3945" y1="38.9688" x2="52.9694" y2="38.9688" gradientUnits="userSpaceOnUse">
<stop stop-color="#55D8C1"/>
<stop offset="1" stop-color="#1DF7C2"/>
</linearGradient>
<linearGradient id="paint3_linear" x1="15.2211" y1="17.5208" x2="54.1871" y2="17.5208" gradientUnits="userSpaceOnUse">
<stop stop-color="#55D8C1"/>
<stop offset="1" stop-color="#1DF7C2"/>
</linearGradient>
<linearGradient id="paint4_linear" x1="28.0068" y1="23.5625" x2="53.5783" y2="23.5625" gradientUnits="userSpaceOnUse">
<stop stop-color="#55D8C1"/>
<stop offset="1" stop-color="#1DF7C2"/>
</linearGradient>
<linearGradient id="paint5_linear" x1="18.8741" y1="23.5625" x2="26.1803" y2="23.5625" gradientUnits="userSpaceOnUse">
<stop stop-color="#55D8C1"/>
<stop offset="1" stop-color="#1DF7C2"/>
</linearGradient>
</defs>
</svg>
