<svg width="620" height="371" viewBox="0 0 620 371" fill="none" xmlns="http://www.w3.org/2000/svg">
<g clip-path="url(#clip0)">
<path d="M88.0801 84.6072H506.88" stroke="white" stroke-width="1.4363" stroke-miterlimit="10"/>
<path d="M501.381 315.345H93.579C90.5349 315.345 88.0801 312.9 88.0801 309.868V62.6974C88.0801 59.6653 90.5349 57.22 93.579 57.22H501.381C504.425 57.22 506.88 59.6653 506.88 62.6974V309.868C506.88 312.9 504.425 315.345 501.381 315.345Z" stroke="white" stroke-width="1.4363" stroke-miterlimit="10"/>
<path d="M111.843 75.0216C113.958 75.0216 115.673 73.3138 115.673 71.207C115.673 69.1002 113.958 67.3923 111.843 67.3923C109.728 67.3923 108.014 69.1002 108.014 71.207C108.014 73.3138 109.728 75.0216 111.843 75.0216Z" stroke="white" stroke-width="1.4363" stroke-miterlimit="10"/>
<path d="M126.769 75.0216C128.884 75.0216 130.599 73.3138 130.599 71.207C130.599 69.1002 128.884 67.3923 126.769 67.3923C124.654 67.3923 122.939 69.1002 122.939 71.207C122.939 73.3138 124.654 75.0216 126.769 75.0216Z" stroke="white" stroke-width="1.4363" stroke-miterlimit="10"/>
<path d="M141.695 75.0216C143.81 75.0216 145.524 73.3138 145.524 71.207C145.524 69.1002 143.81 67.3923 141.695 67.3923C139.58 67.3923 137.865 69.1002 137.865 71.207C137.865 73.3138 139.58 75.0216 141.695 75.0216Z" stroke="white" stroke-width="1.4363" stroke-miterlimit="10"/>
<path d="M97.0155 232.499H14.5321C11.9791 232.499 9.91699 230.445 9.91699 227.902V181.539C9.91699 178.996 11.9791 176.942 14.5321 176.942H97.0155C99.5686 176.942 101.631 178.996 101.631 181.539V227.902C101.729 230.445 99.5686 232.499 97.0155 232.499Z" fill="#FADFE1"/>
<path d="M97.0155 232.499H14.5321C11.9791 232.499 9.91699 230.445 9.91699 227.902V181.539C9.91699 178.996 11.9791 176.942 14.5321 176.942H97.0155C99.5686 176.942 101.631 178.996 101.631 181.539V227.902C101.729 230.445 99.5686 232.499 97.0155 232.499Z" stroke="white" stroke-width="1.4363" stroke-miterlimit="10"/>
<path d="M582.98 215.968H470.253C467.504 215.968 465.245 213.719 465.245 210.98V132.242C465.245 129.503 467.504 127.253 470.253 127.253H582.98C585.73 127.253 587.988 129.503 587.988 132.242V210.98C587.988 213.719 585.828 215.968 582.98 215.968Z" fill="#FADFE1"/>
<path d="M582.98 215.968H470.253C467.504 215.968 465.245 213.719 465.245 210.98V132.242C465.245 129.503 467.504 127.253 470.253 127.253H582.98C585.73 127.253 587.988 129.503 587.988 132.242V210.98C587.988 213.719 585.828 215.968 582.98 215.968Z" stroke="white" stroke-width="1.4363" stroke-miterlimit="10"/>
<path d="M397.884 121.091H331.701C330.621 121.091 329.639 120.211 329.639 119.037V102.702C329.639 101.627 330.522 100.648 331.701 100.648H397.884C398.964 100.648 399.946 101.529 399.946 102.702V119.135C399.848 120.211 398.964 121.091 397.884 121.091Z" fill="#F36867"/>
<path d="M339.36 107.984H386.592" stroke="white" stroke-width="0.8101" stroke-miterlimit="10"/>
<path d="M339.36 112.875H358.901" stroke="white" stroke-width="0.8101" stroke-miterlimit="10"/>
<path d="M337.396 118.744V126.764L347.51 118.744H337.396Z" fill="#F36867"/>
<path d="M108.603 33.6473H19.737C17.8714 33.6473 16.3984 32.1801 16.3984 30.3217C16.3984 28.4633 17.8714 26.9961 19.737 26.9961H108.603C110.469 26.9961 111.942 28.4633 111.942 30.3217C111.942 32.1801 110.469 33.6473 108.603 33.6473Z" fill="#F6BDBC"/>
<path d="M616.661 290.208H547.041C545.175 290.208 543.702 288.74 543.702 286.882C543.702 285.024 545.175 283.556 547.041 283.556H616.661C618.527 283.556 619.999 285.024 619.999 286.882C619.999 288.74 618.527 290.208 616.661 290.208Z" fill="#FCEEEF"/>
<path d="M312.455 14.6718H304.697C302.635 14.6718 300.966 13.009 300.966 10.9549V3.71685C300.966 1.6628 302.635 0 304.697 0H312.455C314.517 0 316.186 1.6628 316.186 3.71685V10.9549C316.186 13.009 314.517 14.6718 312.455 14.6718Z" fill="#F6BDBC"/>
<path d="M16.8891 293.631H6.57867C3.92742 293.631 1.66895 291.479 1.66895 288.74V279.155C1.66895 276.514 3.82922 274.264 6.57867 274.264H16.7909C19.4421 274.264 21.7006 276.416 21.7006 279.155V288.74C21.7006 291.479 19.5403 293.631 16.8891 293.631Z" fill="#FCEEEF"/>
<path d="M551.46 80.597H544.095C542.131 80.597 540.658 79.032 540.658 77.1735V70.3267C540.658 68.3705 542.229 66.9033 544.095 66.9033H551.46C553.424 66.9033 554.896 68.4683 554.896 70.3267V77.1735C554.896 79.032 553.325 80.597 551.46 80.597Z" fill="#FCEEEF"/>
<path d="M475.261 194.156C475.556 185.94 469.468 178.898 461.219 177.92C452.382 176.941 444.428 183.397 443.642 192.2C443.151 198.558 443.741 209.415 444.526 220.957L476.832 217.044L475.261 194.156Z" fill="#F8F2DA"/>
<path d="M476.93 217.24L444.624 221.152C445.606 236.509 446.981 245.214 446.195 254.017C445.41 263.896 453.167 272.308 463.085 272.308C472.217 272.308 479.778 265.07 480.072 255.973L476.93 217.24Z" fill="#FCA0A0"/>
<path d="M393.269 211.176L467.504 248.148C475.752 252.746 478.01 261.744 473.788 268.493C469.468 275.438 460.139 277.198 453.56 272.503L386.493 224.38L393.269 211.176Z" fill="#FCA0A0"/>
<path d="M400.046 219.646C402.615 212.072 398.534 203.857 390.93 201.298C383.326 198.739 375.079 202.804 372.509 210.379C369.94 217.953 374.022 226.168 381.626 228.727C389.23 231.287 397.477 227.221 400.046 219.646Z" fill="#FCA0A0"/>
<path d="M383.056 201.688C383.056 201.688 382.369 196.015 389.733 197.873C397.098 199.732 403.775 205.503 400.142 219.587L383.056 201.688Z" fill="#FCA0A0"/>
<path d="M394.348 174.301L378.637 170.682C377.753 170.486 376.967 171.073 376.771 172.051L370.781 212.643C370.683 213.621 371.272 214.501 372.058 214.697L387.769 218.316C388.653 218.511 389.438 217.925 389.635 216.946L395.624 176.355C395.821 175.376 395.232 174.496 394.348 174.301Z" fill="#37305E"/>
<path d="M395.821 174.594L380.109 170.975C379.226 170.779 378.44 171.366 378.244 172.344L372.254 212.936C372.156 213.914 372.745 214.795 373.53 214.99L389.241 218.609C390.125 218.805 390.911 218.218 391.107 217.24L397.097 176.648C397.293 175.768 396.704 174.79 395.821 174.594Z" fill="#261C42"/>
<path d="M395.035 178.506L381.19 175.376L376.28 208.437L390.126 211.567L395.035 178.506Z" fill="#E7E7E7"/>
<path d="M381.189 175.376L390.125 211.567L395.035 178.506L381.189 175.376Z" fill="white"/>
<path d="M393.759 199.438C393.759 199.438 390.715 197.971 387.377 197.58C385.904 197.384 384.431 198.167 383.842 199.634C383.351 200.905 383.645 202.372 384.627 203.253L390.224 208.632C390.224 208.632 389.341 216.555 393.072 220.272L396.411 207.752L393.759 199.438Z" fill="#FCA0A0"/>
<path d="M486.75 244.921L452.578 252.452C452.578 252.452 443.446 272.602 428.324 362.686C428.128 364.056 427.833 365.425 427.637 366.794C443.937 366.99 460.335 367.479 476.636 368.066L498.435 261.842L486.75 244.921Z" fill="#785AFC"/>
<path d="M526.813 317.106C525.635 273.482 503.443 249.909 503.443 249.909L461.317 251.181L472.512 367.87C490.678 368.457 508.843 369.142 526.911 369.826C527.206 349.286 527.108 330.408 526.813 317.106Z" fill="#785AFC"/>
<path d="M453.756 289.425L466.718 300.087L472.609 367.968" stroke="#121E35" stroke-width="1.1396" stroke-miterlimit="10" stroke-linecap="round" stroke-linejoin="round"/>
<path d="M464.264 174.79L452.284 179.778C450.32 180.561 449.142 182.517 449.24 184.571L452.48 252.452L506.88 251.768L510.121 181.636C510.219 177.92 507.175 173.42 503.443 173.127L481.35 172.736L464.264 174.79Z" fill="#F8F2DA"/>
<path d="M451.007 199.438C451.007 199.438 445.41 206.481 451.007 220.272" stroke="#121E35" stroke-width="1.1396" stroke-miterlimit="10" stroke-linecap="round" stroke-linejoin="round"/>
<path d="M531.329 204.427L502.755 219.881C509.334 233.77 516.698 248.637 519.252 257.049C522.197 266.537 532.508 271.525 541.738 267.809C550.281 264.483 554.602 254.995 551.558 246.388L531.329 204.427Z" fill="#FCA0A0"/>
<path d="M521.314 183.593C518.564 175.866 510.218 171.562 502.264 173.714C493.623 176.061 493.918 195.917 496.471 204.427C498.336 210.491 497.747 209.415 502.755 219.881L531.33 204.427L521.314 183.593Z" fill="#F8F2DA"/>
<path d="M502.461 219.881L496.274 204.427" stroke="#121E35" stroke-width="1.1396" stroke-miterlimit="10" stroke-linecap="round" stroke-linejoin="round"/>
<path d="M461.219 239.052L537.32 240.715C545.371 241.106 551.46 248.148 550.674 256.169C549.888 264.287 542.327 270.058 534.275 268.689L461.906 256.267L461.219 239.052Z" fill="#FCA0A0"/>
<path d="M462.466 260.806C470.421 259.745 476.004 252.462 474.936 244.538C473.868 236.615 466.553 231.051 458.598 232.113C450.643 233.174 445.06 240.457 446.128 248.381C447.197 256.304 454.511 261.867 462.466 260.806Z" fill="#FCA0A0"/>
<path d="M451.695 236.02C451.695 236.02 448.553 231.227 456.015 229.662C463.478 228.097 471.923 230.249 475.065 244.53L451.695 236.02Z" fill="#FCA0A0"/>
<path d="M495.454 167.083C504.743 164.895 510.493 155.621 508.296 146.368C506.1 137.116 496.79 131.388 487.501 133.576C478.212 135.764 472.462 145.038 474.658 154.291C476.855 163.543 486.165 169.271 495.454 167.083Z" fill="#121E35"/>
<path d="M437.75 107.789C437.75 107.789 465.735 91.3563 484.883 108.473C496.569 118.841 492.15 135.861 476.439 146.424C461.513 156.499 456.014 109.549 456.014 109.549L437.75 107.789Z" fill="#121E35"/>
<path d="M453.069 103.485C453.069 103.485 425.869 104.952 427.734 125.395C429.011 138.991 450.319 138.599 450.319 138.599L453.069 103.485Z" fill="#121E35"/>
<path d="M443.552 149.624C447.333 148.453 449.444 144.45 448.268 140.685C447.091 136.919 443.073 134.816 439.293 135.988C435.513 137.16 433.402 141.162 434.578 144.928C435.754 148.693 439.772 150.796 443.552 149.624Z" fill="#EA8C8C"/>
<path d="M457.389 160.998L462.495 178.017C464.262 183.984 467.503 186.429 473.394 184.571C478.402 183.006 483.803 178.604 482.821 173.42L473.394 147.109L457.389 160.998Z" fill="#FCA0A0"/>
<path d="M464.656 174.203L458.568 176.844C458.568 176.844 449.141 192.493 467.111 193.08C488.812 193.765 490.579 181.343 494.016 172.931L482.92 171.855L464.656 174.203Z" fill="#FCA0A0"/>
<path d="M460.041 169.997C460.041 169.997 475.064 167.845 475.064 147.794L456.702 159.238L460.041 169.997Z" fill="#121E35"/>
<path d="M463.281 162.563C453.068 165.009 442.66 158.944 440.401 150.728L435.099 131.264C432.251 120.896 438.143 110.234 448.453 107.006C458.96 103.778 472.02 109.06 475.26 119.526L479.286 135.274C482.527 147.305 475.358 158.846 463.281 162.563Z" fill="#FCA0A0"/>
<path d="M461.906 116.69C462.004 129.209 473.885 135.861 473.885 135.861L482.33 118.744C482.33 118.744 461.807 106.419 461.906 116.69Z" fill="#121E35"/>
<path d="M465.343 118.939C465.343 118.939 440.499 116.69 432.546 128.525C432.546 128.525 431.858 104.267 458.567 102.898C485.276 101.529 477.519 120.309 477.519 120.309L465.343 118.939Z" fill="#121E35"/>
<path d="M449.632 142.512L450.123 146.229L452.578 145.74" stroke="#121E35" stroke-width="1.1013" stroke-miterlimit="10" stroke-linecap="round" stroke-linejoin="round"/>
<path d="M443.92 142.542C444.914 142.274 445.502 141.253 445.232 140.262C444.962 139.272 443.938 138.686 442.943 138.955C441.949 139.224 441.361 140.245 441.631 141.235C441.901 142.226 442.926 142.811 443.92 142.542Z" fill="#121E35"/>
<path d="M459.056 138.505C460.05 138.237 460.638 137.216 460.368 136.225C460.098 135.235 459.073 134.65 458.079 134.918C457.084 135.187 456.497 136.208 456.767 137.198C457.037 138.189 458.061 138.774 459.056 138.505Z" fill="#121E35"/>
<path d="M451.203 131.655L462.201 130.579C462.201 130.579 460.433 127.645 456.015 128.134C451.498 128.525 451.203 131.655 451.203 131.655Z" fill="#121E35"/>
<path d="M445.606 133.318L437.849 135.763C437.849 135.763 438.045 132.829 441.187 131.851C444.329 130.872 445.606 133.318 445.606 133.318Z" fill="#121E35"/>
<path d="M449.534 150.337L460.728 147.794C460.728 147.794 459.845 153.076 453.953 153.173C449.829 153.271 449.534 150.337 449.534 150.337Z" fill="white"/>
<path d="M478.474 140.249C482.098 139.997 484.832 136.867 484.58 133.256C484.328 129.645 481.185 126.922 477.56 127.173C473.936 127.425 471.202 130.555 471.454 134.166C471.706 137.776 474.849 140.5 478.474 140.249Z" fill="#FCA0A0"/>
<path d="M475.849 135.763C475.849 135.763 475.555 130.97 480.17 131.459" stroke="#121E35" stroke-width="0.981" stroke-miterlimit="10" stroke-linecap="round" stroke-linejoin="round"/>
<path d="M109.29 315.736V365.523L154.361 366.696V330.995L164.083 329.332L170.662 365.523L211.412 368.066L195.505 293.435L109.29 315.736Z" fill="#171D5F"/>
<path d="M72.3686 233.868L56.0684 343.124L73.6452 344.982L102.809 232.89L72.3686 233.868Z" fill="#F29891"/>
<path d="M56.069 343.124C56.069 343.124 26.9053 349.775 28.0836 357.502H63.63C63.63 357.502 77.0826 356.524 73.6458 344.982L56.069 343.124Z" fill="#F29891"/>
<path d="M115.575 185.94C115.575 185.94 79.3412 183.006 59.3096 236.802L103.988 252.745L115.575 185.94Z" fill="#F36867"/>
<path d="M243.523 147.5L227.615 200.318L246.174 221.152C246.174 221.152 257.663 174.496 258.056 147.598L243.523 147.5Z" fill="#FCA0A0"/>
<path d="M242.933 149.065C242.933 149.065 257.172 150.924 259.135 147.402C262.572 141.24 260.805 124.417 260.805 124.417C260.805 124.417 235.863 125.003 236.158 125.199C236.452 125.395 242.933 149.065 242.933 149.065Z" fill="#FCA0A0"/>
<path d="M242.934 149.065C242.639 147.794 233.114 137.132 229.677 133.024C228.892 132.046 229.088 130.481 230.267 129.796C231.052 129.307 232.329 128.916 233.409 129.796L242.541 136.839L242.934 149.065Z" fill="#FCA0A0"/>
<path d="M237.827 135.274L234.096 115.32C233.801 114.049 234.685 112.679 236.06 112.386C237.238 112.19 238.318 112.777 238.613 113.951L242.54 128.329L237.827 135.274Z" fill="#FCA0A0"/>
<path d="M242.541 125.492L242.246 110.234C242.246 108.864 243.228 107.788 244.505 107.691C245.683 107.593 246.567 108.375 246.763 109.549L249.12 126.275L242.541 125.492Z" fill="#FCA0A0"/>
<path d="M249.513 127.253L250.691 111.701C250.789 110.234 252.066 109.158 253.44 109.158C254.815 109.158 255.797 110.234 255.797 111.603L255.601 125.884L249.513 127.253Z" fill="#FCA0A0"/>
<path d="M260.805 124.417L262.671 114.44C262.671 113.364 261.885 112.484 260.805 112.386C259.725 112.386 258.841 113.07 258.546 114.146L255.601 125.982L260.805 124.417Z" fill="#FCA0A0"/>
<path d="M238.318 133.513C238.318 133.513 245.585 129.698 250.396 139.381" stroke="#282828" stroke-width="1.1831" stroke-miterlimit="10" stroke-linecap="round" stroke-linejoin="round"/>
<path d="M247.352 207.556C247.352 207.556 249.414 228.097 237.827 229.955C226.24 231.814 200.513 215.773 200.513 215.773L188.632 175.67L233.31 200.318L247.352 207.556Z" fill="#FCA0A0"/>
<path d="M157.504 178.506C157.504 178.506 182.249 162.172 220.643 187.798L198.058 223.304L175.572 221.25L157.504 178.506Z" fill="#F36867"/>
<path d="M99.0781 245.605L104.773 317.203L204.244 303.119L188.828 198.753L157.504 178.506L115.575 185.94L99.0781 245.605Z" fill="#F36867"/>
<path d="M99.5692 251.18L96.918 227.119" stroke="#121E35" stroke-width="1.1396" stroke-miterlimit="10" stroke-linecap="round" stroke-linejoin="round"/>
<path d="M192.363 222.815L188.533 201.981" stroke="#121E35" stroke-width="1.1396" stroke-miterlimit="10" stroke-linecap="round" stroke-linejoin="round"/>
<path d="M123.333 180.56L118.718 152.586L144.641 148.38L149.256 176.355L157.505 178.604C157.505 178.604 157.603 190.537 138.553 193.863C119.503 197.286 115.674 186.038 115.674 186.038L123.333 180.56Z" fill="#FCA0A0"/>
<path d="M146.016 157.183C146.016 157.183 145.623 168.138 136.098 170.975C125.199 174.203 120.093 161.683 120.093 161.683C120.093 161.683 125.984 166.769 133.742 165.497C142.481 164.128 146.016 157.183 146.016 157.183Z" fill="#121E35"/>
<path d="M115.084 107.299C115.084 107.299 119.699 95.9532 135.214 97.8116C146.113 99.0832 149.845 107.984 151.711 112.092C152.496 113.657 152.791 115.32 152.692 117.081L150.532 136.154L132.366 111.897L117.441 114.537L115.084 107.299Z" fill="#121E35"/>
<path d="M150.434 136.056C150.434 136.056 152.104 132.73 156.326 133.904C160.548 135.078 159.665 145.055 153.773 146.815C153.773 146.815 151.613 147.5 149.747 146.228C149.747 146.228 150.533 138.893 150.434 136.056Z" fill="#FCA0A0"/>
<path d="M155.835 137.425C155.835 137.425 152.3 136.643 150.435 141.827" stroke="#131313" stroke-width="0.6978" stroke-miterlimit="10" stroke-linecap="round" stroke-linejoin="round"/>
<path d="M108.996 140.164C108.996 140.164 106.738 137.23 102.81 139.186C98.8823 141.142 101.73 150.728 107.916 151.413C107.916 151.413 110.175 151.706 111.746 150.043C111.746 150.043 109.487 142.903 108.996 140.164Z" fill="#FCA0A0"/>
<path d="M103.988 142.61C103.988 142.61 107.229 141.142 110.175 145.837" stroke="#131313" stroke-width="0.6978" stroke-miterlimit="10" stroke-linecap="round" stroke-linejoin="round"/>
<path d="M149.943 126.764C150.532 132.633 151.22 145.055 148.274 152.782C145.524 160.02 141.204 163.541 133.839 164.519C126.475 165.497 119.699 163.932 114.299 155.423C108.996 146.913 107.621 131.068 107.621 131.068C107.621 131.068 105.559 109.94 126.475 107.886C148.47 105.734 149.943 126.764 149.943 126.764Z" fill="#FCA0A0"/>
<path d="M108.997 140.164L103.4 121.971C103.007 120.504 103.105 118.939 103.596 117.472C104.873 113.853 108.702 105.734 114.987 107.299L117.343 114.44C117.343 114.44 109.684 116.787 107.622 127.253L108.997 140.164Z" fill="#121E35"/>
<path d="M112.63 113.559C112.63 113.559 126.672 127.351 151.319 123.438C151.319 123.438 147.194 105.832 135.509 105.637C123.922 105.539 114.79 111.505 114.79 111.505L112.63 113.559Z" fill="#121E35"/>
<path d="M117.441 114.537C117.441 114.537 114.986 123.047 107.523 129.894C107.523 129.894 104.184 113.266 117.441 114.537Z" fill="#121E35"/>
<path d="M138.851 137.311C139.869 137.151 140.564 136.2 140.405 135.186C140.245 134.172 139.29 133.48 138.272 133.639C137.254 133.798 136.558 134.749 136.718 135.763C136.878 136.777 137.833 137.47 138.851 137.311Z" fill="#121E35"/>
<path d="M121.557 139.943C122.575 139.783 123.27 138.832 123.111 137.818C122.951 136.804 121.996 136.112 120.978 136.271C119.96 136.43 119.264 137.381 119.424 138.395C119.584 139.409 120.539 140.102 121.557 139.943Z" fill="#121E35"/>
<path d="M123.53 129.209L111.55 134.393C111.55 134.393 111.55 130.872 116.46 128.818C121.369 126.666 123.53 129.209 123.53 129.209Z" fill="#121E35"/>
<path d="M132.269 128.035L145.23 129.307C145.23 129.307 144.15 125.884 138.848 125.492C133.545 125.003 132.269 128.035 132.269 128.035Z" fill="#121E35"/>
<path d="M129.028 141.436L129.519 144.077C129.617 144.761 130.305 145.153 130.992 144.859L132.367 144.272" stroke="#121E35" stroke-width="1.0257" stroke-miterlimit="10" stroke-linecap="round" stroke-linejoin="round"/>
<path d="M125.101 150.043L138.553 147.011C138.553 147.011 139.633 152.195 133.054 153.466C126.377 154.836 125.101 150.043 125.101 150.043Z" fill="white"/>
<path d="M588.971 356.328H0V371H588.971V356.328Z" fill="#F6BDBC"/>
<path d="M259.234 328.452H229.776C222.018 328.452 215.832 334.712 215.832 342.341C215.832 350.068 222.116 356.23 229.776 356.23H264.34L259.234 328.452Z" fill="#FCA0A0"/>
<path d="M219.072 333.538L237.336 303.706L264.34 307.422L260.412 342.439L219.072 333.538Z" fill="#FCA0A0"/>
<path d="M251.967 328.452H229.775" stroke="#121E35" stroke-width="1.1396" stroke-miterlimit="10" stroke-linecap="round" stroke-linejoin="round"/>
<path d="M351.242 328.452H380.603C388.36 328.452 394.546 334.712 394.546 342.341C394.546 350.069 388.262 356.231 380.603 356.231H346.038L351.242 328.452Z" fill="#FCA0A0"/>
<path d="M391.011 333.147L368.034 297.935L346.038 307.423L350.064 342.439L391.011 333.147Z" fill="#FCA0A0"/>
<path d="M352.912 328.452H380.603" stroke="#121E35" stroke-width="1.1396" stroke-miterlimit="10" stroke-linecap="round" stroke-linejoin="round"/>
<path d="M302.734 251.572C302.734 251.572 273.472 251.572 251.968 272.699V331.875C251.968 331.875 355.072 333.44 355.072 331.875C355.072 330.311 355.072 268.787 355.072 268.787C355.072 268.787 333.96 251.572 302.734 251.572Z" fill="#734AEA"/>
<path d="M256.289 268.689C256.289 268.689 240.381 281.503 223.59 309.672C223.59 309.672 227.223 326.007 258.449 328.452L256.289 268.689Z" fill="#734AEA"/>
<path d="M355.072 268.689C355.072 268.689 370.98 281.503 387.771 309.672C387.771 309.672 384.138 326.007 352.912 328.452L355.072 268.689Z" fill="#734AEA"/>
<path d="M350.358 356.328H256.582C254.029 356.328 251.869 354.274 251.869 351.634V292.653C251.869 290.11 253.931 287.958 256.582 287.958H350.358C352.911 287.958 355.071 290.012 355.071 292.653V351.634C355.071 354.274 352.911 356.328 350.358 356.328Z" fill="#FFE6E9"/>
<path d="M303.52 328.452C306.991 328.452 309.804 325.649 309.804 322.192C309.804 318.735 306.991 315.932 303.52 315.932C300.049 315.932 297.235 318.735 297.235 322.192C297.235 325.649 300.049 328.452 303.52 328.452Z" fill="white"/>
<path d="M313.339 239.052H293.111V261.647H313.339V239.052Z" fill="#FCA0A0"/>
<path d="M292.129 237.878C292.129 237.878 293.896 249.127 302.439 249.322C313.535 249.616 313.437 238.367 313.437 238.367C313.437 238.367 311.964 241.693 303.323 241.693C293.602 241.693 292.129 237.878 292.129 237.878Z" fill="#121E35"/>
<path d="M303.324 229.956C318.834 229.956 331.407 217.081 331.407 201.199C331.407 185.317 318.834 172.442 303.324 172.442C287.814 172.442 275.24 185.317 275.24 201.199C275.24 217.081 287.814 229.956 303.324 229.956Z" fill="#121E35"/>
<path d="M327.578 211.665C327.578 211.665 329.64 208.437 333.764 210.002C337.986 211.567 336.022 221.642 329.738 223.011C329.738 223.011 327.479 223.5 325.712 221.935C325.81 222.033 327.381 214.502 327.578 211.665Z" fill="#FCA0A0"/>
<path d="M332.978 213.621C332.978 213.621 329.443 212.448 326.988 217.632" stroke="#131313" stroke-width="0.7753" stroke-miterlimit="10" stroke-linecap="round" stroke-linejoin="round"/>
<path d="M279.659 211.665C279.659 211.665 277.597 208.437 273.472 210.002C269.25 211.567 271.214 221.642 277.498 223.011C277.498 223.011 279.757 223.5 281.524 221.935C281.426 222.033 279.855 214.502 279.659 211.665Z" fill="#FCA0A0"/>
<path d="M274.258 213.621C274.258 213.621 277.793 212.448 280.248 217.632" stroke="#131313" stroke-width="0.7753" stroke-miterlimit="10" stroke-linecap="round" stroke-linejoin="round"/>
<path d="M327.971 202.96C327.971 209.415 327.283 223.011 323.061 231.032C319.133 238.563 312.554 242.671 304.011 242.867C295.468 243.062 289.086 240.03 283.881 230.151C278.775 220.37 278.972 203.057 278.972 203.057C278.972 203.057 278.972 179.876 303.128 179.876C328.756 179.974 327.971 202.96 327.971 202.96Z" fill="#FCA0A0"/>
<path d="M279.659 211.665C279.659 211.665 284.864 200.416 280.248 192.2C280.248 192.298 276.124 205.405 279.659 211.665Z" fill="#121E35"/>
<path d="M327.479 211.665C327.479 211.665 322.275 200.416 326.89 192.2C326.89 192.298 331.015 205.405 327.479 211.665Z" fill="#121E35"/>
<path d="M315.794 181.245C315.794 181.245 313.437 194.939 327.577 201.199C327.675 201.199 327.086 185.158 315.794 181.245Z" fill="#121E35"/>
<path d="M319.035 183.006C319.035 183.006 316.875 196.699 298.316 193.569C283.783 191.222 279.364 202.275 279.364 202.275C279.364 202.275 276.811 181.734 300.182 177.528C300.182 177.528 312.161 177.528 319.035 183.006Z" fill="#121E35"/>
<path d="M292.718 216.359C293.966 216.359 294.977 215.352 294.977 214.11C294.977 212.867 293.966 211.86 292.718 211.86C291.471 211.86 290.46 212.867 290.46 214.11C290.46 215.352 291.471 216.359 292.718 216.359Z" fill="#121E35"/>
<path d="M313.143 216.359C314.391 216.359 315.402 215.352 315.402 214.11C315.402 212.867 314.391 211.86 313.143 211.86C311.896 211.86 310.885 212.867 310.885 214.11C310.885 215.352 311.896 216.359 313.143 216.359Z" fill="#121E35"/>
<path d="M301.851 218.903V221.837C301.851 222.62 302.538 223.109 303.225 223.011L304.796 222.717" stroke="#121E35" stroke-width="1.1396" stroke-miterlimit="10" stroke-linecap="round" stroke-linejoin="round"/>
<path d="M299.297 207.263L285.845 208.828C285.845 208.828 286.925 205.307 292.424 204.72C297.923 204.133 299.297 207.263 299.297 207.263Z" fill="#121E35"/>
<path d="M307.055 207.263L320.507 208.828C320.507 208.828 319.427 205.307 313.928 204.72C308.429 204.133 307.055 207.263 307.055 207.263Z" fill="#121E35"/>
<path d="M290.558 223.208C295.601 223.208 299.69 219.136 299.69 214.112C299.69 209.088 295.601 205.015 290.558 205.015C285.514 205.015 281.426 209.088 281.426 214.112C281.426 219.136 285.514 223.208 290.558 223.208Z" stroke="white" stroke-width="1.2497" stroke-miterlimit="10"/>
<path d="M316.482 223.206C321.525 223.206 325.614 219.134 325.614 214.11C325.614 209.086 321.525 205.013 316.482 205.013C311.438 205.013 307.35 209.086 307.35 214.11C307.35 219.134 311.438 223.206 316.482 223.206Z" stroke="white" stroke-width="1.2497" stroke-miterlimit="10"/>
<path d="M299.689 214.794C299.689 214.794 302.93 209.806 307.349 214.794" stroke="white" stroke-width="1.2497" stroke-miterlimit="10"/>
<path d="M295.664 227.119C295.664 227.119 297.039 228.879 303.029 228.879C308.429 228.879 310.982 227.119 310.982 227.119" stroke="#121E35" stroke-width="1.1396" stroke-miterlimit="10" stroke-linecap="round" stroke-linejoin="round"/>
<path d="M302.734 251.572C302.734 251.572 290.362 250.887 274.258 258.028C274.258 258.028 273.963 271.917 301.752 271.917C329.64 271.917 332.094 256.756 332.094 256.756C332.094 256.756 314.419 250.398 302.734 251.572Z" fill="#FCA0A0"/>
<path d="M313.34 182.223C323.481 182.223 331.702 174.034 331.702 163.933C331.702 153.831 323.481 145.642 313.34 145.642C303.199 145.642 294.978 153.831 294.978 163.933C294.978 174.034 303.199 182.223 313.34 182.223Z" fill="#121E35"/>
</g>
<defs>
<clipPath id="clip0">
<rect width="620" height="371" fill="white"/>
</clipPath>
</defs>
</svg>
